<svg width="1110" height="245" viewBox="0 0 1110 245" fill="none" xmlns="http://www.w3.org/2000/svg">
<path d="M1063.84 78.72L1059.96 82.6L1030.8 53.43L1034.68 49.55H1036.32C1044.3 41.57 1063.38 22.49 1071.57 14.31L1099.09 41.83C1090.97 49.94 1071.75 69.17 1063.84 77.08V78.72Z" fill="#4C4C4C" stroke="#2B2B2B" stroke-width="2" stroke-miterlimit="10"/>
<path d="M1064.12 6.85999L1106.53 49.27" stroke="#2B2B2B" stroke-width="2" stroke-miterlimit="10"/>
<path d="M212.62 210.86V46.53H211.73H205.97H77.2699C75.5099 46.53 73.8199 47.23 72.5699 48.48L11.8399 109.21C10.5899 110.46 9.88989 112.15 9.88989 113.91V204.21C9.88989 207.88 12.8699 210.86 16.5399 210.86H205.97H212.62Z" fill="#7C7C7C"/>
<path d="M172.78 80.6H162.81C161.2 80.6 159.9 81.9 159.9 83.51C159.9 85.12 161.2 86.42 162.81 86.42H172.78C174.39 86.42 175.69 85.12 175.69 83.51C175.69 81.9 174.39 80.6 172.78 80.6Z" fill="#235FD8" stroke="white" stroke-width="2" stroke-miterlimit="10"/>
<path d="M172.74 69.8H162.82C161.21 69.8 159.91 71.1 159.91 72.71C159.91 74.32 161.21 75.62 162.82 75.62H172.74C174.35 75.62 175.65 74.32 175.65 72.71C175.65 71.1 174.35 69.8 172.74 69.8Z" fill="#235FD8" stroke="white" stroke-width="2" stroke-miterlimit="10"/>
<path d="M887.27 210.86V46.53H888.16H893.92H1022.62C1024.38 46.53 1026.07 47.23 1027.32 48.48L1088.05 109.21C1089.3 110.46 1090 112.15 1090 113.91V204.21C1090 207.88 1087.02 210.86 1083.35 210.86H893.92H887.27Z" fill="#7C7C7C"/>
<path d="M1024.96 50.83L1085.69 111.56C1086.31 112.18 1086.66 113.03 1086.66 113.91V204.21C1086.66 206.05 1085.17 207.53 1083.34 207.53H887.26V204.21V113.91V109.21V48.48V46.53H212.62V48.48V109.21V113.91V204.21V207.53H16.5399C14.6999 207.53 13.2199 206.04 13.2199 204.21V113.91C13.2199 113.03 13.5699 112.18 14.1899 111.56L74.9199 50.83C75.5399 50.21 76.3899 49.86 77.2699 49.86H140.98V46.54H77.2699C75.5099 46.54 73.8199 47.24 72.5699 48.49L11.8399 109.22C10.5899 110.47 9.88989 112.16 9.88989 113.92V204.22C9.88989 205.39 10.1999 206.53 10.7799 207.54C11.9699 209.6 14.1599 210.86 16.5399 210.86H212.62H887.26H1083.34C1085.71 210.86 1087.91 209.59 1089.1 207.54C1089.68 206.53 1089.99 205.38 1089.99 204.22V113.92C1089.99 112.16 1089.29 110.47 1088.04 109.22L1027.31 48.49C1026.06 47.24 1024.37 46.54 1022.61 46.54H958.9V49.86H1022.61C1023.49 49.86 1024.34 50.21 1024.96 50.83Z" fill="#141019"/>
<path d="M752.67 172.34L763.58 166.04C763.94 165.83 764.09 165.4 763.94 165.01C763.46 163.81 763.13 162.56 762.94 161.28C761.63 152.27 767.87 143.9 776.89 142.59C777.3 142.53 777.6 142.18 777.6 141.77V129.17C777.6 128.71 777.23 128.34 776.77 128.34C776.75 128.34 776.72 128.34 776.7 128.34C759.82 129.75 747.28 144.59 748.7 161.47C749.01 165.11 749.96 168.67 751.51 171.97C751.71 172.39 752.2 172.56 752.62 172.37C752.63 172.36 752.65 172.35 752.67 172.34Z" fill="#235FD8"/>
<path d="M805.86 135.62C807.694 135.62 809.18 134.134 809.18 132.3C809.18 130.466 807.694 128.98 805.86 128.98C804.026 128.98 802.54 130.466 802.54 132.3C802.54 134.134 804.026 135.62 805.86 135.62Z" fill="#235FD8"/>
<path d="M805.86 188.83C807.694 188.83 809.18 187.344 809.18 185.51C809.18 183.676 807.694 182.19 805.86 182.19C804.026 182.19 802.54 183.676 802.54 185.51C802.54 187.344 804.026 188.83 805.86 188.83Z" fill="#235FD8"/>
<path d="M752.65 188.83C754.483 188.83 755.97 187.344 755.97 185.51C755.97 183.676 754.483 182.19 752.65 182.19C750.816 182.19 749.33 183.676 749.33 185.51C749.33 187.344 750.816 188.83 752.65 188.83Z" fill="#235FD8"/>
<path d="M780.92 129.17V141.77C780.92 142.18 781.22 142.53 781.63 142.59C782.91 142.78 784.16 143.11 785.36 143.59C793.82 146.96 797.95 156.55 794.58 165.01C794.43 165.39 794.58 165.83 794.94 166.04L805.85 172.34C806.25 172.57 806.76 172.43 806.99 172.04C807 172.02 807.01 172 807.02 171.98C814.24 156.65 807.66 138.38 792.33 131.16C789.02 129.6 785.47 128.65 781.83 128.35C781.37 128.31 780.97 128.65 780.93 129.11C780.92 129.12 780.92 129.14 780.92 129.17Z" fill="#235FD8"/>
<path d="M804.18 175.21L793.27 168.91C792.91 168.7 792.46 168.79 792.2 169.11C791.4 170.12 790.48 171.04 789.47 171.84C782.32 177.48 771.95 176.26 766.31 169.11C766.05 168.79 765.6 168.7 765.24 168.91L754.33 175.21C753.93 175.44 753.8 175.95 754.03 176.34C754.04 176.36 754.05 176.38 754.07 176.4C763.74 190.31 782.85 193.75 796.76 184.09C799.76 182.01 802.36 179.4 804.45 176.4C804.71 176.02 804.62 175.51 804.24 175.24C804.22 175.24 804.2 175.23 804.18 175.21Z" fill="#235FD8"/>
<path d="M752.65 135.62C754.483 135.62 755.97 134.134 755.97 132.3C755.97 130.466 754.483 128.98 752.65 128.98C750.816 128.98 749.33 130.466 749.33 132.3C749.33 134.134 750.816 135.62 752.65 135.62Z" fill="#235FD8"/>
<path d="M1089.69 168.19L1087.03 184.07C1086.88 184.95 1085.91 185.4 1085.14 184.95L1083.34 183.88C1082.85 185.66 1082.29 187.42 1081.68 189.15L1083.76 189.3C1084.66 189.36 1085.18 190.29 1084.81 191.1L1077.8 205.59C1077.41 206.39 1076.34 206.54 1075.74 205.91L1074.32 204.36C1073.35 205.93 1072.32 207.46 1071.22 208.94L1073.18 209.69C1074 210.01 1074.26 211.06 1073.67 211.71L1062.86 223.64C1062.26 224.31 1061.2 224.16 1060.8 223.36L1059.86 221.47C1058.48 222.7 1057.05 223.88 1055.6 225L1057.28 226.27C1057.97 226.81 1057.92 227.9 1057.17 228.35L1043.44 236.77C1042.67 237.22 1041.7 236.79 1041.53 235.91L1041.17 233.85C1039.52 234.64 1037.82 235.37 1036.1 236.04L1037.33 237.72C1037.85 238.43 1037.5 239.44 1036.64 239.68L1021.1 243.87C1020.24 244.09 1019.42 243.4 1019.51 242.5L1019.75 240.44C1017.94 240.72 1016.1 240.95 1014.25 241.09L1014.98 243.05C1015.28 243.87 1014.64 244.75 1013.76 244.73L997.66 244.37C996.78 244.35 996.18 243.45 996.54 242.63L997.34 240.7C995.49 240.46 993.67 240.16 991.88 239.78L992.01 241.87C992.07 242.75 991.22 243.42 990.38 243.14L975.03 238.28C974.19 238 973.89 236.97 974.43 236.28L975.76 234.65C974.06 233.92 972.39 233.12 970.77 232.26L970.32 234.3C970.13 235.16 969.12 235.55 968.39 235.07L955.04 226.06C954.31 225.57 954.31 224.49 955.04 223.98L956.78 222.78C955.36 221.6 953.99 220.35 952.67 219.08L951.64 220.91C951.21 221.68 950.14 221.79 949.58 221.1L939.29 208.7C938.73 208.03 939.03 206.98 939.87 206.72L941.87 206.05C940.84 204.52 939.87 202.95 938.97 201.34L937.49 202.82C936.85 203.44 935.79 203.23 935.43 202.43L929.07 187.64C928.73 186.82 929.29 185.92 930.19 185.88L932.27 185.82C931.73 184.06 931.26 182.29 930.83 180.47L929 181.46C928.21 181.87 927.26 181.39 927.15 180.51L925.22 164.52C925.11 163.64 925.91 162.93 926.77 163.15L928.83 163.67C928.81 163.33 928.81 162.98 928.81 162.64C928.81 161.12 928.85 159.63 928.94 158.13L926.88 158.56C926.02 158.75 925.23 158 925.38 157.12L928.02 141.24C928.17 140.36 929.14 139.91 929.91 140.36L931.71 141.43C932.2 139.65 932.76 137.9 933.37 136.17L931.29 136C930.41 135.94 929.87 135.01 930.24 134.2L937.25 119.71C937.64 118.91 938.71 118.76 939.31 119.41L940.73 120.94C941.72 119.37 942.75 117.84 943.83 116.36L941.87 115.61C941.05 115.29 940.79 114.24 941.38 113.59L952.19 101.66C952.79 101.01 953.85 101.15 954.25 101.94L955.19 103.85C956.56 102.6 958 101.42 959.45 100.3L957.79 99.0301C957.08 98.4901 957.14 97.42 957.88 96.95L971.61 88.55C972.38 88.08 973.37 88.53 973.52 89.39L973.88 91.45C975.54 90.66 977.23 89.93 978.97 89.26L977.74 87.58C977.2 86.87 977.55 85.86 978.41 85.63L993.95 81.42C994.81 81.2 995.63 81.91 995.54 82.79L995.3 84.85C997.11 84.57 998.95 84.36 1000.8 84.2L1000.09 82.24C999.77 81.42 1000.41 80.54 1001.29 80.56L1017.39 80.92C1018.27 80.94 1018.87 81.84 1018.51 82.66L1017.71 84.5901C1019.56 84.8301 1021.39 85.13 1023.19 85.51L1023.04 83.42C1022.98 82.54 1023.83 81.8701 1024.67 82.1501L1040.02 87.01C1040.86 87.29 1041.16 88.32 1040.62 89.01L1039.31 90.62C1040.99 91.37 1042.66 92.1701 1044.28 93.0301L1044.73 90.99C1044.92 90.13 1045.93 89.74 1046.66 90.22L1060.01 99.23C1060.74 99.72 1060.74 100.8 1060.01 101.31L1058.29 102.49C1059.71 103.69 1061.08 104.94 1062.4 106.21L1063.41 104.38C1063.84 103.61 1064.91 103.5 1065.47 104.19L1075.76 116.59C1076.32 117.26 1076.02 118.31 1075.18 118.57L1073.18 119.24C1074.21 120.77 1075.18 122.34 1076.08 123.95L1077.58 122.47C1078.2 121.85 1079.26 122.06 1079.62 122.88L1085.98 137.66C1086.34 138.48 1085.76 139.4 1084.86 139.42L1082.78 139.49C1083.32 141.23 1083.79 143.01 1084.2 144.82L1086.05 143.83C1086.84 143.42 1087.79 143.9 1087.9 144.8L1089.83 160.77C1089.94 161.65 1089.14 162.36 1088.28 162.14L1086.22 161.62C1086.24 161.96 1086.24 162.31 1086.24 162.65C1086.24 164.16 1086.2 165.66 1086.11 167.16L1088.17 166.73C1089.05 166.56 1089.82 167.31 1089.69 168.19Z" fill="black"/>
<path d="M1027.26 211.45L1028.02 210.36C1028.21 209.3 1027.5 208.3 1026.45 208.11C1025.83 208 1025.19 208.2 1024.74 208.65L1005.68 229.52L990.34 232.99L990.12 233.04C989.86 233.02 989.6 233 989.34 232.98C988.72 232.93 988.1 232.89 987.54 232.84C986.98 232.79 986.45 232.75 986 232.71L985.92 232.69L974.99 227.23C974.73 227.1 974.48 226.93 974.25 226.72C973.92 226.42 973.63 226.05 973.4 225.63C973.16 225.21 972.98 224.73 972.86 224.23C972.74 223.73 972.68 223.2 972.68 222.67C972.68 222.14 972.75 221.61 972.87 221.11C972.99 220.61 973.18 220.13 973.41 219.7C973.64 219.28 973.92 218.91 974.24 218.6C974.54 218.31 974.89 218.08 975.25 217.92L986.47 213.09L986.55 213.07C986.74 213.06 986.94 213.06 987.15 213.05C987.65 213.04 988.21 213.02 988.79 213.01C989.39 213 990.04 212.99 990.68 212.97L991.19 212.83L992.47 212.49C993.29 211.8 993.4 210.58 992.71 209.76C992.3 209.27 991.68 209.02 991.05 209.07L963.03 212.81L948.85 205.51C948.66 205.33 948.47 205.14 948.29 204.96C947.84 204.52 947.4 204.09 947 203.7C946.6 203.3 946.22 202.93 945.91 202.61L945.86 202.54L941 191.33C940.88 191.06 940.8 190.77 940.76 190.47C940.7 190.03 940.72 189.56 940.81 189.09C940.9 188.61 941.07 188.13 941.3 187.67C941.53 187.21 941.82 186.77 942.16 186.36C942.5 185.96 942.89 185.59 943.31 185.28C943.73 184.97 944.18 184.72 944.63 184.55C945.08 184.38 945.53 184.27 945.98 184.24C946.4 184.21 946.81 184.25 947.19 184.37L958.89 187.89L958.96 187.93C959.11 188.05 959.27 188.17 959.43 188.3C959.82 188.61 960.26 188.96 960.72 189.33C961.19 189.71 961.69 190.12 962.19 190.52L963.87 191.3C964.94 191.3 965.81 190.43 965.81 189.36C965.81 188.73 965.5 188.13 964.98 187.77L941.11 172.62L934.94 157.91C934.91 157.65 934.89 157.39 934.86 157.13C934.8 156.51 934.74 155.9 934.69 155.33C934.64 154.77 934.59 154.24 934.55 153.79L934.56 153.71L938.04 142C938.12 141.72 938.25 141.45 938.41 141.19C938.65 140.81 938.96 140.46 939.34 140.16C939.72 139.85 940.15 139.59 940.62 139.39C941.09 139.19 941.6 139.03 942.12 138.94C942.64 138.85 943.17 138.82 943.69 138.86C944.21 138.89 944.71 138.99 945.17 139.15C945.62 139.3 946.04 139.51 946.4 139.78C946.74 140.03 947.03 140.32 947.25 140.66L953.95 150.87C953.97 150.89 953.98 150.92 953.98 150.95C954.02 151.13 954.06 151.33 954.1 151.54C954.2 152.03 954.31 152.58 954.43 153.15C954.55 153.74 954.67 154.38 954.79 155L955.57 156.68C956.39 157.37 957.62 157.26 958.3 156.44C958.71 155.95 958.85 155.3 958.69 154.69L950.14 127.74L954.87 112.51C955.02 112.29 955.17 112.08 955.31 111.86C955.66 111.35 956.01 110.84 956.33 110.37C956.65 109.9 956.95 109.47 957.21 109.1L957.27 109.04L967.46 102.31C967.7 102.15 967.98 102.02 968.27 101.93C968.7 101.79 969.16 101.73 969.64 101.74C970.12 101.75 970.63 101.83 971.12 101.97C971.61 102.12 972.1 102.33 972.56 102.59C973.02 102.86 973.44 103.18 973.82 103.54C974.19 103.9 974.52 104.3 974.77 104.72C975.02 105.13 975.2 105.56 975.31 105.99C975.41 106.4 975.44 106.81 975.39 107.21L973.96 119.34L973.94 119.42C973.85 119.59 973.76 119.77 973.66 119.95C973.43 120.39 973.16 120.88 972.87 121.39C972.58 121.92 972.27 122.49 971.96 123.04L971.48 124.83C971.67 125.89 972.67 126.59 973.73 126.4C974.35 126.29 974.89 125.88 975.15 125.31L985.93 99.17L999.34 90.54C999.59 90.47 999.85 90.4 1000.1 90.33C1000.7 90.16 1001.29 90 1001.84 89.85C1002.39 89.7 1002.9 89.56 1003.33 89.45L1003.41 89.44L1015.55 90.83C1015.84 90.86 1016.13 90.94 1016.42 91.05C1016.83 91.22 1017.23 91.47 1017.6 91.78C1017.97 92.1 1018.3 92.48 1018.58 92.91C1018.86 93.34 1019.1 93.81 1019.28 94.31C1019.46 94.81 1019.58 95.33 1019.64 95.84C1019.7 96.35 1019.69 96.87 1019.61 97.35C1019.54 97.82 1019.4 98.27 1019.21 98.67C1019.02 99.05 1018.78 99.38 1018.49 99.66L1009.6 108.04L1009.53 108.09C1009.36 108.16 1009.17 108.24 1008.97 108.31C1008.51 108.49 1007.98 108.7 1007.43 108.91C1006.87 109.13 1006.26 109.36 1005.67 109.59L1004.15 110.65C1003.61 111.58 1003.93 112.77 1004.86 113.3C1005.41 113.62 1006.08 113.65 1006.65 113.38L1031.7 100.28L1047.52 102.29C1047.76 102.4 1048 102.51 1048.24 102.61C1048.81 102.87 1049.37 103.12 1049.88 103.36C1050.4 103.6 1050.87 103.82 1051.28 104.01L1051.35 104.06L1059.75 112.93C1059.95 113.14 1060.13 113.39 1060.27 113.66C1060.48 114.05 1060.62 114.5 1060.7 114.98C1060.78 115.46 1060.78 115.97 1060.73 116.48C1060.67 116.99 1060.55 117.51 1060.37 118C1060.19 118.5 1059.95 118.97 1059.66 119.4C1059.37 119.83 1059.04 120.22 1058.67 120.54C1058.31 120.86 1057.92 121.11 1057.51 121.29C1057.12 121.46 1056.72 121.56 1056.33 121.58L1044.13 122.28L1044.05 122.27C1043.87 122.21 1043.68 122.15 1043.48 122.08C1043.01 121.92 1042.48 121.74 1041.92 121.56C1041.35 121.37 1040.74 121.16 1040.13 120.95L1038.29 120.79C1037.28 121.16 1036.76 122.27 1037.13 123.28C1037.35 123.88 1037.84 124.33 1038.46 124.49L1066.07 130.56L1076.9 142.27C1077.01 142.51 1077.13 142.74 1077.24 142.98C1077.51 143.54 1077.78 144.1 1078.02 144.61C1078.26 145.12 1078.49 145.6 1078.67 146.01L1078.69 146.09L1079.43 158.29C1079.45 158.58 1079.42 158.88 1079.36 159.18C1079.27 159.62 1079.09 160.05 1078.84 160.46C1078.59 160.88 1078.27 161.27 1077.9 161.62C1077.53 161.98 1077.1 162.29 1076.64 162.55C1076.18 162.81 1075.69 163.02 1075.19 163.17C1074.69 163.31 1074.19 163.4 1073.7 163.41C1073.22 163.42 1072.76 163.37 1072.33 163.24C1071.93 163.12 1071.55 162.94 1071.23 162.71L1061.44 155.4L1061.38 155.34C1061.28 155.18 1061.17 155.01 1061.06 154.83C1060.8 154.41 1060.51 153.93 1060.2 153.42C1059.89 152.9 1059.55 152.35 1059.22 151.8L1057.91 150.49C1056.9 150.12 1055.79 150.64 1055.42 151.65C1055.2 152.25 1055.29 152.91 1055.66 153.43L1072.91 175.83L1073.68 191.76C1073.62 192.01 1073.55 192.27 1073.49 192.52C1073.34 193.12 1073.18 193.72 1073.04 194.27C1072.9 194.82 1072.76 195.33 1072.64 195.76L1072.6 195.84L1065.32 205.66C1065.15 205.9 1064.93 206.11 1064.69 206.3C1064.34 206.57 1063.92 206.79 1063.47 206.95C1063.01 207.11 1062.51 207.2 1062 207.24C1061.49 207.27 1060.96 207.24 1060.44 207.15C1059.92 207.06 1059.41 206.9 1058.93 206.69C1058.46 206.48 1058.02 206.22 1057.63 205.91C1057.26 205.61 1056.94 205.27 1056.69 204.9C1056.46 204.55 1056.29 204.17 1056.19 203.79L1053.38 191.9V191.82C1053.41 191.63 1053.43 191.43 1053.46 191.22C1053.53 190.73 1053.62 190.17 1053.71 189.59C1053.8 188.99 1053.9 188.35 1054 187.72L1053.84 185.88C1053.3 184.95 1052.12 184.63 1051.19 185.17C1050.64 185.49 1050.28 186.05 1050.23 186.69L1049.04 214.94L1039.52 227.46L1039.38 227.64C1039.17 227.79 1038.95 227.95 1038.74 228.1C1038.23 228.46 1037.73 228.82 1037.27 229.15C1036.81 229.48 1036.38 229.78 1036.01 230.04L1035.93 230.07L1024.05 232.91C1023.76 232.98 1023.47 233.01 1023.16 232.99C1022.71 232.97 1022.25 232.87 1021.8 232.7C1021.35 232.53 1020.9 232.28 1020.49 231.97C1020.08 231.66 1019.69 231.3 1019.35 230.89C1019.01 230.48 1018.72 230.04 1018.49 229.57C1018.26 229.11 1018.09 228.62 1018 228.14C1017.91 227.67 1017.88 227.2 1017.93 226.76C1017.98 226.34 1018.09 225.94 1018.27 225.59L1023.76 214.68L1023.81 214.61C1023.95 214.48 1024.1 214.35 1024.26 214.21C1024.63 213.88 1025.05 213.51 1025.49 213.12C1025.94 212.72 1026.43 212.3 1026.91 211.88" fill="#AAAAAA"/>
<path d="M1027.26 211.45L1028.02 210.36C1028.21 209.3 1027.5 208.3 1026.45 208.11C1025.83 208 1025.19 208.2 1024.74 208.65L1005.68 229.52L990.34 232.99L990.12 233.04C989.86 233.02 989.6 233 989.34 232.98C988.72 232.93 988.1 232.89 987.54 232.84C986.98 232.79 986.45 232.75 986 232.71L985.92 232.69L974.99 227.23C974.73 227.1 974.48 226.93 974.25 226.72C973.92 226.42 973.63 226.05 973.4 225.63C973.16 225.21 972.98 224.73 972.86 224.23C972.74 223.73 972.68 223.2 972.68 222.67C972.68 222.14 972.75 221.61 972.87 221.11C972.99 220.61 973.18 220.13 973.41 219.7C973.64 219.28 973.92 218.91 974.24 218.6C974.54 218.31 974.89 218.08 975.25 217.92L986.47 213.09L986.55 213.07C986.74 213.06 986.94 213.06 987.15 213.05C987.65 213.04 988.21 213.02 988.79 213.01C989.39 213 990.04 212.99 990.68 212.97L991.19 212.83L992.47 212.49C993.29 211.8 993.4 210.58 992.71 209.76C992.3 209.27 991.68 209.02 991.05 209.07L963.03 212.81L948.85 205.51C948.66 205.33 948.47 205.14 948.29 204.96C947.84 204.52 947.4 204.09 947 203.7C946.6 203.3 946.22 202.93 945.91 202.61L945.86 202.54L941 191.33C940.88 191.06 940.8 190.77 940.76 190.47C940.7 190.03 940.72 189.56 940.81 189.09C940.9 188.61 941.07 188.13 941.3 187.67C941.53 187.21 941.82 186.77 942.16 186.36C942.5 185.96 942.89 185.59 943.31 185.28C943.73 184.97 944.18 184.72 944.63 184.55C945.08 184.38 945.53 184.27 945.98 184.24C946.4 184.21 946.81 184.25 947.19 184.37L958.89 187.89L958.96 187.93C959.11 188.05 959.27 188.17 959.43 188.3C959.82 188.61 960.26 188.96 960.72 189.33C961.19 189.71 961.69 190.12 962.19 190.52L963.87 191.3C964.94 191.3 965.81 190.43 965.81 189.36C965.81 188.73 965.5 188.13 964.98 187.77L941.11 172.62L934.94 157.91C934.91 157.65 934.89 157.39 934.86 157.13C934.8 156.51 934.74 155.9 934.69 155.33C934.64 154.77 934.59 154.24 934.55 153.79L934.56 153.71L938.04 142C938.12 141.72 938.25 141.45 938.41 141.19C938.65 140.81 938.96 140.46 939.34 140.16C939.72 139.85 940.15 139.59 940.62 139.39C941.09 139.19 941.6 139.03 942.12 138.94C942.64 138.85 943.17 138.82 943.69 138.86C944.21 138.89 944.71 138.99 945.17 139.15C945.62 139.3 946.04 139.51 946.4 139.78C946.74 140.03 947.03 140.32 947.25 140.66L953.95 150.87C953.97 150.89 953.98 150.92 953.98 150.95C954.02 151.13 954.06 151.33 954.1 151.54C954.2 152.03 954.31 152.58 954.43 153.15C954.55 153.74 954.67 154.38 954.79 155L955.57 156.68C956.39 157.37 957.62 157.26 958.3 156.44C958.71 155.95 958.85 155.3 958.69 154.69L950.14 127.74L954.87 112.51C955.02 112.29 955.17 112.08 955.31 111.86C955.66 111.35 956.01 110.84 956.33 110.37C956.65 109.9 956.95 109.47 957.21 109.1L957.27 109.04L967.46 102.31C967.7 102.15 967.98 102.02 968.27 101.93C968.7 101.79 969.16 101.73 969.64 101.74C970.12 101.75 970.63 101.83 971.12 101.97C971.61 102.12 972.1 102.33 972.56 102.59C973.02 102.86 973.44 103.18 973.82 103.54C974.19 103.9 974.52 104.3 974.77 104.72C975.02 105.13 975.2 105.56 975.31 105.99C975.41 106.4 975.44 106.81 975.39 107.21L973.96 119.34L973.94 119.42C973.85 119.59 973.76 119.77 973.66 119.95C973.43 120.39 973.16 120.88 972.87 121.39C972.58 121.92 972.27 122.49 971.96 123.04L971.48 124.83C971.67 125.89 972.67 126.59 973.73 126.4C974.35 126.29 974.89 125.88 975.15 125.31L985.93 99.17L999.34 90.54C999.59 90.47 999.85 90.4 1000.1 90.33C1000.7 90.16 1001.29 90 1001.84 89.85C1002.39 89.7 1002.9 89.56 1003.33 89.45L1003.41 89.44L1015.55 90.83C1015.84 90.86 1016.13 90.94 1016.42 91.05C1016.83 91.22 1017.23 91.47 1017.6 91.78C1017.97 92.1 1018.3 92.48 1018.58 92.91C1018.86 93.34 1019.1 93.81 1019.28 94.31C1019.46 94.81 1019.58 95.33 1019.64 95.84C1019.7 96.35 1019.69 96.87 1019.61 97.35C1019.54 97.82 1019.4 98.27 1019.21 98.67C1019.02 99.05 1018.78 99.38 1018.49 99.66L1009.6 108.04L1009.53 108.09C1009.36 108.16 1009.17 108.24 1008.97 108.31C1008.51 108.49 1007.98 108.7 1007.43 108.91C1006.87 109.13 1006.26 109.36 1005.67 109.59L1004.15 110.65C1003.61 111.58 1003.93 112.77 1004.86 113.3C1005.41 113.62 1006.08 113.65 1006.65 113.38L1031.7 100.28L1047.52 102.29C1047.76 102.4 1048 102.51 1048.24 102.61C1048.81 102.87 1049.37 103.12 1049.88 103.36C1050.4 103.6 1050.87 103.82 1051.28 104.01L1051.35 104.06L1059.75 112.93C1059.95 113.14 1060.13 113.39 1060.27 113.66C1060.48 114.05 1060.62 114.5 1060.7 114.98C1060.78 115.46 1060.78 115.97 1060.73 116.48C1060.67 116.99 1060.55 117.51 1060.37 118C1060.19 118.5 1059.95 118.97 1059.66 119.4C1059.37 119.83 1059.04 120.22 1058.67 120.54C1058.31 120.86 1057.92 121.11 1057.51 121.29C1057.12 121.46 1056.72 121.56 1056.33 121.58L1044.13 122.28L1044.05 122.27C1043.87 122.21 1043.68 122.15 1043.48 122.08C1043.01 121.92 1042.48 121.74 1041.92 121.56C1041.35 121.37 1040.74 121.16 1040.13 120.95L1038.29 120.79C1037.28 121.16 1036.76 122.27 1037.13 123.28C1037.35 123.88 1037.84 124.33 1038.46 124.49L1066.07 130.56L1076.9 142.27C1077.01 142.51 1077.13 142.74 1077.24 142.98C1077.51 143.54 1077.78 144.1 1078.02 144.61C1078.26 145.12 1078.49 145.6 1078.67 146.01L1078.69 146.09L1079.43 158.29C1079.45 158.58 1079.42 158.88 1079.36 159.18C1079.27 159.62 1079.09 160.05 1078.84 160.46C1078.59 160.88 1078.27 161.27 1077.9 161.62C1077.53 161.98 1077.1 162.29 1076.64 162.55C1076.18 162.81 1075.69 163.02 1075.19 163.17C1074.69 163.31 1074.19 163.4 1073.7 163.41C1073.22 163.42 1072.76 163.37 1072.33 163.24C1071.93 163.12 1071.55 162.94 1071.23 162.71L1061.44 155.4L1061.38 155.34C1061.28 155.18 1061.17 155.01 1061.06 154.83C1060.8 154.41 1060.51 153.93 1060.2 153.42C1059.89 152.9 1059.55 152.35 1059.22 151.8L1057.91 150.49C1056.9 150.12 1055.79 150.64 1055.42 151.65C1055.2 152.25 1055.29 152.91 1055.66 153.43L1072.91 175.83L1073.68 191.76C1073.62 192.01 1073.55 192.27 1073.49 192.52C1073.34 193.12 1073.18 193.72 1073.04 194.27C1072.9 194.82 1072.76 195.33 1072.64 195.76L1072.6 195.84L1065.32 205.66C1065.15 205.9 1064.93 206.11 1064.69 206.3C1064.34 206.57 1063.92 206.79 1063.47 206.95C1063.01 207.11 1062.51 207.2 1062 207.24C1061.49 207.27 1060.96 207.24 1060.44 207.15C1059.92 207.06 1059.41 206.9 1058.93 206.69C1058.46 206.48 1058.02 206.22 1057.63 205.91C1057.26 205.61 1056.94 205.27 1056.69 204.9C1056.46 204.55 1056.29 204.17 1056.19 203.79L1053.38 191.9V191.82C1053.41 191.63 1053.43 191.43 1053.46 191.22C1053.53 190.73 1053.62 190.17 1053.71 189.59C1053.8 188.99 1053.9 188.35 1054 187.72L1053.84 185.88C1053.3 184.95 1052.12 184.63 1051.19 185.17C1050.64 185.49 1050.28 186.05 1050.23 186.69L1049.04 214.94L1039.52 227.46L1039.38 227.64C1039.17 227.79 1038.95 227.95 1038.74 228.1C1038.23 228.46 1037.73 228.82 1037.27 229.15C1036.81 229.48 1036.38 229.78 1036.01 230.04L1035.93 230.07L1024.05 232.91C1023.76 232.98 1023.47 233.01 1023.16 232.99C1022.71 232.97 1022.25 232.87 1021.8 232.7C1021.35 232.53 1020.9 232.28 1020.49 231.97C1020.08 231.66 1019.69 231.3 1019.35 230.89C1019.01 230.48 1018.72 230.04 1018.49 229.57C1018.26 229.11 1018.09 228.62 1018 228.14C1017.91 227.67 1017.88 227.2 1017.93 226.76C1017.98 226.34 1018.09 225.94 1018.27 225.59L1023.76 214.68L1023.81 214.61C1023.95 214.48 1024.1 214.35 1024.26 214.21C1024.63 213.88 1025.05 213.51 1025.49 213.12C1025.94 212.72 1026.43 212.3 1026.91 211.88" stroke="#2B2B2B" stroke-width="2" stroke-miterlimit="10"/>
<path d="M1007.23 199.02C1027.4 199.02 1043.75 182.669 1043.75 162.5C1043.75 142.331 1027.4 125.98 1007.23 125.98C987.061 125.98 970.71 142.331 970.71 162.5C970.71 182.669 987.061 199.02 1007.23 199.02Z" fill="#565656"/>
<path d="M1007.26 180.51C1017.11 180.51 1025.1 172.523 1025.1 162.67C1025.1 152.817 1017.11 144.83 1007.26 144.83C997.407 144.83 989.42 152.817 989.42 162.67C989.42 172.523 997.407 180.51 1007.26 180.51Z" fill="#A5A5A5" stroke="#2B2B2B" stroke-width="2" stroke-miterlimit="10"/>
<path d="M1007.54 174.79C1014.23 174.79 1019.66 169.364 1019.66 162.67C1019.66 155.976 1014.23 150.55 1007.54 150.55C1000.85 150.55 995.42 155.976 995.42 162.67C995.42 169.364 1000.85 174.79 1007.54 174.79Z" fill="#4C4C4C" stroke="#2B2B2B" stroke-width="2" stroke-miterlimit="10"/>
<path d="M1001.64 163.26C1001.97 166.52 1004.87 168.89 1008.13 168.57C1010.94 168.29 1013.16 166.07 1013.44 163.26C1013.48 162.87 1013.48 162.47 1013.44 162.07C1013.11 158.81 1010.2 156.44 1006.95 156.77C1004.15 157.05 1001.93 159.27 1001.65 162.07C1001.6 162.47 1001.6 162.87 1001.64 163.26Z" fill="#A5A5A5"/>
<path d="M983.63 151.83C985.298 151.83 986.65 150.478 986.65 148.81C986.65 147.142 985.298 145.79 983.63 145.79C981.962 145.79 980.61 147.142 980.61 148.81C980.61 150.478 981.962 151.83 983.63 151.83Z" fill="#EAEAEA" stroke="#2B2B2B" stroke-width="2" stroke-miterlimit="10"/>
<path d="M1007.51 193.18C1009.18 193.18 1010.53 191.828 1010.53 190.16C1010.53 188.492 1009.18 187.14 1007.51 187.14C1005.84 187.14 1004.49 188.492 1004.49 190.16C1004.49 191.828 1005.84 193.18 1007.51 193.18Z" fill="#EAEAEA" stroke="#2B2B2B" stroke-width="2" stroke-miterlimit="10"/>
<path d="M1031.38 179.39C1033.05 179.39 1034.4 178.038 1034.4 176.37C1034.4 174.702 1033.05 173.35 1031.38 173.35C1029.71 173.35 1028.36 174.702 1028.36 176.37C1028.36 178.038 1029.71 179.39 1031.38 179.39Z" fill="#EAEAEA" stroke="#2B2B2B" stroke-width="2" stroke-miterlimit="10"/>
<path d="M1007.51 138.04C1009.18 138.04 1010.53 136.688 1010.53 135.02C1010.53 133.352 1009.18 132 1007.51 132C1005.84 132 1004.49 133.352 1004.49 135.02C1004.49 136.688 1005.84 138.04 1007.51 138.04Z" fill="#EAEAEA" stroke="#2B2B2B" stroke-width="2" stroke-miterlimit="10"/>
<path d="M983.63 179.39C985.298 179.39 986.65 178.038 986.65 176.37C986.65 174.702 985.298 173.35 983.63 173.35C981.962 173.35 980.61 174.702 980.61 176.37C980.61 178.038 981.962 179.39 983.63 179.39Z" fill="#EAEAEA" stroke="#2B2B2B" stroke-width="2" stroke-miterlimit="10"/>
<path d="M1031.38 151.83C1033.05 151.83 1034.4 150.478 1034.4 148.81C1034.4 147.142 1033.05 145.79 1031.38 145.79C1029.71 145.79 1028.36 147.142 1028.36 148.81C1028.36 150.478 1029.71 151.83 1031.38 151.83Z" fill="#EAEAEA" stroke="#2B2B2B" stroke-width="2" stroke-miterlimit="10"/>
<path d="M173.32 168.19L170.66 184.07C170.51 184.95 169.54 185.4 168.77 184.95L166.97 183.88C166.48 185.66 165.92 187.42 165.31 189.15L167.39 189.3C168.29 189.36 168.81 190.29 168.44 191.1L161.43 205.59C161.04 206.39 159.97 206.54 159.37 205.91L157.95 204.36C156.98 205.93 155.95 207.46 154.85 208.94L156.81 209.69C157.63 210.01 157.89 211.06 157.3 211.71L146.49 223.64C145.89 224.31 144.83 224.16 144.43 223.36L143.49 221.47C142.11 222.7 140.68 223.88 139.23 225L140.91 226.27C141.6 226.81 141.55 227.9 140.8 228.35L127.07 236.77C126.3 237.22 125.33 236.79 125.16 235.91L124.8 233.85C123.15 234.64 121.45 235.37 119.73 236.04L120.96 237.72C121.48 238.43 121.13 239.44 120.27 239.68L104.73 243.87C103.87 244.09 103.05 243.4 103.14 242.5L103.38 240.44C101.57 240.72 99.73 240.95 97.88 241.09L98.61 243.05C98.91 243.87 98.27 244.75 97.39 244.73L81.29 244.37C80.41 244.35 79.81 243.45 80.17 242.63L80.97 240.7C79.12 240.46 77.3 240.16 75.51 239.78L75.64 241.87C75.7 242.75 74.85 243.42 74.01 243.14L58.66 238.28C57.82 238 57.52 236.97 58.06 236.28L59.39 234.65C57.69 233.92 56.02 233.12 54.4 232.26L53.95 234.3C53.76 235.16 52.75 235.55 52.02 235.07L38.67 226.06C37.94 225.57 37.94 224.49 38.67 223.98L40.41 222.78C38.99 221.6 37.62 220.35 36.3 219.08L35.27 220.91C34.84 221.68 33.77 221.79 33.21 221.1L22.92 208.7C22.36 208.03 22.66 206.98 23.5 206.72L25.5 206.05C24.47 204.52 23.5 202.95 22.6 201.34L21.12 202.82C20.48 203.44 19.42 203.23 19.06 202.43L12.7 187.64C12.36 186.82 12.92 185.92 13.82 185.88L15.9 185.82C15.36 184.06 14.89 182.29 14.46 180.47L12.63 181.46C11.84 181.87 10.89 181.39 10.78 180.51L8.85001 164.52C8.74001 163.64 9.54 162.93 10.4 163.15L12.46 163.67C12.44 163.33 12.44 162.98 12.44 162.64C12.44 161.12 12.48 159.63 12.57 158.13L10.51 158.56C9.64999 158.75 8.85999 158 9.00999 157.12L11.65 141.24C11.8 140.36 12.77 139.91 13.54 140.36L15.34 141.43C15.83 139.65 16.39 137.9 17 136.17L14.92 136C14.04 135.94 13.5 135.01 13.87 134.2L20.88 119.71C21.27 118.91 22.34 118.76 22.94 119.41L24.36 120.94C25.35 119.37 26.38 117.84 27.46 116.36L25.5 115.61C24.68 115.29 24.42 114.24 25.01 113.59L35.82 101.66C36.42 101.01 37.48 101.15 37.88 101.94L38.82 103.85C40.19 102.6 41.63 101.42 43.08 100.3L41.42 99.0301C40.71 98.4901 40.77 97.42 41.51 96.95L55.24 88.55C56.01 88.08 57 88.53 57.15 89.39L57.51 91.45C59.17 90.66 60.86 89.93 62.6 89.26L61.37 87.58C60.83 86.87 61.18 85.86 62.04 85.63L77.58 81.42C78.44 81.2 79.26 81.91 79.17 82.79L78.93 84.85C80.74 84.57 82.58 84.36 84.43 84.2L83.72 82.24C83.4 81.42 84.04 80.54 84.92 80.56L101.02 80.92C101.9 80.94 102.5 81.84 102.14 82.66L101.34 84.5901C103.19 84.8301 105.02 85.13 106.82 85.51L106.67 83.42C106.61 82.54 107.46 81.8701 108.3 82.1501L123.66 87.01C124.5 87.29 124.8 88.32 124.26 89.01L122.95 90.62C124.63 91.37 126.3 92.1701 127.92 93.0301L128.37 90.99C128.56 90.13 129.57 89.74 130.3 90.22L143.65 99.23C144.38 99.72 144.38 100.8 143.65 101.31L141.93 102.49C143.35 103.69 144.72 104.94 146.04 106.21L147.05 104.38C147.48 103.61 148.55 103.5 149.11 104.19L159.4 116.59C159.96 117.26 159.66 118.31 158.82 118.57L156.82 119.24C157.85 120.77 158.82 122.34 159.72 123.95L161.22 122.47C161.84 121.85 162.9 122.06 163.26 122.88L169.62 137.66C169.98 138.48 169.4 139.4 168.5 139.42L166.42 139.49C166.96 141.23 167.43 143.01 167.84 144.82L169.69 143.83C170.48 143.42 171.43 143.9 171.54 144.8L173.47 160.77C173.58 161.65 172.78 162.36 171.92 162.14L169.86 161.62C169.88 161.96 169.88 162.31 169.88 162.65C169.88 164.16 169.84 165.66 169.75 167.16L171.81 166.73C172.68 166.56 173.45 167.31 173.32 168.19Z" fill="black"/>
<path d="M110.88 211.45L111.64 210.36C111.83 209.3 111.12 208.3 110.07 208.11C109.45 208 108.81 208.2 108.36 208.65L89.2999 229.52L73.9599 232.99L73.7399 233.04C73.4799 233.02 73.2199 233 72.9599 232.98C72.3399 232.93 71.7199 232.89 71.1599 232.84C70.5999 232.79 70.0699 232.75 69.6199 232.71L69.5399 232.69L58.6099 227.23C58.3499 227.1 58.0999 226.93 57.8699 226.72C57.5399 226.42 57.2499 226.05 57.0199 225.63C56.7799 225.21 56.5999 224.73 56.4799 224.23C56.3599 223.73 56.2999 223.2 56.2999 222.67C56.2999 222.14 56.3699 221.61 56.4899 221.11C56.6099 220.61 56.7999 220.13 57.0299 219.7C57.2599 219.28 57.5399 218.91 57.8599 218.6C58.1599 218.31 58.5099 218.08 58.8699 217.92L70.0899 213.09L70.1699 213.07C70.3599 213.06 70.5599 213.06 70.7699 213.05C71.2699 213.04 71.8299 213.02 72.4099 213.01C73.0099 213 73.6599 212.99 74.2999 212.97L74.8099 212.83L76.0899 212.49C76.9099 211.8 77.0199 210.58 76.3299 209.76C75.9199 209.27 75.2999 209.02 74.6699 209.07L46.6499 212.81L32.4699 205.51C32.2799 205.33 32.0899 205.14 31.9099 204.96C31.4599 204.52 31.0199 204.09 30.6199 203.7C30.2199 203.3 29.8399 202.93 29.5299 202.61L29.4799 202.54L24.6199 191.33C24.4999 191.06 24.4199 190.77 24.3799 190.47C24.3199 190.03 24.3399 189.56 24.4299 189.09C24.5199 188.61 24.6899 188.13 24.9199 187.67C25.1499 187.21 25.4399 186.77 25.7799 186.36C26.1199 185.96 26.5099 185.59 26.9299 185.28C27.3499 184.97 27.7999 184.72 28.2499 184.55C28.6999 184.38 29.1499 184.27 29.5999 184.24C30.0199 184.21 30.4299 184.25 30.8099 184.37L42.5099 187.89L42.5799 187.93C42.7299 188.05 42.8899 188.17 43.0499 188.3C43.4399 188.61 43.8799 188.96 44.3399 189.33C44.8099 189.71 45.3099 190.12 45.8099 190.52L47.4899 191.3C48.5599 191.3 49.4299 190.43 49.4299 189.36C49.4299 188.73 49.1199 188.13 48.5999 187.77L24.7299 172.62L18.5599 157.91C18.5299 157.65 18.5099 157.39 18.4799 157.13C18.4199 156.51 18.3599 155.9 18.3099 155.33C18.2599 154.77 18.2099 154.24 18.1699 153.79L18.1799 153.71L21.6599 142C21.7399 141.72 21.8699 141.45 22.0299 141.19C22.2699 140.81 22.5799 140.46 22.9599 140.16C23.3399 139.85 23.7699 139.59 24.2399 139.39C24.7099 139.18 25.2199 139.03 25.7399 138.94C26.2599 138.85 26.7899 138.82 27.3099 138.86C27.8299 138.89 28.3299 138.99 28.7899 139.15C29.2399 139.3 29.6599 139.51 30.0199 139.78C30.3599 140.03 30.6499 140.32 30.8699 140.66L37.5699 150.87C37.5899 150.89 37.5999 150.92 37.5999 150.95C37.6399 151.13 37.6799 151.33 37.7199 151.54C37.8199 152.03 37.9299 152.58 38.0499 153.15C38.1699 153.74 38.2899 154.38 38.4099 155L39.1899 156.68C40.0099 157.37 41.2399 157.26 41.9199 156.44C42.3299 155.95 42.4699 155.3 42.3099 154.69L33.7599 127.74L38.4899 112.51C38.6399 112.29 38.7899 112.08 38.9299 111.86C39.2799 111.35 39.6299 110.84 39.9499 110.37C40.2699 109.9 40.5699 109.47 40.8299 109.1L40.8899 109.04L51.0799 102.31C51.3199 102.15 51.5999 102.02 51.8899 101.93C52.3199 101.79 52.7799 101.73 53.2599 101.74C53.7399 101.75 54.2499 101.83 54.7399 101.97C55.2299 102.12 55.7199 102.33 56.1799 102.59C56.6399 102.86 57.0599 103.18 57.4399 103.54C57.8099 103.9 58.1399 104.3 58.3899 104.72C58.6399 105.13 58.8199 105.56 58.9299 105.99C59.0299 106.4 59.0599 106.81 59.0099 107.21L57.5799 119.34L57.5599 119.42C57.4699 119.59 57.3799 119.77 57.2799 119.95C57.0499 120.39 56.7799 120.88 56.4899 121.39C56.1999 121.92 55.8899 122.49 55.5799 123.04L55.0999 124.83C55.2899 125.89 56.2899 126.59 57.3499 126.4C57.9699 126.29 58.5099 125.88 58.7699 125.31L69.5499 99.17L82.9599 90.54C83.2099 90.47 83.4699 90.4 83.7199 90.33C84.3199 90.16 84.9099 90 85.4599 89.85C86.0099 89.7 86.5199 89.56 86.9499 89.45L87.0299 89.44L99.1699 90.83C99.4599 90.86 99.7499 90.94 100.04 91.05C100.45 91.22 100.85 91.47 101.22 91.78C101.59 92.1 101.92 92.48 102.2 92.91C102.48 93.34 102.72 93.81 102.9 94.31C103.08 94.81 103.2 95.33 103.26 95.84C103.32 96.35 103.31 96.87 103.23 97.35C103.16 97.82 103.02 98.27 102.83 98.67C102.64 99.05 102.4 99.38 102.11 99.66L93.2199 108.04L93.1499 108.09C92.9799 108.16 92.7899 108.24 92.5899 108.31C92.1299 108.49 91.5999 108.7 91.0499 108.91C90.4899 109.13 89.8799 109.36 89.2899 109.59L87.7699 110.65C87.2299 111.58 87.5499 112.77 88.4799 113.3C89.0299 113.62 89.6999 113.65 90.2699 113.38L115.32 100.28L131.14 102.29C131.38 102.4 131.62 102.51 131.86 102.61C132.43 102.87 132.99 103.12 133.5 103.36C134.02 103.6 134.49 103.82 134.9 104.01L134.97 104.06L143.37 112.93C143.57 113.14 143.75 113.39 143.89 113.66C144.1 114.05 144.24 114.5 144.32 114.98C144.4 115.46 144.4 115.97 144.35 116.48C144.29 116.99 144.17 117.51 143.99 118C143.81 118.5 143.57 118.97 143.28 119.4C142.99 119.83 142.66 120.22 142.29 120.54C141.93 120.86 141.54 121.11 141.13 121.29C140.74 121.46 140.34 121.56 139.95 121.58L127.75 122.28L127.67 122.27C127.49 122.21 127.3 122.15 127.1 122.08C126.63 121.92 126.1 121.74 125.54 121.56C124.97 121.37 124.36 121.16 123.75 120.95L121.91 120.79C120.9 121.16 120.38 122.27 120.75 123.28C120.97 123.88 121.46 124.33 122.08 124.49L149.69 130.56L160.52 142.27C160.63 142.51 160.75 142.74 160.86 142.98C161.13 143.54 161.4 144.1 161.64 144.61C161.88 145.12 162.11 145.6 162.29 146.01L162.31 146.09L163.05 158.29C163.07 158.58 163.04 158.88 162.98 159.18C162.89 159.62 162.71 160.05 162.46 160.46C162.21 160.88 161.89 161.27 161.52 161.62C161.15 161.98 160.72 162.29 160.26 162.55C159.8 162.81 159.31 163.02 158.81 163.17C158.31 163.31 157.81 163.4 157.32 163.41C156.84 163.42 156.38 163.37 155.95 163.24C155.55 163.12 155.17 162.94 154.85 162.71L145.06 155.4L145 155.34C144.9 155.18 144.79 155.01 144.68 154.83C144.42 154.41 144.13 153.93 143.82 153.42C143.51 152.9 143.17 152.35 142.84 151.8L141.53 150.49C140.52 150.12 139.41 150.64 139.04 151.65C138.82 152.25 138.91 152.91 139.28 153.43L156.53 175.83L157.3 191.76C157.24 192.01 157.17 192.27 157.11 192.52C156.96 193.12 156.8 193.72 156.66 194.27C156.52 194.82 156.38 195.33 156.26 195.76L156.22 195.84L148.94 205.66C148.77 205.9 148.55 206.11 148.31 206.3C147.96 206.57 147.54 206.79 147.09 206.95C146.63 207.11 146.13 207.2 145.62 207.24C145.11 207.27 144.58 207.24 144.06 207.15C143.54 207.06 143.03 206.9 142.55 206.69C142.08 206.48 141.64 206.22 141.25 205.91C140.88 205.61 140.56 205.27 140.31 204.9C140.08 204.55 139.91 204.17 139.81 203.79L137 191.9V191.82C137.03 191.63 137.05 191.43 137.08 191.22C137.15 190.73 137.24 190.17 137.33 189.59C137.42 188.99 137.52 188.35 137.62 187.72L137.46 185.88C136.92 184.95 135.74 184.63 134.81 185.17C134.26 185.49 133.9 186.05 133.85 186.69L132.66 214.94L123.14 227.46L123 227.64C122.79 227.79 122.57 227.95 122.36 228.1C121.85 228.46 121.35 228.82 120.89 229.15C120.43 229.48 120 229.78 119.63 230.04L119.55 230.07L107.67 232.91C107.38 232.98 107.09 233.01 106.78 232.99C106.33 232.97 105.87 232.87 105.42 232.7C104.97 232.53 104.52 232.28 104.11 231.97C103.7 231.66 103.31 231.3 102.97 230.89C102.63 230.48 102.34 230.04 102.11 229.57C101.88 229.11 101.71 228.62 101.62 228.14C101.53 227.67 101.5 227.2 101.55 226.76C101.6 226.34 101.71 225.94 101.89 225.59L107.38 214.68L107.43 214.61C107.57 214.48 107.72 214.35 107.88 214.21C108.25 213.88 108.67 213.51 109.11 213.12C109.56 212.72 110.05 212.3 110.53 211.88" fill="#AAAAAA"/>
<path d="M110.88 211.45L111.64 210.36C111.83 209.3 111.12 208.3 110.07 208.11C109.45 208 108.81 208.2 108.36 208.65L89.2999 229.52L73.9599 232.99L73.7399 233.04C73.4799 233.02 73.2199 233 72.9599 232.98C72.3399 232.93 71.7199 232.89 71.1599 232.84C70.5999 232.79 70.0699 232.75 69.6199 232.71L69.5399 232.69L58.6099 227.23C58.3499 227.1 58.0999 226.93 57.8699 226.72C57.5399 226.42 57.2499 226.05 57.0199 225.63C56.7799 225.21 56.5999 224.73 56.4799 224.23C56.3599 223.73 56.2999 223.2 56.2999 222.67C56.2999 222.14 56.3699 221.61 56.4899 221.11C56.6099 220.61 56.7999 220.13 57.0299 219.7C57.2599 219.28 57.5399 218.91 57.8599 218.6C58.1599 218.31 58.5099 218.08 58.8699 217.92L70.0899 213.09L70.1699 213.07C70.3599 213.06 70.5599 213.06 70.7699 213.05C71.2699 213.04 71.8299 213.02 72.4099 213.01C73.0099 213 73.6599 212.99 74.2999 212.97L74.8099 212.83L76.0899 212.49C76.9099 211.8 77.0199 210.58 76.3299 209.76C75.9199 209.27 75.2999 209.02 74.6699 209.07L46.6499 212.81L32.4699 205.51C32.2799 205.33 32.0899 205.14 31.9099 204.96C31.4599 204.52 31.0199 204.09 30.6199 203.7C30.2199 203.3 29.8399 202.93 29.5299 202.61L29.4799 202.54L24.6199 191.33C24.4999 191.06 24.4199 190.77 24.3799 190.47C24.3199 190.03 24.3399 189.56 24.4299 189.09C24.5199 188.61 24.6899 188.13 24.9199 187.67C25.1499 187.21 25.4399 186.77 25.7799 186.36C26.1199 185.96 26.5099 185.59 26.9299 185.28C27.3499 184.97 27.7999 184.72 28.2499 184.55C28.6999 184.38 29.1499 184.27 29.5999 184.24C30.0199 184.21 30.4299 184.25 30.8099 184.37L42.5099 187.89L42.5799 187.93C42.7299 188.05 42.8899 188.17 43.0499 188.3C43.4399 188.61 43.8799 188.96 44.3399 189.33C44.8099 189.71 45.3099 190.12 45.8099 190.52L47.4899 191.3C48.5599 191.3 49.4299 190.43 49.4299 189.36C49.4299 188.73 49.1199 188.13 48.5999 187.77L24.7299 172.62L18.5599 157.91C18.5299 157.65 18.5099 157.39 18.4799 157.13C18.4199 156.51 18.3599 155.9 18.3099 155.33C18.2599 154.77 18.2099 154.24 18.1699 153.79L18.1799 153.71L21.6599 142C21.7399 141.72 21.8699 141.45 22.0299 141.19C22.2699 140.81 22.5799 140.46 22.9599 140.16C23.3399 139.85 23.7699 139.59 24.2399 139.39C24.7099 139.18 25.2199 139.03 25.7399 138.94C26.2599 138.85 26.7899 138.82 27.3099 138.86C27.8299 138.89 28.3299 138.99 28.7899 139.15C29.2399 139.3 29.6599 139.51 30.0199 139.78C30.3599 140.03 30.6499 140.32 30.8699 140.66L37.5699 150.87C37.5899 150.89 37.5999 150.92 37.5999 150.95C37.6399 151.13 37.6799 151.33 37.7199 151.54C37.8199 152.03 37.9299 152.58 38.0499 153.15C38.1699 153.74 38.2899 154.38 38.4099 155L39.1899 156.68C40.0099 157.37 41.2399 157.26 41.9199 156.44C42.3299 155.95 42.4699 155.3 42.3099 154.69L33.7599 127.74L38.4899 112.51C38.6399 112.29 38.7899 112.08 38.9299 111.86C39.2799 111.35 39.6299 110.84 39.9499 110.37C40.2699 109.9 40.5699 109.47 40.8299 109.1L40.8899 109.04L51.0799 102.31C51.3199 102.15 51.5999 102.02 51.8899 101.93C52.3199 101.79 52.7799 101.73 53.2599 101.74C53.7399 101.75 54.2499 101.83 54.7399 101.97C55.2299 102.12 55.7199 102.33 56.1799 102.59C56.6399 102.86 57.0599 103.18 57.4399 103.54C57.8099 103.9 58.1399 104.3 58.3899 104.72C58.6399 105.13 58.8199 105.56 58.9299 105.99C59.0299 106.4 59.0599 106.81 59.0099 107.21L57.5799 119.34L57.5599 119.42C57.4699 119.59 57.3799 119.77 57.2799 119.95C57.0499 120.39 56.7799 120.88 56.4899 121.39C56.1999 121.92 55.8899 122.49 55.5799 123.04L55.0999 124.83C55.2899 125.89 56.2899 126.59 57.3499 126.4C57.9699 126.29 58.5099 125.88 58.7699 125.31L69.5499 99.17L82.9599 90.54C83.2099 90.47 83.4699 90.4 83.7199 90.33C84.3199 90.16 84.9099 90 85.4599 89.85C86.0099 89.7 86.5199 89.56 86.9499 89.45L87.0299 89.44L99.1699 90.83C99.4599 90.86 99.7499 90.94 100.04 91.05C100.45 91.22 100.85 91.47 101.22 91.78C101.59 92.1 101.92 92.48 102.2 92.91C102.48 93.34 102.72 93.81 102.9 94.31C103.08 94.81 103.2 95.33 103.26 95.84C103.32 96.35 103.31 96.87 103.23 97.35C103.16 97.82 103.02 98.27 102.83 98.67C102.64 99.05 102.4 99.38 102.11 99.66L93.2199 108.04L93.1499 108.09C92.9799 108.16 92.7899 108.24 92.5899 108.31C92.1299 108.49 91.5999 108.7 91.0499 108.91C90.4899 109.13 89.8799 109.36 89.2899 109.59L87.7699 110.65C87.2299 111.58 87.5499 112.77 88.4799 113.3C89.0299 113.62 89.6999 113.65 90.2699 113.38L115.32 100.28L131.14 102.29C131.38 102.4 131.62 102.51 131.86 102.61C132.43 102.87 132.99 103.12 133.5 103.36C134.02 103.6 134.49 103.82 134.9 104.01L134.97 104.06L143.37 112.93C143.57 113.14 143.75 113.39 143.89 113.66C144.1 114.05 144.24 114.5 144.32 114.98C144.4 115.46 144.4 115.97 144.35 116.48C144.29 116.99 144.17 117.51 143.99 118C143.81 118.5 143.57 118.97 143.28 119.4C142.99 119.83 142.66 120.22 142.29 120.54C141.93 120.86 141.54 121.11 141.13 121.29C140.74 121.46 140.34 121.56 139.95 121.58L127.75 122.28L127.67 122.27C127.49 122.21 127.3 122.15 127.1 122.08C126.63 121.92 126.1 121.74 125.54 121.56C124.97 121.37 124.36 121.16 123.75 120.95L121.91 120.79C120.9 121.16 120.38 122.27 120.75 123.28C120.97 123.88 121.46 124.33 122.08 124.49L149.69 130.56L160.52 142.27C160.63 142.51 160.75 142.74 160.86 142.98C161.13 143.54 161.4 144.1 161.64 144.61C161.88 145.12 162.11 145.6 162.29 146.01L162.31 146.09L163.05 158.29C163.07 158.58 163.04 158.88 162.98 159.18C162.89 159.62 162.71 160.05 162.46 160.46C162.21 160.88 161.89 161.27 161.52 161.62C161.15 161.98 160.72 162.29 160.26 162.55C159.8 162.81 159.31 163.02 158.81 163.17C158.31 163.31 157.81 163.4 157.32 163.41C156.84 163.42 156.38 163.37 155.95 163.24C155.55 163.12 155.17 162.94 154.85 162.71L145.06 155.4L145 155.34C144.9 155.18 144.79 155.01 144.68 154.83C144.42 154.41 144.13 153.93 143.82 153.42C143.51 152.9 143.17 152.35 142.84 151.8L141.53 150.49C140.52 150.12 139.41 150.64 139.04 151.65C138.82 152.25 138.91 152.91 139.28 153.43L156.53 175.83L157.3 191.76C157.24 192.01 157.17 192.27 157.11 192.52C156.96 193.12 156.8 193.72 156.66 194.27C156.52 194.82 156.38 195.33 156.26 195.76L156.22 195.84L148.94 205.66C148.77 205.9 148.55 206.11 148.31 206.3C147.96 206.57 147.54 206.79 147.09 206.95C146.63 207.11 146.13 207.2 145.62 207.24C145.11 207.27 144.58 207.24 144.06 207.15C143.54 207.06 143.03 206.9 142.55 206.69C142.08 206.48 141.64 206.22 141.25 205.91C140.88 205.61 140.56 205.27 140.31 204.9C140.08 204.55 139.91 204.17 139.81 203.79L137 191.9V191.82C137.03 191.63 137.05 191.43 137.08 191.22C137.15 190.73 137.24 190.17 137.33 189.59C137.42 188.99 137.52 188.35 137.62 187.72L137.46 185.88C136.92 184.95 135.74 184.63 134.81 185.17C134.26 185.49 133.9 186.05 133.85 186.69L132.66 214.94L123.14 227.46L123 227.64C122.79 227.79 122.57 227.95 122.36 228.1C121.85 228.46 121.35 228.82 120.89 229.15C120.43 229.48 120 229.78 119.63 230.04L119.55 230.07L107.67 232.91C107.38 232.98 107.09 233.01 106.78 232.99C106.33 232.97 105.87 232.87 105.42 232.7C104.97 232.53 104.52 232.28 104.11 231.97C103.7 231.66 103.31 231.3 102.97 230.89C102.63 230.48 102.34 230.04 102.11 229.57C101.88 229.11 101.71 228.62 101.62 228.14C101.53 227.67 101.5 227.2 101.55 226.76C101.6 226.34 101.71 225.94 101.89 225.59L107.38 214.68L107.43 214.61C107.57 214.48 107.72 214.35 107.88 214.21C108.25 213.88 108.67 213.51 109.11 213.12C109.56 212.72 110.05 212.3 110.53 211.88" stroke="#2B2B2B" stroke-width="2" stroke-miterlimit="10"/>
<path d="M90.8501 199.02C111.02 199.02 127.37 182.669 127.37 162.5C127.37 142.331 111.02 125.98 90.8501 125.98C70.6807 125.98 54.3301 142.331 54.3301 162.5C54.3301 182.669 70.6807 199.02 90.8501 199.02Z" fill="#565656"/>
<path d="M90.8801 180.51C100.733 180.51 108.72 172.523 108.72 162.67C108.72 152.817 100.733 144.83 90.8801 144.83C81.0273 144.83 73.04 152.817 73.04 162.67C73.04 172.523 81.0273 180.51 90.8801 180.51Z" fill="#A5A5A5" stroke="#2B2B2B" stroke-width="2" stroke-miterlimit="10"/>
<path d="M91.17 174.79C97.8637 174.79 103.29 169.364 103.29 162.67C103.29 155.976 97.8637 150.55 91.17 150.55C84.4764 150.55 79.05 155.976 79.05 162.67C79.05 169.364 84.4764 174.79 91.17 174.79Z" fill="#4C4C4C" stroke="#2B2B2B" stroke-width="2" stroke-miterlimit="10"/>
<path d="M85.2701 163.26C85.6001 166.52 88.5001 168.89 91.7601 168.57C94.5701 168.29 96.7901 166.07 97.0701 163.26C97.1101 162.87 97.1101 162.47 97.0701 162.07C96.7401 158.81 93.8301 156.44 90.5801 156.77C87.7801 157.05 85.5601 159.27 85.2801 162.07C85.2301 162.47 85.2301 162.87 85.2701 163.26Z" fill="#A5A5A5"/>
<path d="M67.26 151.83C68.9279 151.83 70.28 150.478 70.28 148.81C70.28 147.142 68.9279 145.79 67.26 145.79C65.5921 145.79 64.24 147.142 64.24 148.81C64.24 150.478 65.5921 151.83 67.26 151.83Z" fill="#EAEAEA" stroke="#2B2B2B" stroke-width="2" stroke-miterlimit="10"/>
<path d="M91.1301 193.18C92.798 193.18 94.1501 191.828 94.1501 190.16C94.1501 188.492 92.798 187.14 91.1301 187.14C89.4622 187.14 88.1101 188.492 88.1101 190.16C88.1101 191.828 89.4622 193.18 91.1301 193.18Z" fill="#EAEAEA" stroke="#2B2B2B" stroke-width="2" stroke-miterlimit="10"/>
<path d="M115.01 179.39C116.678 179.39 118.03 178.038 118.03 176.37C118.03 174.702 116.678 173.35 115.01 173.35C113.342 173.35 111.99 174.702 111.99 176.37C111.99 178.038 113.342 179.39 115.01 179.39Z" fill="#EAEAEA" stroke="#2B2B2B" stroke-width="2" stroke-miterlimit="10"/>
<path d="M91.1301 138.04C92.798 138.04 94.1501 136.688 94.1501 135.02C94.1501 133.352 92.798 132 91.1301 132C89.4622 132 88.1101 133.352 88.1101 135.02C88.1101 136.688 89.4622 138.04 91.1301 138.04Z" fill="#EAEAEA" stroke="#2B2B2B" stroke-width="2" stroke-miterlimit="10"/>
<path d="M67.26 179.39C68.9279 179.39 70.28 178.038 70.28 176.37C70.28 174.702 68.9279 173.35 67.26 173.35C65.5921 173.35 64.24 174.702 64.24 176.37C64.24 178.038 65.5921 179.39 67.26 179.39Z" fill="#EAEAEA" stroke="#2B2B2B" stroke-width="2" stroke-miterlimit="10"/>
<path d="M115.01 151.83C116.678 151.83 118.03 150.478 118.03 148.81C118.03 147.142 116.678 145.79 115.01 145.79C113.342 145.79 111.99 147.142 111.99 148.81C111.99 150.478 113.342 151.83 115.01 151.83Z" fill="#EAEAEA" stroke="#2B2B2B" stroke-width="2" stroke-miterlimit="10"/>
<path d="M284.9 179.29H604.75C608.42 179.29 611.4 176.31 611.4 172.64C611.4 168.97 608.42 165.99 604.75 165.99H284.9C281.23 165.99 278.25 168.97 278.25 172.64C278.25 176.31 281.23 179.29 284.9 179.29Z" fill="#235FD8"/>
<path d="M70.16 43.22C68.79 43.22 67.47 43.63 66.34 44.42L47.64 57.51L40.83 62.28L1.97998 89.47L0 90.87L1.91 93.58L3.88998 92.2L42.74 65.01L49.55 60.24L68.25 47.15C68.81 46.76 69.47 46.53 70.16 46.53V53.56C70.16 54.68 71.88 55.73 74.63 56.23L159.95 72.35L174.41 75.08L224.35 84.52V104.48C224.35 106.67 225.23 108.78 226.78 110.35L263.46 147.03C265.01 148.58 267.13 149.46 269.33 149.46H557.46C559.67 149.46 561.78 150.34 563.33 151.89L580.44 169L591.7 180.26C593.25 181.81 595.37 182.69 597.57 182.69H988.51C990.72 182.69 992.83 181.81 994.38 180.26L1022.75 151.89C1024.3 150.34 1025.18 148.22 1025.18 146.02V43.22H70.16ZM983.65 162.43H609.24C606.96 162.43 605.09 160.56 605.09 158.28C605.09 155.98 606.96 154.13 609.24 154.13H983.65C985.93 154.13 987.8 155.98 987.8 158.28C987.8 160.56 985.93 162.43 983.65 162.43ZM983.65 145.8H589.45C587.15 145.8 585.28 143.95 585.28 141.65C585.28 139.37 587.15 137.5 589.45 137.5H983.65C985.93 137.5 987.8 139.37 987.8 141.65C987.8 143.95 985.93 145.8 983.65 145.8ZM983.65 129.19H569.65C567.35 129.19 565.5 127.32 565.5 125.04C565.5 122.74 567.35 120.89 569.65 120.89H983.65C985.93 120.89 987.8 122.74 987.8 125.04C987.8 127.32 985.93 129.19 983.65 129.19ZM983.65 112.56H549.84C547.54 112.56 545.69 110.71 545.69 108.41C545.69 106.13 547.54 104.26 549.84 104.26H983.65C985.93 104.26 987.8 106.13 987.8 108.41C987.8 110.71 985.93 112.56 983.65 112.56Z" fill="url(#paint0_linear_2_133)"/>
<path d="M1025.18 43.19V81.38V87.63V146C1025.18 148.2 1024.3 150.32 1022.75 151.87L994.38 180.24C992.82 181.8 990.71 182.67 988.51 182.67H597.57C595.37 182.67 593.25 181.79 591.7 180.24L563.33 151.87C561.77 150.31 559.66 149.44 557.46 149.44H271.3H269.33C267.13 149.44 265.01 148.56 263.46 147.01L226.78 110.33C225.22 108.77 224.35 106.66 224.35 104.46V87.63V84.51L74.6299 56.22C71.8799 55.7 70.1499 54.66 70.1499 53.54V50V46.52C69.4699 46.52 68.7999 46.73 68.2399 47.12L49.5399 60.21L42.7299 64.98L3.88989 92.18L1.8999 93.58" stroke="url(#paint1_linear_2_133)" stroke-width="1.5" stroke-miterlimit="10"/>
<path d="M132.25 38.23V25.76V17.45V4.98999H963.09V17.45V25.76V38.23H132.25Z" fill="#A5A5A5"/>
<path d="M132.25 38.23H963.09" stroke="#3A0E59" stroke-width="2" stroke-miterlimit="10"/>
<path d="M132.25 25.76H963.09" stroke="#727272" stroke-width="8" stroke-miterlimit="10"/>
<path d="M132.25 28.68H963.09" stroke="#727272" stroke-width="4" stroke-miterlimit="10"/>
<path d="M963.09 0.0100098L977.33 8.56L992.29 17.53C994.79 19.03 996.32 21.74 996.32 24.65V43.21H991.34H929.86V4.98999V0H963.09V0.0100098Z" fill="url(#paint2_linear_2_133)"/>
<path d="M118 8.54999L132.24 0H165.47V4.98999V43.21H103.99H99V24.65C99 21.73 100.53 19.03 103.03 17.53L118 8.54999Z" fill="url(#paint3_linear_2_133)"/>
<path d="M154.92 25.93C156.847 25.93 158.41 24.3675 158.41 22.44C158.41 20.5125 156.847 18.95 154.92 18.95C152.992 18.95 151.43 20.5125 151.43 22.44C151.43 24.3675 152.992 25.93 154.92 25.93Z" fill="#235FD8" stroke="white" stroke-width="2" stroke-miterlimit="10"/>
<path d="M940.41 25.93C942.337 25.93 943.9 24.3675 943.9 22.44C943.9 20.5125 942.337 18.95 940.41 18.95C938.482 18.95 936.92 20.5125 936.92 22.44C936.92 24.3675 938.482 25.93 940.41 25.93Z" fill="#235FD8" stroke="white" stroke-width="2" stroke-miterlimit="10"/>
<path d="M99.01 42.55H165.48" stroke="url(#paint4_linear_2_133)" stroke-width="1.5" stroke-miterlimit="10"/>
<path d="M929.86 42.55H996.32" stroke="url(#paint5_linear_2_133)" stroke-width="1.5" stroke-miterlimit="10"/>
<path d="M569.64 129.19H983.64C985.93 129.19 987.79 127.33 987.79 125.04C987.79 122.75 985.93 120.89 983.64 120.89H569.64C567.35 120.89 565.49 122.75 565.49 125.04C565.49 127.33 567.35 129.19 569.64 129.19Z" stroke="url(#paint6_linear_2_133)" stroke-width="1.5" stroke-miterlimit="10"/>
<path d="M589.45 145.81H983.65C985.94 145.81 987.8 143.95 987.8 141.66C987.8 139.37 985.94 137.51 983.65 137.51H589.45C587.16 137.51 585.3 139.37 585.3 141.66C585.3 143.95 587.15 145.81 589.45 145.81Z" stroke="url(#paint7_linear_2_133)" stroke-width="1.5" stroke-miterlimit="10"/>
<path d="M549.84 112.57H983.64C985.93 112.57 987.79 110.71 987.79 108.42C987.79 106.13 985.93 104.27 983.64 104.27H549.84C547.55 104.27 545.69 106.13 545.69 108.42C545.69 110.71 547.55 112.57 549.84 112.57Z" stroke="url(#paint8_linear_2_133)" stroke-width="1.5" stroke-miterlimit="10"/>
<path d="M609.25 162.42H983.64C985.93 162.42 987.79 160.56 987.79 158.27C987.79 155.98 985.93 154.12 983.64 154.12H609.25C606.96 154.12 605.1 155.98 605.1 158.27C605.1 160.56 606.96 162.42 609.25 162.42Z" stroke="url(#paint9_linear_2_133)" stroke-width="1.5" stroke-miterlimit="10"/>
<path d="M1061.7 4.71995C1061.55 4.86995 1061.4 5.01996 1061.25 5.16996C1061.1 5.31996 1060.95 5.46997 1060.8 5.61997C1060.62 5.79997 1060.44 5.97995 1060.26 6.15995C1060.07 6.34995 1059.87 6.54997 1059.68 6.73997C1059.49 6.92997 1059.3 7.11998 1059.11 7.30998C1058.94 7.47998 1058.76 7.66 1058.59 7.83C1058.45 7.97 1058.31 8.10998 1058.17 8.24998C1058.08 8.33998 1057.99 8.43001 1057.89 8.53001L1057.8 8.61997L1057.96 8.78001L1058.07 8.88999C1058.07 8.88999 1058.16 8.97997 1058.17 8.98997L1058.38 9.19999L1057.79 9.78996C1057.14 10.44 1057.14 11.49 1057.79 12.14L1061.9 16.25L1050.81 27.34V28.51L1084.88 62.58H1086.05L1097.14 51.49L1101.25 55.6C1101.9 56.25 1102.95 56.25 1103.6 55.6L1104.19 55.01L1104.4 55.22L1104.49 55.31L1104.6 55.42L1104.76 55.58L1108.66 51.68C1108.72 51.62 1108.78 51.55 1108.88 51.41C1108.91 51.37 1108.93 51.33 1108.95 51.28C1109.02 51.15 1109.07 51.01 1109.11 50.87C1109.13 50.8 1109.14 50.72 1109.15 50.65C1109.16 50.59 1109.15 50.52 1109.16 50.47C1109.19 50.25 1108.82 49.98 1108.82 49.98L1108.96 49.72C1106.35 44.92 1103.39 40.31 1100.11 35.94L1100.47 35.58C1100.17 35.18 1099.86 34.78 1099.56 34.38L1096.29 31.11C1092.04 26.04 1087.35 21.35 1082.27 17.09L1079 13.82C1078.6 13.51 1078.2 13.21 1077.8 12.91L1077.44 13.27C1073.07 9.99 1068.46 7.02996 1063.66 4.41996C1063.58 4.36996 1063.49 4.33997 1063.38 4.29997C1063.36 4.28997 1063.32 4.27999 1063.22 4.25999C1062.84 4.17999 1062.43 4.24999 1062.05 4.44999C1061.99 4.46999 1061.79 4.63996 1061.83 4.59996C1061.78 4.63996 1061.74 4.67995 1061.7 4.71995Z" fill="url(#paint10_linear_2_133)" stroke="url(#paint11_linear_2_133)" stroke-width="1.5" stroke-miterlimit="10"/>
<path d="M1071.17 46.4L1085.23 60.46H1086.41L1097.5 49.37L1101.29 53.16C1101.94 53.81 1102.99 53.81 1103.64 53.16L1104.23 52.57L1104.44 52.78L1104.53 52.87L1104.64 52.98L1104.8 53.14L1106.05 51.89C1106.11 51.83 1106.17 51.76 1106.27 51.62C1106.3 51.58 1106.32 51.54 1106.34 51.49C1106.41 51.36 1106.46 51.22 1106.5 51.08C1106.52 51.01 1106.53 50.93 1106.54 50.86C1106.55 50.8 1106.54 50.73 1106.55 50.68C1106.58 50.46 1106.21 50.19 1106.21 50.19L1106.35 49.93C1106.31 47.84 1101.53 40.42 1098.25 36.04L1098.74 35.55C1098.44 35.15 1098.13 34.75 1097.83 34.35L1090.52 27.05" fill="url(#paint12_linear_2_133)"/>
<path opacity="0.7" d="M297.71 111.14C297.6 111.38 297.52 111.63 297.47 111.88C297.27 113.87 296.77 115.83 296.01 117.68C295.59 118.7 295.05 119.66 294.39 120.54C293.78 121.47 292.82 122.11 291.73 122.32C291.53 122.32 291.37 122.56 291.11 122.72L292.21 123.22C292.31 123.8 292.99 124.26 292.81 124.96C292.47 126.14 292.35 127.38 291.93 128.54C290.81 131.64 289.63 134.7 288.69 137.86C288.51 138.33 288.3 138.78 288.05 139.22H281.29C281.79 137.64 282.29 136.14 282.79 134.64C283.29 133.14 283.85 131.6 284.31 130.08C284.94 128.58 285.43 127.03 285.75 125.44L284.71 124.78H283.59L278.63 139.2H271.51L282.29 107.58H283.09C286.79 107.58 290.49 107.58 294.19 107.58C295.53 107.47 296.8 108.21 297.35 109.44C297.44 109.73 297.5 110.02 297.53 110.32C297.53 110.56 297.61 110.8 297.71 111.14ZM287.57 119.28C289.57 118.02 289.57 115.94 290.15 113.94C289.25 113.74 288.55 113.1 287.59 113.38C286.71 114.96 286.49 116.76 285.71 118.36C285.59 118.6 285.71 118.96 285.71 119.28H287.57Z" fill="white"/>
<path opacity="0.7" d="M321.35 139.24L332.15 107.58H342.49C342.94 107.53 343.4 107.53 343.85 107.58C344.25 107.72 344.64 107.88 345.01 108.08C345.16 108.11 345.3 108.11 345.45 108.08C346.64 108.83 347.32 110.16 347.23 111.56C347.23 111.56 347.05 111.7 347.07 111.86C347.02 113.28 346.7 114.68 346.11 115.98C345.77 117.03 345.27 118.02 344.63 118.92C344.12 119.65 343.43 120.25 342.63 120.64L340.87 121.52C341.76 121.97 342.47 122.72 342.87 123.64C342.87 123.8 342.87 124.12 342.87 124.44C342.83 126.34 342.41 128.2 341.65 129.94C341.41 130.6 341.15 131.3 340.89 131.94C340.4 132.98 339.8 133.96 339.11 134.88C338.81 135.32 338.47 135.72 338.15 136.12C337.3 137.13 336.2 137.91 334.97 138.38C334.45 138.66 333.88 138.84 333.29 138.9C332.29 138.9 331.29 139.2 330.39 139.2L321.35 139.24ZM333.47 124.16C332.18 127.18 331.17 130.31 330.45 133.52H330.97C332.63 133.67 334.13 132.55 334.47 130.92C334.83 129.68 335.29 128.44 335.71 127.22C335.98 126.65 336.12 126.02 336.11 125.38L335.49 124.6L333.47 124.16ZM335.05 119.32C335.43 119.3 335.81 119.3 336.19 119.32C336.67 119.4 337.15 119.3 337.55 119.02C338 118.68 338.34 118.21 338.53 117.68C338.97 116.38 339.37 115.04 339.87 113.68C340.12 113.27 339.99 112.74 339.59 112.48H337.31L335.05 119.32Z" fill="white"/>
<path opacity="0.7" d="M476.57 108.12L478.01 109.78C477.91 110.37 478.01 110.97 478.29 111.5C478.29 111.5 478.01 111.7 478.03 111.82C477.96 113.37 477.59 114.88 476.93 116.28C476.49 117.68 475.73 118.95 474.71 120C474.13 120.6 473.27 120.72 472.71 121.22C472.51 121.36 472.27 121.46 472.01 121.62C472.69 121.92 473.27 122.39 473.69 123C473.88 123.28 473.99 123.62 473.99 123.96C474.07 126.02 473.67 128.08 472.83 129.96C472.59 130.62 472.33 131.3 472.05 131.96C471.57 132.95 471.02 133.91 470.41 134.82C470.11 135.26 469.78 135.67 469.43 136.06C468.54 137.14 467.38 137.98 466.07 138.48C465.53 138.73 464.96 138.91 464.37 139.02C463.15 139.16 461.89 139.28 460.65 139.3C457.93 139.3 455.19 139.3 452.39 139.3L463.19 107.64H473.45C474.36 107.57 475.28 107.75 476.09 108.18C476.13 108.18 476.35 108.12 476.57 108.12ZM461.09 133.6C461.97 133.4 462.57 133.6 463.21 133.36C464.3 132.95 465.11 132 465.35 130.86C465.65 129.9 466.07 128.98 466.33 128C466.59 127.02 467.17 126.2 466.97 125.22L466.27 124.44C465.59 124.82 464.99 123.82 464.27 124.44C463.09 127.32 462.23 130.32 461.09 133.6ZM468.21 112.5L465.95 119.28H467.95C468.28 119.09 468.58 118.86 468.85 118.6C469.09 118.31 469.28 117.98 469.41 117.62C469.85 116.36 470.27 115.08 470.71 113.8C470.94 113.34 470.79 112.79 470.37 112.5H468.21Z" fill="white"/>
<path opacity="0.7" d="M326.69 110.06C326.79 110.82 326.91 111.4 326.93 112.06C326.95 112.72 326.79 113.14 326.79 113.68C326.79 114.22 326.33 114.64 326.49 115.2C325.99 115.6 326.37 116.26 325.99 116.76C325.74 117.25 325.56 117.76 325.45 118.3H318.81C319.05 117.56 319.27 116.84 319.51 116.14C319.63 115.84 319.79 115.52 319.89 115.22C319.99 114.92 319.75 114.22 319.59 113.76C319.29 113.62 318.97 113.53 318.65 113.48C318.24 113.54 317.85 113.66 317.47 113.82C316.13 114.6 315.87 116.28 315.31 117.82C314.55 119.82 314.11 121.82 313.31 123.82C312.51 125.82 311.79 128.2 311.05 130.4C310.82 131.15 310.63 131.92 310.49 132.7L311.51 133.4H312.65C313.71 132.52 314.44 131.32 314.75 129.98C314.99 129.06 315.47 128.18 315.79 127.28C315.83 126.98 315.83 126.68 315.79 126.38L314.19 126.28C314.87 124.46 315.39 122.62 316.07 120.9H324.55L318.21 139.42H315.61L315.15 136.94C314.93 137.02 314.73 137.13 314.55 137.28C313.61 138.24 312.43 138.93 311.13 139.28C310.39 139.52 309.61 139.64 308.83 139.66C308.11 139.66 307.33 139.96 306.61 139.44C306.39 139.28 305.97 139.44 305.71 139.3C304.85 138.92 303.97 138.54 303.71 137.44C303.57 137.1 303.4 136.78 303.19 136.48V134.48C303.23 133.35 303.43 132.24 303.77 131.16C303.99 130.22 304.33 129.3 304.63 128.38C304.93 127.46 305.33 126.58 305.65 125.66C305.97 124.74 306.17 123.78 306.47 122.88C307.05 121.2 307.75 119.56 308.27 117.88C308.74 116.4 309.33 114.95 310.03 113.56C310.52 112.47 311.2 111.46 312.03 110.6C313.29 109.43 314.79 108.56 316.43 108.06C318.15 107.65 319.92 107.47 321.69 107.54C322.43 107.56 323.17 107.7 323.87 107.94C325.09 108.15 326.08 109.02 326.45 110.2L326.69 110.06Z" fill="white"/>
<path opacity="0.7" d="M446.27 107.6H457.43C455.03 118.04 452.65 128.44 450.23 138.94L449.93 139.24H443.51C443.51 137.6 444.37 136.1 444.31 134.36H441.09L438.95 139.24H432.37C432.37 139.04 432.27 138.74 432.37 138.56C433.03 137.46 433.35 136.24 433.93 135.12C434.55 134.02 435.09 132.88 435.55 131.7C436.1 130.56 436.59 129.39 437.01 128.2C437.22 127.69 437.47 127.2 437.77 126.74C438.83 124.44 439.77 122.14 440.93 119.86C441.75 118.06 442.57 116.26 443.37 114.46C444.17 112.66 445.13 110.46 446.17 108.46C446.23 108.18 446.26 107.89 446.27 107.6ZM445.93 128.6C446.03 128.1 446.11 127.68 446.23 127.28C446.47 126.5 446.75 125.76 446.97 124.98C447.37 123.52 447.75 122.04 448.15 120.58C448.55 119.12 448.83 118.22 449.17 117.06C449.51 115.9 449.77 115.06 450.05 114C450.05 113.88 450.05 113.7 449.91 113.34C449.61 113.72 449.39 113.92 449.25 114.14C449.14 114.37 449.05 114.6 448.97 114.84C448.35 116.4 447.69 117.96 447.09 119.52C446.25 121.72 445.31 123.86 444.51 126.08C444.19 126.92 443.85 127.74 443.51 128.6H445.93Z" fill="white"/>
<path opacity="0.7" d="M496.03 116.56H488.91L489.59 114.02L488.63 113.3C487.59 113.08 487.01 114.1 486.25 114.78C486.12 116.02 486.6 117.25 487.55 118.06C488.84 119.4 490.06 120.81 491.21 122.28C491.87 123.08 492.24 124.08 492.25 125.12C492.25 125.46 492.39 125.82 492.39 126.16C492.39 126.5 492.27 126.68 492.25 126.94C492.12 128.6 491.68 130.22 490.95 131.72C490.39 133 489.72 134.22 488.95 135.38C488.27 136.4 487.37 137.26 486.31 137.88C485.15 138.59 483.86 139.07 482.51 139.3C481.24 139.55 479.94 139.61 478.65 139.46C477.37 139.47 476.12 139.07 475.09 138.32C474.42 137.82 473.93 137.12 473.69 136.32C473.69 135.7 473.43 135.12 473.39 134.54C473.43 134.07 473.51 133.6 473.63 133.14C473.68 132.71 473.76 132.29 473.87 131.88C474.21 130.6 474.61 129.36 475.01 128.12L475.37 127.18H482.13C482.01 128.44 481.64 129.66 481.05 130.78V132.32L481.99 133.18L483.31 132.6C484.42 131.27 484.88 129.5 484.55 127.8C483.97 126.73 483.27 125.74 482.45 124.84C481.61 123.86 480.95 122.7 480.09 121.74C479.61 121.17 479.29 120.48 479.17 119.74C478.99 118.86 478.49 117.94 479.17 116.96C479.41 116.58 479.17 116.06 479.37 115.54C480.13 113.18 481.51 111.06 483.37 109.42C484.1 108.83 484.92 108.34 485.79 107.98C486.29 107.75 486.8 107.57 487.33 107.44C489.09 107.04 490.9 106.96 492.69 107.22C494.3 107.3 495.76 108.2 496.57 109.6C496.83 110.04 496.96 110.55 496.97 111.06C496.97 111.88 497.31 112.76 496.75 113.56C496.77 114.68 496.19 115.52 496.03 116.56Z" fill="white"/>
<path opacity="0.7" d="M352.93 125.82C351.95 128.08 351.17 130.42 350.61 132.82H350.73H357.59L355.59 139.06H341.09L351.85 107.48H365.85L363.85 113.48H357.09L354.97 119.74H361.33C360.9 121.81 360.23 123.82 359.33 125.74L352.93 125.82Z" fill="white"/>
<path opacity="0.7" d="M374.51 139.2L385.27 107.62H399.27L397.27 113.62H390.33L388.33 119.88C390.51 120 392.59 119.88 394.67 119.88C394.26 121.94 393.62 123.95 392.77 125.88H386.29C385.41 128.2 384.63 130.54 383.89 133.02H391.09L389.09 139.26L374.51 139.2Z" fill="white"/>
<path opacity="0.7" d="M383.09 107.62L381.09 113.62H377.09C374.15 122.18 371.25 130.72 368.33 139.26H361.49C361.03 138.76 361.91 138.36 361.67 137.84C362.43 136 362.89 134.06 363.67 132.22C364.83 129.28 365.67 126.22 366.75 123.26C367.25 121.78 367.79 120.32 368.31 118.84C368.83 117.36 369.33 115.9 369.85 114.42C369.85 114.22 369.85 114 370.01 113.7C369.34 113.64 368.68 113.64 368.01 113.7H365.91L367.91 107.7L383.09 107.62Z" fill="white"/>
<path opacity="0.7" d="M400.97 132.94H408.19C407.47 135.12 406.67 137.18 405.97 139.22H391.77C395.35 128.68 398.93 118.18 402.55 107.58H409.59C406.71 116.06 403.85 124.42 400.97 132.94Z" fill="white"/>
<path opacity="0.7" d="M426.71 132.96H433.93C433.23 135.12 432.41 137.18 431.73 139.22H417.51L428.31 107.58H435.35L426.71 132.96Z" fill="white"/>
<path opacity="0.7" d="M298.03 139.22H291.21C294.81 128.7 298.39 118.2 301.99 107.62H308.71C308.74 107.8 308.74 107.98 308.71 108.16C305.09 118.46 301.63 128.88 298.03 139.22Z" fill="white"/>
<defs>
<linearGradient id="paint0_linear_2_133" x1="512.596" y1="154.191" x2="512.596" y2="27.9597" gradientUnits="userSpaceOnUse">
<stop stop-color="#9447DD"/>
<stop offset="1" stop-color="#B27AE6"/>
</linearGradient>
<linearGradient id="paint1_linear_2_133" x1="1.4737" y1="113.305" x2="1025.93" y2="113.305" gradientUnits="userSpaceOnUse">
<stop offset="5.32779e-09" stop-color="#3A0E59"/>
<stop offset="1" stop-color="#410F63"/>
</linearGradient>
<linearGradient id="paint2_linear_2_133" x1="963.089" y1="-11.7668" x2="963.089" y2="40.3284" gradientUnits="userSpaceOnUse">
<stop stop-color="#B27AE6"/>
<stop offset="1" stop-color="#9947DD"/>
</linearGradient>
<linearGradient id="paint3_linear_2_133" x1="132.248" y1="-11.7668" x2="132.248" y2="40.3284" gradientUnits="userSpaceOnUse">
<stop stop-color="#9447DD"/>
<stop offset="1" stop-color="#B27AE6"/>
</linearGradient>
<linearGradient id="paint4_linear_2_133" x1="-nan" y1="-nan" x2="-nan" y2="-nan" gradientUnits="userSpaceOnUse">
<stop offset="5.32779e-09" stop-color="#3A0E59"/>
<stop offset="1" stop-color="#410F63"/>
</linearGradient>
<linearGradient id="paint5_linear_2_133" x1="-nan" y1="-nan" x2="-nan" y2="-nan" gradientUnits="userSpaceOnUse">
<stop offset="5.32779e-09" stop-color="#3A0E59"/>
<stop offset="1" stop-color="#410F63"/>
</linearGradient>
<linearGradient id="paint6_linear_2_133" x1="564.74" y1="125.036" x2="988.547" y2="125.036" gradientUnits="userSpaceOnUse">
<stop offset="5.32779e-09" stop-color="#3A0E59"/>
<stop offset="1" stop-color="#410F63"/>
</linearGradient>
<linearGradient id="paint7_linear_2_133" x1="584.543" y1="141.652" x2="988.547" y2="141.652" gradientUnits="userSpaceOnUse">
<stop offset="5.32779e-09" stop-color="#3A0E59"/>
<stop offset="1" stop-color="#410F63"/>
</linearGradient>
<linearGradient id="paint8_linear_2_133" x1="544.937" y1="108.419" x2="988.547" y2="108.419" gradientUnits="userSpaceOnUse">
<stop offset="5.32779e-09" stop-color="#3A0E59"/>
<stop offset="1" stop-color="#410F63"/>
</linearGradient>
<linearGradient id="paint9_linear_2_133" x1="604.346" y1="158.269" x2="988.547" y2="158.269" gradientUnits="userSpaceOnUse">
<stop offset="5.32779e-09" stop-color="#3A0E59"/>
<stop offset="1" stop-color="#410F63"/>
</linearGradient>
<linearGradient id="paint10_linear_2_133" x1="1099.2" y1="57.6172" x2="1064.58" y2="19.8949" gradientUnits="userSpaceOnUse">
<stop offset="0.295" stop-color="#B7000E"/>
<stop offset="0.6268" stop-color="#CB0019"/>
<stop offset="1" stop-color="#DE0024"/>
</linearGradient>
<linearGradient id="paint11_linear_2_133" x1="1050.06" y1="33.4033" x2="1109.92" y2="33.4033" gradientUnits="userSpaceOnUse">
<stop offset="0.295" stop-color="#540006"/>
<stop offset="1" stop-color="#52000D"/>
</linearGradient>
<linearGradient id="paint12_linear_2_133" x1="1099.47" y1="56.6964" x2="1080.34" y2="35.8463" gradientUnits="userSpaceOnUse">
<stop stop-color="#FF5965"/>
<stop offset="0.3722" stop-color="#FC4458" stop-opacity="0.5854"/>
<stop offset="0.8977" stop-color="#F72042" stop-opacity="0"/>
</linearGradient>
</defs>
</svg>
