<svg width="1112" height="246" viewBox="0 0 1112 246" fill="none" xmlns="http://www.w3.org/2000/svg">
<path d="M1065.38 79.47L1061.5 83.35L1032.34 54.18L1036.22 50.3H1037.86C1045.84 42.32 1064.92 23.24 1073.11 15.06L1100.63 42.58C1092.51 50.69 1073.29 69.92 1065.38 77.83V79.47Z" fill="#EFEFEF" stroke="black" stroke-miterlimit="10"/>
<path d="M1065.67 7.60999L1108.08 50.02" stroke="#2B2B2B" stroke-width="2" stroke-miterlimit="10"/>
<path d="M214.17 211.61V47.28H213.28H207.52H78.8199C77.0599 47.28 75.3699 47.98 74.1199 49.23L13.39 109.96C12.14 111.21 11.4399 112.9 11.4399 114.66V204.96C11.4399 208.63 14.4199 211.61 18.0899 211.61H207.52H214.17Z" fill="#D8D8D8" stroke="black" stroke-miterlimit="10"/>
<path d="M174.33 81.35H164.36C162.75 81.35 161.45 82.65 161.45 84.26C161.45 85.87 162.75 87.17 164.36 87.17H174.33C175.94 87.17 177.24 85.87 177.24 84.26C177.24 82.65 175.93 81.35 174.33 81.35Z" fill="white" stroke="black" stroke-miterlimit="10"/>
<path d="M174.29 70.55H164.37C162.76 70.55 161.46 71.85 161.46 73.46C161.46 75.07 162.76 76.37 164.37 76.37H174.29C175.9 76.37 177.2 75.07 177.2 73.46C177.2 71.85 175.89 70.55 174.29 70.55Z" fill="#D8D8D8" stroke="black" stroke-miterlimit="10"/>
<path d="M888.81 211.61V47.28H889.7H895.46H1024.16C1025.92 47.28 1027.61 47.98 1028.86 49.23L1089.59 109.96C1090.84 111.21 1091.54 112.9 1091.54 114.66V204.96C1091.54 208.63 1088.56 211.61 1084.89 211.61H895.46H888.81Z" fill="#D8D8D8" stroke="black" stroke-miterlimit="10"/>
<path d="M1026.51 51.58L1087.24 112.31C1087.86 112.93 1088.21 113.78 1088.21 114.66V204.96C1088.21 206.8 1086.72 208.28 1084.89 208.28H888.81V204.96V114.66V109.96V49.23V47.28H214.17V49.23V109.96V114.66V204.96V208.28H18.0899C16.2499 208.28 14.7699 206.79 14.7699 204.96V114.66C14.7699 113.78 15.1199 112.93 15.7399 112.31L76.4699 51.58C77.0899 50.96 77.9399 50.61 78.8199 50.61H142.53V47.29H78.8199C77.0599 47.29 75.3699 47.99 74.1199 49.24L13.39 109.97C12.14 111.22 11.4399 112.91 11.4399 114.67V204.97C11.4399 206.14 11.7499 207.28 12.3299 208.29C13.5199 210.35 15.7099 211.61 18.0899 211.61H214.17H888.81H1084.89C1087.26 211.61 1089.46 210.34 1090.65 208.29C1091.23 207.28 1091.54 206.13 1091.54 204.97V114.67C1091.54 112.91 1090.84 111.22 1089.59 109.97L1028.86 49.24C1027.61 47.99 1025.92 47.29 1024.16 47.29H960.45V50.61H1024.16C1025.04 50.61 1025.88 50.96 1026.51 51.58Z" fill="#A5A5A5" stroke="black" stroke-miterlimit="10"/>
<path d="M754.21 173.09L765.12 166.79C765.48 166.58 765.63 166.15 765.48 165.76C765 164.56 764.67 163.31 764.48 162.03C763.17 153.02 769.41 144.65 778.43 143.34C778.84 143.28 779.14 142.93 779.14 142.52V129.92C779.14 129.46 778.77 129.09 778.31 129.09C778.29 129.09 778.26 129.09 778.24 129.09C761.36 130.5 748.82 145.34 750.23 162.22C750.54 165.86 751.49 169.42 753.04 172.72C753.24 173.14 753.73 173.31 754.15 173.12C754.17 173.11 754.19 173.1 754.21 173.09Z" fill="black"/>
<path d="M807.41 136.37C809.244 136.37 810.73 134.884 810.73 133.05C810.73 131.216 809.244 129.73 807.41 129.73C805.576 129.73 804.09 131.216 804.09 133.05C804.09 134.884 805.576 136.37 807.41 136.37Z" fill="black"/>
<path d="M807.41 189.58C809.244 189.58 810.73 188.094 810.73 186.26C810.73 184.426 809.244 182.94 807.41 182.94C805.576 182.94 804.09 184.426 804.09 186.26C804.09 188.094 805.576 189.58 807.41 189.58Z" fill="black"/>
<path d="M754.19 189.58C756.024 189.58 757.51 188.094 757.51 186.26C757.51 184.426 756.024 182.94 754.19 182.94C752.356 182.94 750.87 184.426 750.87 186.26C750.87 188.094 752.356 189.58 754.19 189.58Z" fill="black"/>
<path d="M782.46 129.92V142.52C782.46 142.93 782.76 143.28 783.17 143.34C784.45 143.53 785.7 143.86 786.9 144.34C795.36 147.71 799.49 157.3 796.12 165.76C795.97 166.14 796.12 166.58 796.48 166.79L807.39 173.09C807.79 173.32 808.3 173.18 808.53 172.79C808.54 172.77 808.55 172.75 808.56 172.73C815.78 157.4 809.2 139.13 793.87 131.91C790.56 130.35 787.01 129.4 783.37 129.1C782.91 129.06 782.51 129.4 782.47 129.86C782.46 129.87 782.46 129.89 782.46 129.92Z" fill="black"/>
<path d="M805.72 175.96L794.81 169.66C794.45 169.45 794 169.54 793.74 169.86C792.94 170.87 792.02 171.79 791.01 172.59C783.86 178.23 773.49 177.01 767.85 169.86C767.59 169.54 767.14 169.45 766.78 169.66L755.87 175.96C755.47 176.19 755.34 176.7 755.57 177.09C755.58 177.11 755.59 177.13 755.61 177.15C765.28 191.06 784.39 194.5 798.3 184.84C801.3 182.76 803.9 180.15 805.99 177.15C806.25 176.77 806.16 176.26 805.78 175.99C805.76 175.99 805.74 175.98 805.72 175.96Z" fill="black"/>
<path d="M754.19 136.37C756.024 136.37 757.51 134.884 757.51 133.05C757.51 131.216 756.024 129.73 754.19 129.73C752.356 129.73 750.87 131.216 750.87 133.05C750.87 134.884 752.356 136.37 754.19 136.37Z" fill="black"/>
<path d="M1091.23 168.94L1088.57 184.82C1088.42 185.7 1087.45 186.15 1086.68 185.7L1084.88 184.63C1084.39 186.41 1083.83 188.17 1083.22 189.9L1085.3 190.05C1086.2 190.11 1086.72 191.04 1086.35 191.85L1079.34 206.34C1078.95 207.14 1077.88 207.29 1077.28 206.66L1075.86 205.11C1074.89 206.68 1073.86 208.21 1072.76 209.69L1074.72 210.44C1075.54 210.76 1075.8 211.81 1075.21 212.46L1064.4 224.39C1063.8 225.06 1062.74 224.91 1062.34 224.11L1061.4 222.22C1060.02 223.45 1058.59 224.63 1057.14 225.75L1058.82 227.02C1059.51 227.56 1059.46 228.65 1058.71 229.1L1044.98 237.52C1044.21 237.97 1043.24 237.54 1043.07 236.66L1042.71 234.6C1041.06 235.39 1039.36 236.12 1037.64 236.79L1038.87 238.47C1039.39 239.18 1039.04 240.19 1038.18 240.43L1022.64 244.62C1021.78 244.84 1020.96 244.15 1021.05 243.25L1021.29 241.19C1019.48 241.47 1017.64 241.7 1015.79 241.84L1016.52 243.8C1016.82 244.62 1016.18 245.5 1015.3 245.48L999.2 245.12C998.32 245.1 997.72 244.2 998.08 243.38L998.88 241.45C997.03 241.21 995.21 240.91 993.42 240.53L993.55 242.62C993.61 243.5 992.76 244.17 991.92 243.89L976.57 239.03C975.73 238.75 975.43 237.72 975.97 237.03L977.3 235.4C975.6 234.67 973.93 233.87 972.31 233.01L971.86 235.05C971.67 235.91 970.66 236.3 969.93 235.82L956.58 226.81C955.85 226.32 955.85 225.24 956.58 224.73L958.32 223.53C956.9 222.35 955.53 221.1 954.21 219.83L953.18 221.66C952.75 222.43 951.68 222.54 951.12 221.85L940.83 209.45C940.27 208.78 940.57 207.73 941.41 207.47L943.41 206.8C942.38 205.27 941.41 203.7 940.51 202.09L939.03 203.57C938.39 204.19 937.33 203.98 936.97 203.18L930.61 188.39C930.27 187.57 930.83 186.67 931.73 186.63L933.81 186.57C933.27 184.81 932.8 183.04 932.37 181.22L930.54 182.21C929.75 182.62 928.8 182.14 928.69 181.26L926.76 165.27C926.65 164.39 927.45 163.68 928.31 163.9L930.37 164.42C930.35 164.08 930.35 163.73 930.35 163.39C930.35 161.87 930.39 160.38 930.48 158.88L928.42 159.31C927.56 159.5 926.77 158.75 926.92 157.87L929.56 141.99C929.71 141.11 930.68 140.66 931.45 141.11L933.25 142.18C933.74 140.4 934.3 138.65 934.91 136.92L932.83 136.75C931.95 136.69 931.41 135.76 931.78 134.95L938.79 120.46C939.18 119.66 940.25 119.51 940.85 120.16L942.27 121.69C943.26 120.12 944.29 118.59 945.37 117.11L943.41 116.36C942.59 116.04 942.33 114.99 942.92 114.34L953.73 102.41C954.33 101.76 955.39 101.9 955.79 102.69L956.73 104.6C958.1 103.35 959.54 102.17 960.99 101.05L959.33 99.7801C958.62 99.2401 958.68 98.17 959.42 97.7L973.15 89.3C973.92 88.83 974.91 89.28 975.06 90.14L975.42 92.2C977.08 91.41 978.77 90.68 980.51 90.01L979.28 88.33C978.74 87.62 979.09 86.61 979.95 86.38L995.49 82.17C996.35 81.95 997.17 82.66 997.08 83.54L996.84 85.6C998.65 85.32 1000.49 85.11 1002.34 84.95L1001.63 82.99C1001.31 82.17 1001.95 81.29 1002.83 81.31L1018.93 81.67C1019.81 81.69 1020.41 82.59 1020.05 83.41L1019.25 85.3401C1021.1 85.5801 1022.93 85.88 1024.73 86.26L1024.58 84.17C1024.52 83.29 1025.37 82.6201 1026.21 82.9001L1041.56 87.76C1042.4 88.04 1042.7 89.07 1042.16 89.76L1040.85 91.37C1042.53 92.12 1044.2 92.9201 1045.82 93.7801L1046.27 91.74C1046.46 90.88 1047.47 90.49 1048.2 90.97L1061.55 99.98C1062.28 100.47 1062.28 101.55 1061.55 102.06L1059.83 103.24C1061.25 104.44 1062.62 105.69 1063.94 106.96L1064.95 105.13C1065.38 104.36 1066.45 104.25 1067.01 104.94L1077.3 117.34C1077.86 118.01 1077.56 119.06 1076.72 119.32L1074.72 119.99C1075.75 121.52 1076.72 123.09 1077.62 124.7L1079.12 123.22C1079.74 122.6 1080.8 122.81 1081.16 123.63L1087.52 138.41C1087.88 139.23 1087.3 140.15 1086.4 140.17L1084.32 140.24C1084.86 141.98 1085.33 143.76 1085.74 145.57L1087.59 144.58C1088.38 144.17 1089.33 144.65 1089.44 145.55L1091.37 161.52C1091.48 162.4 1090.68 163.11 1089.82 162.89L1087.76 162.37C1087.78 162.71 1087.78 163.06 1087.78 163.4C1087.78 164.91 1087.74 166.41 1087.65 167.91L1089.71 167.48C1090.6 167.31 1091.37 168.06 1091.23 168.94Z" fill="black"/>
<path d="M1028.8 212.2L1029.56 211.11C1029.75 210.05 1029.04 209.05 1027.99 208.86C1027.37 208.75 1026.73 208.95 1026.28 209.4L1007.22 230.27L991.88 233.74L991.66 233.79C991.4 233.77 991.14 233.75 990.88 233.73C990.26 233.68 989.64 233.64 989.08 233.59C988.52 233.54 987.99 233.5 987.54 233.46L987.46 233.44L976.53 227.98C976.27 227.85 976.02 227.68 975.79 227.47C975.46 227.17 975.17 226.8 974.94 226.38C974.7 225.96 974.52 225.48 974.4 224.98C974.28 224.48 974.22 223.95 974.22 223.42C974.22 222.89 974.29 222.36 974.41 221.86C974.53 221.36 974.72 220.88 974.95 220.45C975.18 220.03 975.46 219.66 975.78 219.35C976.08 219.06 976.43 218.83 976.79 218.67L988.01 213.84L988.09 213.82C988.28 213.81 988.48 213.81 988.69 213.8C989.19 213.79 989.75 213.77 990.33 213.76C990.93 213.75 991.58 213.74 992.22 213.72L992.73 213.58L994.01 213.24C994.83 212.55 994.94 211.33 994.25 210.51C993.84 210.02 993.22 209.77 992.59 209.82L964.57 213.56L950.39 206.26C950.2 206.08 950.01 205.89 949.83 205.71C949.38 205.27 948.94 204.84 948.54 204.45C948.14 204.05 947.76 203.68 947.45 203.36L947.4 203.29L942.54 192.08C942.42 191.81 942.34 191.52 942.3 191.22C942.24 190.78 942.26 190.31 942.35 189.84C942.44 189.36 942.61 188.88 942.84 188.42C943.07 187.96 943.36 187.52 943.7 187.11C944.04 186.71 944.43 186.34 944.85 186.03C945.27 185.72 945.72 185.47 946.17 185.3C946.62 185.13 947.07 185.02 947.52 184.99C947.94 184.96 948.35 185 948.73 185.12L960.43 188.64L960.5 188.68C960.65 188.8 960.81 188.92 960.97 189.05C961.36 189.36 961.8 189.71 962.26 190.08C962.73 190.46 963.23 190.87 963.73 191.27L965.41 192.05C966.48 192.05 967.35 191.18 967.35 190.11C967.35 189.48 967.04 188.88 966.52 188.52L942.65 173.37L936.48 158.66C936.45 158.4 936.43 158.14 936.4 157.88C936.34 157.26 936.28 156.65 936.23 156.08C936.18 155.52 936.13 154.99 936.09 154.54L936.1 154.46L939.58 142.75C939.66 142.47 939.79 142.2 939.95 141.94C940.19 141.56 940.5 141.21 940.88 140.91C941.26 140.6 941.69 140.34 942.16 140.14C942.63 139.93 943.14 139.78 943.66 139.69C944.18 139.6 944.71 139.57 945.23 139.61C945.75 139.64 946.25 139.74 946.71 139.9C947.16 140.05 947.58 140.26 947.94 140.53C948.28 140.78 948.57 141.07 948.79 141.41L955.49 151.62C955.51 151.64 955.52 151.67 955.52 151.7C955.56 151.88 955.6 152.08 955.64 152.29C955.74 152.78 955.85 153.33 955.97 153.9C956.09 154.49 956.21 155.13 956.33 155.75L957.11 157.43C957.93 158.12 959.16 158.01 959.84 157.19C960.25 156.7 960.39 156.05 960.23 155.44L951.68 128.49L956.41 113.26C956.56 113.04 956.71 112.83 956.85 112.61C957.2 112.1 957.55 111.59 957.87 111.12C958.19 110.65 958.49 110.22 958.75 109.85L958.81 109.79L969 103.06C969.24 102.9 969.52 102.77 969.81 102.68C970.24 102.54 970.7 102.48 971.18 102.49C971.66 102.5 972.17 102.58 972.66 102.72C973.15 102.87 973.64 103.08 974.1 103.34C974.56 103.61 974.98 103.93 975.36 104.29C975.73 104.65 976.06 105.05 976.31 105.47C976.56 105.88 976.74 106.31 976.85 106.74C976.95 107.15 976.98 107.56 976.93 107.96L975.5 120.09L975.48 120.17C975.39 120.34 975.3 120.52 975.2 120.7C974.97 121.14 974.7 121.63 974.41 122.14C974.12 122.67 973.81 123.24 973.5 123.79L973.02 125.58C973.21 126.64 974.21 127.34 975.27 127.15C975.89 127.04 976.43 126.63 976.69 126.06L987.47 99.92L1000.88 91.29C1001.13 91.22 1001.39 91.15 1001.64 91.08C1002.24 90.91 1002.83 90.75 1003.38 90.6C1003.93 90.45 1004.44 90.31 1004.87 90.2L1004.95 90.19L1017.09 91.58C1017.38 91.61 1017.67 91.69 1017.96 91.8C1018.37 91.97 1018.77 92.22 1019.14 92.53C1019.51 92.85 1019.84 93.23 1020.12 93.66C1020.41 94.09 1020.64 94.56 1020.82 95.06C1021 95.56 1021.12 96.08 1021.18 96.59C1021.24 97.1 1021.23 97.62 1021.15 98.1C1021.08 98.57 1020.94 99.02 1020.75 99.42C1020.56 99.8 1020.32 100.13 1020.03 100.41L1011.14 108.79L1011.07 108.84C1010.9 108.91 1010.71 108.99 1010.51 109.06C1010.05 109.24 1009.52 109.45 1008.97 109.66C1008.41 109.88 1007.8 110.11 1007.21 110.34L1005.69 111.4C1005.15 112.33 1005.47 113.52 1006.4 114.05C1006.95 114.37 1007.62 114.4 1008.19 114.13L1033.24 101.03L1049.06 103.04C1049.3 103.15 1049.54 103.26 1049.78 103.36C1050.35 103.62 1050.91 103.87 1051.42 104.11C1051.94 104.35 1052.41 104.57 1052.82 104.76L1052.89 104.81L1061.29 113.68C1061.49 113.89 1061.67 114.14 1061.81 114.41C1062.02 114.8 1062.16 115.25 1062.24 115.73C1062.32 116.21 1062.32 116.72 1062.27 117.23C1062.21 117.74 1062.09 118.26 1061.91 118.75C1061.73 119.25 1061.49 119.72 1061.2 120.15C1060.91 120.58 1060.58 120.97 1060.21 121.29C1059.85 121.61 1059.46 121.86 1059.05 122.04C1058.66 122.21 1058.26 122.31 1057.87 122.33L1045.67 123.03L1045.59 123.02C1045.41 122.96 1045.22 122.9 1045.02 122.83C1044.55 122.67 1044.02 122.49 1043.46 122.31C1042.89 122.12 1042.28 121.91 1041.67 121.7L1039.83 121.54C1038.82 121.91 1038.3 123.02 1038.67 124.03C1038.89 124.63 1039.38 125.08 1040 125.24L1067.61 131.31L1078.44 143.02C1078.55 143.26 1078.67 143.49 1078.78 143.73C1079.05 144.29 1079.32 144.85 1079.56 145.36C1079.8 145.87 1080.03 146.35 1080.21 146.76L1080.23 146.84L1080.97 159.04C1080.99 159.33 1080.96 159.63 1080.9 159.93C1080.81 160.37 1080.63 160.8 1080.38 161.21C1080.13 161.63 1079.81 162.02 1079.44 162.37C1079.07 162.73 1078.64 163.04 1078.18 163.3C1077.72 163.56 1077.23 163.77 1076.73 163.92C1076.23 164.06 1075.73 164.15 1075.24 164.16C1074.76 164.17 1074.3 164.12 1073.87 163.99C1073.47 163.87 1073.09 163.69 1072.77 163.46L1062.98 156.15L1062.92 156.09C1062.82 155.93 1062.71 155.76 1062.6 155.58C1062.34 155.16 1062.05 154.68 1061.74 154.17C1061.43 153.65 1061.09 153.1 1060.76 152.55L1059.45 151.24C1058.44 150.87 1057.33 151.39 1056.96 152.4C1056.74 153 1056.83 153.66 1057.2 154.18L1074.45 176.58L1075.22 192.51C1075.16 192.76 1075.09 193.02 1075.03 193.27C1074.88 193.87 1074.72 194.47 1074.58 195.02C1074.44 195.57 1074.3 196.08 1074.18 196.51L1074.14 196.59L1066.86 206.41C1066.69 206.65 1066.47 206.86 1066.23 207.05C1065.88 207.32 1065.46 207.54 1065.01 207.7C1064.55 207.86 1064.05 207.95 1063.54 207.99C1063.03 208.02 1062.5 207.99 1061.98 207.9C1061.46 207.81 1060.95 207.65 1060.47 207.44C1060 207.23 1059.56 206.97 1059.17 206.66C1058.8 206.36 1058.48 206.02 1058.23 205.65C1058 205.3 1057.83 204.92 1057.73 204.54L1054.92 192.65V192.57C1054.95 192.38 1054.97 192.18 1055 191.97C1055.07 191.48 1055.16 190.92 1055.25 190.34C1055.34 189.74 1055.44 189.1 1055.54 188.47L1055.38 186.63C1054.84 185.7 1053.66 185.38 1052.73 185.92C1052.18 186.24 1051.82 186.8 1051.77 187.44L1050.58 215.69L1041.06 228.21L1040.92 228.39C1040.71 228.54 1040.49 228.7 1040.28 228.85C1039.77 229.21 1039.27 229.57 1038.81 229.9C1038.35 230.23 1037.92 230.53 1037.55 230.79L1037.47 230.82L1025.59 233.66C1025.3 233.73 1025.01 233.76 1024.7 233.74C1024.25 233.72 1023.79 233.62 1023.34 233.45C1022.89 233.28 1022.44 233.03 1022.03 232.72C1021.62 232.41 1021.23 232.05 1020.89 231.64C1020.55 231.23 1020.26 230.79 1020.03 230.32C1019.8 229.86 1019.63 229.37 1019.54 228.89C1019.45 228.42 1019.42 227.95 1019.47 227.51C1019.52 227.09 1019.63 226.69 1019.81 226.34L1025.3 215.43L1025.35 215.36C1025.49 215.23 1025.64 215.1 1025.8 214.96C1026.17 214.63 1026.59 214.26 1027.03 213.87C1027.48 213.47 1027.97 213.05 1028.45 212.63" fill="#EFEFEF"/>
<path d="M1028.8 212.2L1029.56 211.11C1029.75 210.05 1029.04 209.05 1027.99 208.86C1027.37 208.75 1026.73 208.95 1026.28 209.4L1007.22 230.27L991.88 233.74L991.66 233.79C991.4 233.77 991.14 233.75 990.88 233.73C990.26 233.68 989.64 233.64 989.08 233.59C988.52 233.54 987.99 233.5 987.54 233.46L987.46 233.44L976.53 227.98C976.27 227.85 976.02 227.68 975.79 227.47C975.46 227.17 975.17 226.8 974.94 226.38C974.7 225.96 974.52 225.48 974.4 224.98C974.28 224.48 974.22 223.95 974.22 223.42C974.22 222.89 974.29 222.36 974.41 221.86C974.53 221.36 974.72 220.88 974.95 220.45C975.18 220.03 975.46 219.66 975.78 219.35C976.08 219.06 976.43 218.83 976.79 218.67L988.01 213.84L988.09 213.82C988.28 213.81 988.48 213.81 988.69 213.8C989.19 213.79 989.75 213.77 990.33 213.76C990.93 213.75 991.58 213.74 992.22 213.72L992.73 213.58L994.01 213.24C994.83 212.55 994.94 211.33 994.25 210.51C993.84 210.02 993.22 209.77 992.59 209.82L964.57 213.56L950.39 206.26C950.2 206.08 950.01 205.89 949.83 205.71C949.38 205.27 948.94 204.84 948.54 204.45C948.14 204.05 947.76 203.68 947.45 203.36L947.4 203.29L942.54 192.08C942.42 191.81 942.34 191.52 942.3 191.22C942.24 190.78 942.26 190.31 942.35 189.84C942.44 189.36 942.61 188.88 942.84 188.42C943.07 187.96 943.36 187.52 943.7 187.11C944.04 186.71 944.43 186.34 944.85 186.03C945.27 185.72 945.72 185.47 946.17 185.3C946.62 185.13 947.07 185.02 947.52 184.99C947.94 184.96 948.35 185 948.73 185.12L960.43 188.64L960.5 188.68C960.65 188.8 960.81 188.92 960.97 189.05C961.36 189.36 961.8 189.71 962.26 190.08C962.73 190.46 963.23 190.87 963.73 191.27L965.41 192.05C966.48 192.05 967.35 191.18 967.35 190.11C967.35 189.48 967.04 188.88 966.52 188.52L942.65 173.37L936.48 158.66C936.45 158.4 936.43 158.14 936.4 157.88C936.34 157.26 936.28 156.65 936.23 156.08C936.18 155.52 936.13 154.99 936.09 154.54L936.1 154.46L939.58 142.75C939.66 142.47 939.79 142.2 939.95 141.94C940.19 141.56 940.5 141.21 940.88 140.91C941.26 140.6 941.69 140.34 942.16 140.14C942.63 139.93 943.14 139.78 943.66 139.69C944.18 139.6 944.71 139.57 945.23 139.61C945.75 139.64 946.25 139.74 946.71 139.9C947.16 140.05 947.58 140.26 947.94 140.53C948.28 140.78 948.57 141.07 948.79 141.41L955.49 151.62C955.51 151.64 955.52 151.67 955.52 151.7C955.56 151.88 955.6 152.08 955.64 152.29C955.74 152.78 955.85 153.33 955.97 153.9C956.09 154.49 956.21 155.13 956.33 155.75L957.11 157.43C957.93 158.12 959.16 158.01 959.84 157.19C960.25 156.7 960.39 156.05 960.23 155.44L951.68 128.49L956.41 113.26C956.56 113.04 956.71 112.83 956.85 112.61C957.2 112.1 957.55 111.59 957.87 111.12C958.19 110.65 958.49 110.22 958.75 109.85L958.81 109.79L969 103.06C969.24 102.9 969.52 102.77 969.81 102.68C970.24 102.54 970.7 102.48 971.18 102.49C971.66 102.5 972.17 102.58 972.66 102.72C973.15 102.87 973.64 103.08 974.1 103.34C974.56 103.61 974.98 103.93 975.36 104.29C975.73 104.65 976.06 105.05 976.31 105.47C976.56 105.88 976.74 106.31 976.85 106.74C976.95 107.15 976.98 107.56 976.93 107.96L975.5 120.09L975.48 120.17C975.39 120.34 975.3 120.52 975.2 120.7C974.97 121.14 974.7 121.63 974.41 122.14C974.12 122.67 973.81 123.24 973.5 123.79L973.02 125.58C973.21 126.64 974.21 127.34 975.27 127.15C975.89 127.04 976.43 126.63 976.69 126.06L987.47 99.92L1000.88 91.29C1001.13 91.22 1001.39 91.15 1001.64 91.08C1002.24 90.91 1002.83 90.75 1003.38 90.6C1003.93 90.45 1004.44 90.31 1004.87 90.2L1004.95 90.19L1017.09 91.58C1017.38 91.61 1017.67 91.69 1017.96 91.8C1018.37 91.97 1018.77 92.22 1019.14 92.53C1019.51 92.85 1019.84 93.23 1020.12 93.66C1020.41 94.09 1020.64 94.56 1020.82 95.06C1021 95.56 1021.12 96.08 1021.18 96.59C1021.24 97.1 1021.23 97.62 1021.15 98.1C1021.08 98.57 1020.94 99.02 1020.75 99.42C1020.56 99.8 1020.32 100.13 1020.03 100.41L1011.14 108.79L1011.07 108.84C1010.9 108.91 1010.71 108.99 1010.51 109.06C1010.05 109.24 1009.52 109.45 1008.97 109.66C1008.41 109.88 1007.8 110.11 1007.21 110.34L1005.69 111.4C1005.15 112.33 1005.47 113.52 1006.4 114.05C1006.95 114.37 1007.62 114.4 1008.19 114.13L1033.24 101.03L1049.06 103.04C1049.3 103.15 1049.54 103.26 1049.78 103.36C1050.35 103.62 1050.91 103.87 1051.42 104.11C1051.94 104.35 1052.41 104.57 1052.82 104.76L1052.89 104.81L1061.29 113.68C1061.49 113.89 1061.67 114.14 1061.81 114.41C1062.02 114.8 1062.16 115.25 1062.24 115.73C1062.32 116.21 1062.32 116.72 1062.27 117.23C1062.21 117.74 1062.09 118.26 1061.91 118.75C1061.73 119.25 1061.49 119.72 1061.2 120.15C1060.91 120.58 1060.58 120.97 1060.21 121.29C1059.85 121.61 1059.46 121.86 1059.05 122.04C1058.66 122.21 1058.26 122.31 1057.87 122.33L1045.67 123.03L1045.59 123.02C1045.41 122.96 1045.22 122.9 1045.02 122.83C1044.55 122.67 1044.02 122.49 1043.46 122.31C1042.89 122.12 1042.28 121.91 1041.67 121.7L1039.83 121.54C1038.82 121.91 1038.3 123.02 1038.67 124.03C1038.89 124.63 1039.38 125.08 1040 125.24L1067.61 131.31L1078.44 143.02C1078.55 143.26 1078.67 143.49 1078.78 143.73C1079.05 144.29 1079.32 144.85 1079.56 145.36C1079.8 145.87 1080.03 146.35 1080.21 146.76L1080.23 146.84L1080.97 159.04C1080.99 159.33 1080.96 159.63 1080.9 159.93C1080.81 160.37 1080.63 160.8 1080.38 161.21C1080.13 161.63 1079.81 162.02 1079.44 162.37C1079.07 162.73 1078.64 163.04 1078.18 163.3C1077.72 163.56 1077.23 163.77 1076.73 163.92C1076.23 164.06 1075.73 164.15 1075.24 164.16C1074.76 164.17 1074.3 164.12 1073.87 163.99C1073.47 163.87 1073.09 163.69 1072.77 163.46L1062.98 156.15L1062.92 156.09C1062.82 155.93 1062.71 155.76 1062.6 155.58C1062.34 155.16 1062.05 154.68 1061.74 154.17C1061.43 153.65 1061.09 153.1 1060.76 152.55L1059.45 151.24C1058.44 150.87 1057.33 151.39 1056.96 152.4C1056.74 153 1056.83 153.66 1057.2 154.18L1074.45 176.58L1075.22 192.51C1075.16 192.76 1075.09 193.02 1075.03 193.27C1074.88 193.87 1074.72 194.47 1074.58 195.02C1074.44 195.57 1074.3 196.08 1074.18 196.51L1074.14 196.59L1066.86 206.41C1066.69 206.65 1066.47 206.86 1066.23 207.05C1065.88 207.32 1065.46 207.54 1065.01 207.7C1064.55 207.86 1064.05 207.95 1063.54 207.99C1063.03 208.02 1062.5 207.99 1061.98 207.9C1061.46 207.81 1060.95 207.65 1060.47 207.44C1060 207.23 1059.56 206.97 1059.17 206.66C1058.8 206.36 1058.48 206.02 1058.23 205.65C1058 205.3 1057.83 204.92 1057.73 204.54L1054.92 192.65V192.57C1054.95 192.38 1054.97 192.18 1055 191.97C1055.07 191.48 1055.16 190.92 1055.25 190.34C1055.34 189.74 1055.44 189.1 1055.54 188.47L1055.38 186.63C1054.84 185.7 1053.66 185.38 1052.73 185.92C1052.18 186.24 1051.82 186.8 1051.77 187.44L1050.58 215.69L1041.06 228.21L1040.92 228.39C1040.71 228.54 1040.49 228.7 1040.28 228.85C1039.77 229.21 1039.27 229.57 1038.81 229.9C1038.35 230.23 1037.92 230.53 1037.55 230.79L1037.47 230.82L1025.59 233.66C1025.3 233.73 1025.01 233.76 1024.7 233.74C1024.25 233.72 1023.79 233.62 1023.34 233.45C1022.89 233.28 1022.44 233.03 1022.03 232.72C1021.62 232.41 1021.23 232.05 1020.89 231.64C1020.55 231.23 1020.26 230.79 1020.03 230.32C1019.8 229.86 1019.63 229.37 1019.54 228.89C1019.45 228.42 1019.42 227.95 1019.47 227.51C1019.52 227.09 1019.63 226.69 1019.81 226.34L1025.3 215.43L1025.35 215.36C1025.49 215.23 1025.64 215.1 1025.8 214.96C1026.17 214.63 1026.59 214.26 1027.03 213.87C1027.48 213.47 1027.97 213.05 1028.45 212.63" stroke="black" stroke-miterlimit="10"/>
<path d="M1008.77 199.77C1028.94 199.77 1045.29 183.419 1045.29 163.25C1045.29 143.081 1028.94 126.73 1008.77 126.73C988.601 126.73 972.25 143.081 972.25 163.25C972.25 183.419 988.601 199.77 1008.77 199.77Z" fill="#EFEFEF" stroke="black" stroke-miterlimit="10"/>
<path d="M1008.8 181.26C1018.65 181.26 1026.64 173.273 1026.64 163.42C1026.64 153.567 1018.65 145.58 1008.8 145.58C998.947 145.58 990.96 153.567 990.96 163.42C990.96 173.273 998.947 181.26 1008.8 181.26Z" fill="#EFEFEF" stroke="black" stroke-miterlimit="10"/>
<path d="M1009.08 175.54C1015.77 175.54 1021.2 170.114 1021.2 163.42C1021.2 156.726 1015.77 151.3 1009.08 151.3C1002.39 151.3 996.96 156.726 996.96 163.42C996.96 170.114 1002.39 175.54 1009.08 175.54Z" fill="#EFEFEF" stroke="black" stroke-miterlimit="10"/>
<path d="M1003.19 164.01C1003.52 167.27 1006.42 169.64 1009.68 169.32C1012.49 169.04 1014.71 166.82 1014.99 164.01C1015.03 163.62 1015.03 163.22 1014.99 162.82C1014.66 159.56 1011.75 157.19 1008.5 157.52C1005.7 157.8 1003.48 160.02 1003.2 162.82C1003.15 163.22 1003.15 163.62 1003.19 164.01Z" fill="white" stroke="black" stroke-miterlimit="10"/>
<path d="M985.18 152.58C986.848 152.58 988.2 151.228 988.2 149.56C988.2 147.892 986.848 146.54 985.18 146.54C983.512 146.54 982.16 147.892 982.16 149.56C982.16 151.228 983.512 152.58 985.18 152.58Z" fill="white" stroke="black" stroke-miterlimit="10"/>
<path d="M1009.05 193.93C1010.72 193.93 1012.07 192.578 1012.07 190.91C1012.07 189.242 1010.72 187.89 1009.05 187.89C1007.38 187.89 1006.03 189.242 1006.03 190.91C1006.03 192.578 1007.38 193.93 1009.05 193.93Z" fill="white" stroke="black" stroke-miterlimit="10"/>
<path d="M1032.93 180.14C1034.6 180.14 1035.95 178.788 1035.95 177.12C1035.95 175.452 1034.6 174.1 1032.93 174.1C1031.26 174.1 1029.91 175.452 1029.91 177.12C1029.91 178.788 1031.26 180.14 1032.93 180.14Z" fill="white" stroke="black" stroke-miterlimit="10"/>
<path d="M1009.05 138.79C1010.72 138.79 1012.07 137.438 1012.07 135.77C1012.07 134.102 1010.72 132.75 1009.05 132.75C1007.38 132.75 1006.03 134.102 1006.03 135.77C1006.03 137.438 1007.38 138.79 1009.05 138.79Z" fill="white" stroke="black" stroke-miterlimit="10"/>
<path d="M985.18 180.14C986.848 180.14 988.2 178.788 988.2 177.12C988.2 175.452 986.848 174.1 985.18 174.1C983.512 174.1 982.16 175.452 982.16 177.12C982.16 178.788 983.512 180.14 985.18 180.14Z" fill="white" stroke="black" stroke-miterlimit="10"/>
<path d="M1032.93 152.58C1034.6 152.58 1035.95 151.228 1035.95 149.56C1035.95 147.892 1034.6 146.54 1032.93 146.54C1031.26 146.54 1029.91 147.892 1029.91 149.56C1029.91 151.228 1031.26 152.58 1032.93 152.58Z" fill="white" stroke="black" stroke-miterlimit="10"/>
<path d="M174.86 168.94L172.2 184.82C172.05 185.7 171.08 186.15 170.31 185.7L168.51 184.63C168.02 186.41 167.46 188.17 166.85 189.9L168.93 190.05C169.83 190.11 170.35 191.04 169.98 191.85L162.97 206.34C162.58 207.14 161.51 207.29 160.91 206.66L159.49 205.11C158.52 206.68 157.49 208.21 156.39 209.69L158.35 210.44C159.17 210.76 159.43 211.81 158.84 212.46L148.03 224.39C147.43 225.06 146.37 224.91 145.97 224.11L145.03 222.22C143.65 223.45 142.22 224.63 140.77 225.75L142.45 227.02C143.14 227.56 143.09 228.65 142.34 229.1L128.61 237.52C127.84 237.97 126.87 237.54 126.7 236.66L126.34 234.6C124.69 235.39 122.99 236.12 121.27 236.79L122.5 238.47C123.02 239.18 122.67 240.19 121.81 240.43L106.27 244.62C105.41 244.84 104.59 244.15 104.68 243.25L104.92 241.19C103.11 241.47 101.27 241.7 99.4201 241.84L100.15 243.8C100.45 244.62 99.81 245.5 98.93 245.48L82.83 245.12C81.95 245.1 81.35 244.2 81.71 243.38L82.51 241.45C80.66 241.21 78.84 240.91 77.05 240.53L77.18 242.62C77.24 243.5 76.39 244.17 75.55 243.89L60.2001 239.03C59.3601 238.75 59.06 237.72 59.6 237.03L60.93 235.4C59.23 234.67 57.56 233.87 55.94 233.01L55.49 235.05C55.3 235.91 54.29 236.3 53.56 235.82L40.21 226.81C39.48 226.32 39.48 225.24 40.21 224.73L41.95 223.53C40.53 222.35 39.16 221.1 37.84 219.83L36.81 221.66C36.38 222.43 35.31 222.54 34.75 221.85L24.46 209.45C23.9 208.78 24.2 207.73 25.04 207.47L27.04 206.8C26.01 205.27 25.0401 203.7 24.1401 202.09L22.66 203.57C22.02 204.19 20.96 203.98 20.6 203.18L14.24 188.39C13.9 187.57 14.46 186.67 15.36 186.63L17.44 186.57C16.9 184.81 16.43 183.04 16 181.22L14.1701 182.21C13.3801 182.62 12.43 182.14 12.32 181.26L10.3901 165.27C10.2801 164.39 11.08 163.68 11.94 163.9L14 164.42C13.98 164.08 13.98 163.73 13.98 163.39C13.98 161.87 14.02 160.38 14.11 158.88L12.05 159.31C11.19 159.5 10.4 158.75 10.55 157.87L13.19 141.99C13.34 141.11 14.31 140.66 15.08 141.11L16.88 142.18C17.37 140.4 17.93 138.65 18.54 136.92L16.46 136.75C15.58 136.69 15.04 135.76 15.41 134.95L22.4201 120.46C22.8101 119.66 23.88 119.51 24.48 120.16L25.9 121.69C26.89 120.12 27.92 118.59 29 117.11L27.04 116.36C26.22 116.04 25.96 114.99 26.55 114.34L37.36 102.41C37.96 101.76 39.02 101.9 39.42 102.69L40.36 104.6C41.73 103.35 43.17 102.17 44.62 101.05L42.96 99.7801C42.25 99.2401 42.31 98.17 43.05 97.7L56.78 89.3C57.55 88.83 58.54 89.28 58.69 90.14L59.05 92.2C60.71 91.41 62.4001 90.68 64.1401 90.01L62.91 88.33C62.37 87.62 62.72 86.61 63.58 86.38L79.12 82.17C79.98 81.95 80.8 82.66 80.71 83.54L80.47 85.6C82.28 85.32 84.12 85.11 85.97 84.95L85.26 82.99C84.94 82.17 85.58 81.29 86.46 81.31L102.56 81.67C103.44 81.69 104.04 82.59 103.68 83.41L102.88 85.3401C104.73 85.5801 106.56 85.88 108.36 86.26L108.21 84.17C108.15 83.29 109 82.6201 109.84 82.9001L125.2 87.76C126.04 88.04 126.34 89.07 125.8 89.76L124.49 91.37C126.17 92.12 127.84 92.9201 129.46 93.7801L129.91 91.74C130.1 90.88 131.11 90.49 131.84 90.97L145.2 100C145.93 100.49 145.93 101.57 145.2 102.08L143.48 103.26C144.9 104.46 146.27 105.71 147.59 106.98L148.6 105.15C149.03 104.38 150.1 104.27 150.66 104.96L160.95 117.36C161.51 118.03 161.21 119.08 160.37 119.34L158.37 120.01C159.4 121.54 160.37 123.11 161.27 124.72L162.77 123.24C163.39 122.62 164.45 122.83 164.81 123.65L171.17 138.43C171.53 139.25 170.95 140.17 170.05 140.19L167.97 140.26C168.51 142 168.98 143.78 169.39 145.59L171.24 144.6C172.03 144.19 172.98 144.67 173.09 145.57L175.02 161.54C175.13 162.42 174.33 163.13 173.47 162.91L171.41 162.39C171.43 162.73 171.43 163.08 171.43 163.42C171.43 164.93 171.39 166.43 171.3 167.93L173.36 167.5C174.22 167.31 174.99 168.06 174.86 168.94Z" fill="black"/>
<path d="M112.43 212.2L113.19 211.11C113.38 210.05 112.67 209.05 111.62 208.86C111 208.75 110.36 208.95 109.91 209.4L90.85 230.27L75.51 233.74L75.29 233.79C75.03 233.77 74.77 233.75 74.51 233.73C73.89 233.68 73.27 233.64 72.71 233.59C72.15 233.54 71.62 233.5 71.17 233.46L71.09 233.44L60.16 227.98C59.9 227.85 59.65 227.68 59.42 227.47C59.09 227.17 58.8 226.8 58.57 226.38C58.33 225.96 58.15 225.48 58.03 224.98C57.91 224.48 57.85 223.95 57.85 223.42C57.85 222.89 57.92 222.36 58.04 221.86C58.16 221.36 58.35 220.88 58.58 220.45C58.81 220.03 59.09 219.66 59.41 219.35C59.71 219.06 60.06 218.83 60.42 218.67L71.64 213.84L71.72 213.82C71.91 213.81 72.11 213.81 72.32 213.8C72.82 213.79 73.38 213.77 73.96 213.76C74.56 213.75 75.21 213.74 75.85 213.72L76.36 213.58L77.64 213.24C78.46 212.55 78.57 211.33 77.88 210.51C77.47 210.02 76.85 209.77 76.22 209.82L48.2 213.56L34.02 206.26C33.83 206.08 33.64 205.89 33.46 205.71C33.01 205.27 32.57 204.84 32.17 204.45C31.77 204.05 31.39 203.68 31.08 203.36L31.03 203.29L26.17 192.08C26.05 191.81 25.97 191.52 25.93 191.22C25.87 190.78 25.89 190.31 25.98 189.84C26.07 189.36 26.24 188.88 26.47 188.42C26.7 187.96 26.99 187.52 27.33 187.11C27.67 186.71 28.06 186.34 28.48 186.03C28.9 185.72 29.35 185.47 29.8 185.3C30.25 185.13 30.7 185.02 31.15 184.99C31.57 184.96 31.98 185 32.36 185.12L44.06 188.64L44.13 188.68C44.28 188.8 44.44 188.92 44.6 189.05C44.99 189.36 45.43 189.71 45.89 190.08C46.36 190.46 46.86 190.87 47.36 191.27L49.04 192.05C50.11 192.05 50.98 191.18 50.98 190.11C50.98 189.48 50.67 188.88 50.15 188.52L26.28 173.37L20.11 158.66C20.08 158.4 20.06 158.14 20.03 157.88C19.97 157.26 19.91 156.65 19.86 156.08C19.81 155.52 19.76 154.99 19.72 154.54L19.73 154.46L23.21 142.75C23.29 142.47 23.42 142.2 23.58 141.94C23.82 141.56 24.13 141.21 24.51 140.91C24.89 140.6 25.32 140.34 25.79 140.14C26.26 139.93 26.77 139.78 27.29 139.69C27.81 139.6 28.34 139.57 28.86 139.61C29.38 139.64 29.88 139.74 30.34 139.9C30.79 140.05 31.21 140.26 31.57 140.53C31.91 140.78 32.2 141.07 32.42 141.41L39.12 151.62C39.14 151.64 39.15 151.67 39.15 151.7C39.19 151.88 39.23 152.08 39.27 152.29C39.37 152.78 39.48 153.33 39.6 153.9C39.72 154.49 39.84 155.13 39.96 155.75L40.74 157.43C41.56 158.12 42.79 158.01 43.47 157.19C43.88 156.7 44.02 156.05 43.86 155.44L35.31 128.49L40.04 113.26C40.19 113.04 40.34 112.83 40.48 112.61C40.83 112.1 41.18 111.59 41.5 111.12C41.82 110.65 42.12 110.22 42.38 109.85L42.44 109.79L52.63 103.06C52.87 102.9 53.15 102.77 53.44 102.68C53.87 102.54 54.33 102.48 54.81 102.49C55.29 102.5 55.8 102.58 56.29 102.72C56.78 102.87 57.27 103.08 57.73 103.34C58.19 103.61 58.61 103.93 58.99 104.29C59.36 104.65 59.69 105.05 59.94 105.47C60.19 105.88 60.37 106.31 60.48 106.74C60.58 107.15 60.61 107.56 60.56 107.96L59.13 120.09L59.11 120.17C59.02 120.34 58.93 120.52 58.83 120.7C58.6 121.14 58.33 121.63 58.04 122.14C57.75 122.67 57.44 123.24 57.13 123.79L56.65 125.58C56.84 126.64 57.84 127.34 58.9 127.15C59.52 127.04 60.06 126.63 60.32 126.06L71.1 99.92L84.51 91.29C84.76 91.22 85.02 91.15 85.27 91.08C85.87 90.91 86.46 90.75 87.01 90.6C87.56 90.45 88.07 90.31 88.5 90.2L88.58 90.19L100.72 91.58C101.01 91.61 101.3 91.69 101.59 91.8C102 91.97 102.4 92.22 102.77 92.53C103.14 92.85 103.47 93.23 103.75 93.66C104.03 94.09 104.27 94.56 104.45 95.06C104.63 95.56 104.75 96.08 104.81 96.59C104.87 97.1 104.86 97.62 104.78 98.1C104.71 98.57 104.57 99.02 104.38 99.42C104.19 99.8 103.95 100.13 103.66 100.41L94.77 108.79L94.7 108.84C94.53 108.91 94.34 108.99 94.14 109.06C93.68 109.24 93.15 109.45 92.6 109.66C92.04 109.88 91.43 110.11 90.84 110.34L89.32 111.4C88.78 112.33 89.1 113.52 90.03 114.05C90.58 114.37 91.25 114.4 91.82 114.13L116.87 101.03L132.69 103.04C132.93 103.15 133.17 103.26 133.41 103.36C133.98 103.62 134.54 103.87 135.05 104.11C135.57 104.35 136.04 104.57 136.45 104.76L136.52 104.81L144.92 113.68C145.12 113.89 145.3 114.14 145.44 114.41C145.65 114.8 145.79 115.25 145.87 115.73C145.95 116.21 145.95 116.72 145.9 117.23C145.84 117.74 145.72 118.26 145.54 118.75C145.36 119.25 145.12 119.72 144.83 120.15C144.54 120.58 144.21 120.97 143.84 121.29C143.48 121.61 143.09 121.86 142.68 122.04C142.29 122.21 141.89 122.31 141.5 122.33L129.3 123.03L129.22 123.02C129.04 122.96 128.85 122.9 128.65 122.83C128.18 122.67 127.65 122.49 127.09 122.31C126.52 122.12 125.91 121.91 125.3 121.7L123.46 121.54C122.45 121.91 121.93 123.02 122.3 124.03C122.52 124.63 123.01 125.08 123.63 125.24L151.24 131.31L162.07 143.02C162.18 143.26 162.3 143.49 162.41 143.73C162.68 144.29 162.95 144.85 163.19 145.36C163.43 145.87 163.66 146.35 163.84 146.76L163.86 146.84L164.6 159.04C164.62 159.33 164.59 159.63 164.53 159.93C164.44 160.37 164.26 160.8 164.01 161.21C163.76 161.63 163.44 162.02 163.07 162.37C162.7 162.73 162.27 163.04 161.81 163.3C161.35 163.56 160.86 163.77 160.36 163.92C159.86 164.06 159.36 164.15 158.87 164.16C158.39 164.17 157.93 164.12 157.5 163.99C157.1 163.87 156.72 163.69 156.4 163.46L146.61 156.15L146.55 156.09C146.45 155.93 146.34 155.76 146.23 155.58C145.97 155.16 145.68 154.68 145.37 154.17C145.06 153.65 144.72 153.1 144.39 152.55L143.08 151.24C142.07 150.87 140.96 151.39 140.59 152.4C140.37 153 140.46 153.66 140.83 154.18L158.08 176.58L158.85 192.51C158.79 192.76 158.72 193.02 158.66 193.27C158.51 193.87 158.35 194.47 158.21 195.02C158.07 195.57 157.93 196.08 157.81 196.51L157.77 196.59L150.49 206.41C150.32 206.65 150.1 206.86 149.86 207.05C149.51 207.32 149.09 207.54 148.64 207.7C148.18 207.86 147.68 207.95 147.17 207.99C146.66 208.02 146.13 207.99 145.61 207.9C145.09 207.81 144.58 207.65 144.1 207.44C143.63 207.23 143.19 206.97 142.8 206.66C142.43 206.36 142.11 206.02 141.86 205.65C141.63 205.3 141.46 204.92 141.36 204.54L138.55 192.65V192.57C138.58 192.38 138.6 192.18 138.63 191.97C138.7 191.48 138.79 190.92 138.88 190.34C138.97 189.74 139.07 189.1 139.17 188.47L139.01 186.63C138.47 185.7 137.29 185.38 136.36 185.92C135.81 186.24 135.45 186.8 135.4 187.44L134.21 215.69L124.69 228.21L124.55 228.39C124.34 228.54 124.12 228.7 123.91 228.85C123.4 229.21 122.9 229.57 122.44 229.9C121.98 230.23 121.55 230.53 121.18 230.79L121.1 230.82L109.22 233.66C108.93 233.73 108.64 233.76 108.33 233.74C107.88 233.72 107.42 233.62 106.97 233.45C106.52 233.28 106.07 233.03 105.66 232.72C105.25 232.41 104.86 232.05 104.52 231.64C104.18 231.23 103.89 230.79 103.66 230.32C103.43 229.86 103.26 229.37 103.17 228.89C103.08 228.42 103.05 227.95 103.1 227.51C103.15 227.09 103.26 226.69 103.44 226.34L108.93 215.43L108.98 215.36C109.12 215.23 109.27 215.1 109.43 214.96C109.8 214.63 110.22 214.26 110.66 213.87C111.11 213.47 111.6 213.05 112.08 212.63" fill="#EFEFEF"/>
<path d="M112.43 212.2L113.19 211.11C113.38 210.05 112.67 209.05 111.62 208.86C111 208.75 110.36 208.95 109.91 209.4L90.85 230.27L75.51 233.74L75.29 233.79C75.03 233.77 74.77 233.75 74.51 233.73C73.89 233.68 73.27 233.64 72.71 233.59C72.15 233.54 71.62 233.5 71.17 233.46L71.09 233.44L60.16 227.98C59.9 227.85 59.65 227.68 59.42 227.47C59.09 227.17 58.8 226.8 58.57 226.38C58.33 225.96 58.15 225.48 58.03 224.98C57.91 224.48 57.85 223.95 57.85 223.42C57.85 222.89 57.92 222.36 58.04 221.86C58.16 221.36 58.35 220.88 58.58 220.45C58.81 220.03 59.09 219.66 59.41 219.35C59.71 219.06 60.06 218.83 60.42 218.67L71.64 213.84L71.72 213.82C71.91 213.81 72.11 213.81 72.32 213.8C72.82 213.79 73.38 213.77 73.96 213.76C74.56 213.75 75.21 213.74 75.85 213.72L76.36 213.58L77.64 213.24C78.46 212.55 78.57 211.33 77.88 210.51C77.47 210.02 76.85 209.77 76.22 209.82L48.2 213.56L34.02 206.26C33.83 206.08 33.64 205.89 33.46 205.71C33.01 205.27 32.57 204.84 32.17 204.45C31.77 204.05 31.39 203.68 31.08 203.36L31.03 203.29L26.17 192.08C26.05 191.81 25.97 191.52 25.93 191.22C25.87 190.78 25.89 190.31 25.98 189.84C26.07 189.36 26.24 188.88 26.47 188.42C26.7 187.96 26.99 187.52 27.33 187.11C27.67 186.71 28.06 186.34 28.48 186.03C28.9 185.72 29.35 185.47 29.8 185.3C30.25 185.13 30.7 185.02 31.15 184.99C31.57 184.96 31.98 185 32.36 185.12L44.06 188.64L44.13 188.68C44.28 188.8 44.44 188.92 44.6 189.05C44.99 189.36 45.43 189.71 45.89 190.08C46.36 190.46 46.86 190.87 47.36 191.27L49.04 192.05C50.11 192.05 50.98 191.18 50.98 190.11C50.98 189.48 50.67 188.88 50.15 188.52L26.28 173.37L20.11 158.66C20.08 158.4 20.06 158.14 20.03 157.88C19.97 157.26 19.91 156.65 19.86 156.08C19.81 155.52 19.76 154.99 19.72 154.54L19.73 154.46L23.21 142.75C23.29 142.47 23.42 142.2 23.58 141.94C23.82 141.56 24.13 141.21 24.51 140.91C24.89 140.6 25.32 140.34 25.79 140.14C26.26 139.93 26.77 139.78 27.29 139.69C27.81 139.6 28.34 139.57 28.86 139.61C29.38 139.64 29.88 139.74 30.34 139.9C30.79 140.05 31.21 140.26 31.57 140.53C31.91 140.78 32.2 141.07 32.42 141.41L39.12 151.62C39.14 151.64 39.15 151.67 39.15 151.7C39.19 151.88 39.23 152.08 39.27 152.29C39.37 152.78 39.48 153.33 39.6 153.9C39.72 154.49 39.84 155.13 39.96 155.75L40.74 157.43C41.56 158.12 42.79 158.01 43.47 157.19C43.88 156.7 44.02 156.05 43.86 155.44L35.31 128.49L40.04 113.26C40.19 113.04 40.34 112.83 40.48 112.61C40.83 112.1 41.18 111.59 41.5 111.12C41.82 110.65 42.12 110.22 42.38 109.85L42.44 109.79L52.63 103.06C52.87 102.9 53.15 102.77 53.44 102.68C53.87 102.54 54.33 102.48 54.81 102.49C55.29 102.5 55.8 102.58 56.29 102.72C56.78 102.87 57.27 103.08 57.73 103.34C58.19 103.61 58.61 103.93 58.99 104.29C59.36 104.65 59.69 105.05 59.94 105.47C60.19 105.88 60.37 106.31 60.48 106.74C60.58 107.15 60.61 107.56 60.56 107.96L59.13 120.09L59.11 120.17C59.02 120.34 58.93 120.52 58.83 120.7C58.6 121.14 58.33 121.63 58.04 122.14C57.75 122.67 57.44 123.24 57.13 123.79L56.65 125.58C56.84 126.64 57.84 127.34 58.9 127.15C59.52 127.04 60.06 126.63 60.32 126.06L71.1 99.92L84.51 91.29C84.76 91.22 85.02 91.15 85.27 91.08C85.87 90.91 86.46 90.75 87.01 90.6C87.56 90.45 88.07 90.31 88.5 90.2L88.58 90.19L100.72 91.58C101.01 91.61 101.3 91.69 101.59 91.8C102 91.97 102.4 92.22 102.77 92.53C103.14 92.85 103.47 93.23 103.75 93.66C104.03 94.09 104.27 94.56 104.45 95.06C104.63 95.56 104.75 96.08 104.81 96.59C104.87 97.1 104.86 97.62 104.78 98.1C104.71 98.57 104.57 99.02 104.38 99.42C104.19 99.8 103.95 100.13 103.66 100.41L94.77 108.79L94.7 108.84C94.53 108.91 94.34 108.99 94.14 109.06C93.68 109.24 93.15 109.45 92.6 109.66C92.04 109.88 91.43 110.11 90.84 110.34L89.32 111.4C88.78 112.33 89.1 113.52 90.03 114.05C90.58 114.37 91.25 114.4 91.82 114.13L116.87 101.03L132.69 103.04C132.93 103.15 133.17 103.26 133.41 103.36C133.98 103.62 134.54 103.87 135.05 104.11C135.57 104.35 136.04 104.57 136.45 104.76L136.52 104.81L144.92 113.68C145.12 113.89 145.3 114.14 145.44 114.41C145.65 114.8 145.79 115.25 145.87 115.73C145.95 116.21 145.95 116.72 145.9 117.23C145.84 117.74 145.72 118.26 145.54 118.75C145.36 119.25 145.12 119.72 144.83 120.15C144.54 120.58 144.21 120.97 143.84 121.29C143.48 121.61 143.09 121.86 142.68 122.04C142.29 122.21 141.89 122.31 141.5 122.33L129.3 123.03L129.22 123.02C129.04 122.96 128.85 122.9 128.65 122.83C128.18 122.67 127.65 122.49 127.09 122.31C126.52 122.12 125.91 121.91 125.3 121.7L123.46 121.54C122.45 121.91 121.93 123.02 122.3 124.03C122.52 124.63 123.01 125.08 123.63 125.24L151.24 131.31L162.07 143.02C162.18 143.26 162.3 143.49 162.41 143.73C162.68 144.29 162.95 144.85 163.19 145.36C163.43 145.87 163.66 146.35 163.84 146.76L163.86 146.84L164.6 159.04C164.62 159.33 164.59 159.63 164.53 159.93C164.44 160.37 164.26 160.8 164.01 161.21C163.76 161.63 163.44 162.02 163.07 162.37C162.7 162.73 162.27 163.04 161.81 163.3C161.35 163.56 160.86 163.77 160.36 163.92C159.86 164.06 159.36 164.15 158.87 164.16C158.39 164.17 157.93 164.12 157.5 163.99C157.1 163.87 156.72 163.69 156.4 163.46L146.61 156.15L146.55 156.09C146.45 155.93 146.34 155.76 146.23 155.58C145.97 155.16 145.68 154.68 145.37 154.17C145.06 153.65 144.72 153.1 144.39 152.55L143.08 151.24C142.07 150.87 140.96 151.39 140.59 152.4C140.37 153 140.46 153.66 140.83 154.18L158.08 176.58L158.85 192.51C158.79 192.76 158.72 193.02 158.66 193.27C158.51 193.87 158.35 194.47 158.21 195.02C158.07 195.57 157.93 196.08 157.81 196.51L157.77 196.59L150.49 206.41C150.32 206.65 150.1 206.86 149.86 207.05C149.51 207.32 149.09 207.54 148.64 207.7C148.18 207.86 147.68 207.95 147.17 207.99C146.66 208.02 146.13 207.99 145.61 207.9C145.09 207.81 144.58 207.65 144.1 207.44C143.63 207.23 143.19 206.97 142.8 206.66C142.43 206.36 142.11 206.02 141.86 205.65C141.63 205.3 141.46 204.92 141.36 204.54L138.55 192.65V192.57C138.58 192.38 138.6 192.18 138.63 191.97C138.7 191.48 138.79 190.92 138.88 190.34C138.97 189.74 139.07 189.1 139.17 188.47L139.01 186.63C138.47 185.7 137.29 185.38 136.36 185.92C135.81 186.24 135.45 186.8 135.4 187.44L134.21 215.69L124.69 228.21L124.55 228.39C124.34 228.54 124.12 228.7 123.91 228.85C123.4 229.21 122.9 229.57 122.44 229.9C121.98 230.23 121.55 230.53 121.18 230.79L121.1 230.82L109.22 233.66C108.93 233.73 108.64 233.76 108.33 233.74C107.88 233.72 107.42 233.62 106.97 233.45C106.52 233.28 106.07 233.03 105.66 232.72C105.25 232.41 104.86 232.05 104.52 231.64C104.18 231.23 103.89 230.79 103.66 230.32C103.43 229.86 103.26 229.37 103.17 228.89C103.08 228.42 103.05 227.95 103.1 227.51C103.15 227.09 103.26 226.69 103.44 226.34L108.93 215.43L108.98 215.36C109.12 215.23 109.27 215.1 109.43 214.96C109.8 214.63 110.22 214.26 110.66 213.87C111.11 213.47 111.6 213.05 112.08 212.63" stroke="black" stroke-miterlimit="10"/>
<path d="M92.4001 199.77C112.57 199.77 128.92 183.419 128.92 163.25C128.92 143.081 112.57 126.73 92.4001 126.73C72.2307 126.73 55.8801 143.081 55.8801 163.25C55.8801 183.419 72.2307 199.77 92.4001 199.77Z" fill="#EFEFEF" stroke="black" stroke-miterlimit="10"/>
<path d="M92.4301 181.26C102.283 181.26 110.27 173.273 110.27 163.42C110.27 153.567 102.283 145.58 92.4301 145.58C82.5773 145.58 74.5901 153.567 74.5901 163.42C74.5901 173.273 82.5773 181.26 92.4301 181.26Z" fill="#EFEFEF" stroke="black" stroke-miterlimit="10"/>
<path d="M92.7101 175.54C99.4038 175.54 104.83 170.114 104.83 163.42C104.83 156.726 99.4038 151.3 92.7101 151.3C86.0164 151.3 80.5901 156.726 80.5901 163.42C80.5901 170.114 86.0164 175.54 92.7101 175.54Z" fill="#EFEFEF" stroke="black" stroke-miterlimit="10"/>
<path d="M86.8101 164.01C87.1401 167.27 90.0401 169.64 93.3001 169.32C96.1101 169.04 98.3301 166.82 98.6101 164.01C98.6501 163.62 98.6501 163.22 98.6101 162.82C98.2801 159.56 95.3701 157.19 92.1201 157.52C89.3201 157.8 87.1001 160.02 86.8201 162.82C86.7701 163.22 86.7701 163.62 86.8101 164.01Z" fill="white" stroke="black" stroke-miterlimit="10"/>
<path d="M68.8 152.58C70.4679 152.58 71.82 151.228 71.82 149.56C71.82 147.892 70.4679 146.54 68.8 146.54C67.1321 146.54 65.78 147.892 65.78 149.56C65.78 151.228 67.1321 152.58 68.8 152.58Z" fill="white" stroke="black" stroke-miterlimit="10"/>
<path d="M92.6801 193.93C94.348 193.93 95.7002 192.578 95.7002 190.91C95.7002 189.242 94.348 187.89 92.6801 187.89C91.0122 187.89 89.6602 189.242 89.6602 190.91C89.6602 192.578 91.0122 193.93 92.6801 193.93Z" fill="white" stroke="black" stroke-miterlimit="10"/>
<path d="M116.55 180.14C118.218 180.14 119.57 178.788 119.57 177.12C119.57 175.452 118.218 174.1 116.55 174.1C114.882 174.1 113.53 175.452 113.53 177.12C113.53 178.788 114.882 180.14 116.55 180.14Z" fill="white" stroke="black" stroke-miterlimit="10"/>
<path d="M92.6801 138.79C94.348 138.79 95.7002 137.438 95.7002 135.77C95.7002 134.102 94.348 132.75 92.6801 132.75C91.0122 132.75 89.6602 134.102 89.6602 135.77C89.6602 137.438 91.0122 138.79 92.6801 138.79Z" fill="white" stroke="black" stroke-miterlimit="10"/>
<path d="M68.8 180.14C70.4679 180.14 71.82 178.788 71.82 177.12C71.82 175.452 70.4679 174.1 68.8 174.1C67.1321 174.1 65.78 175.452 65.78 177.12C65.78 178.788 67.1321 180.14 68.8 180.14Z" fill="white" stroke="black" stroke-miterlimit="10"/>
<path d="M116.55 152.58C118.218 152.58 119.57 151.228 119.57 149.56C119.57 147.892 118.218 146.54 116.55 146.54C114.882 146.54 113.53 147.892 113.53 149.56C113.53 151.228 114.882 152.58 116.55 152.58Z" fill="white" stroke="black" stroke-miterlimit="10"/>
<path d="M286.44 180.04H606.3C609.97 180.04 612.95 177.06 612.95 173.39C612.95 169.72 609.97 166.74 606.3 166.74H286.44C282.77 166.74 279.79 169.72 279.79 173.39C279.79 177.06 282.77 180.04 286.44 180.04Z" fill="#EFEFEF" stroke="black" stroke-miterlimit="10"/>
<path d="M71.7 43.97C70.33 43.97 69.01 44.38 67.88 45.17L49.18 58.26L42.37 63.03L3.52002 90.22L1.54004 91.62L3.45004 94.33L5.43002 92.95L44.28 65.76L51.09 60.99L69.79 47.9C70.35 47.51 71.01 47.28 71.7 47.28V54.31C71.7 55.43 73.42 56.48 76.17 56.98L161.49 73.1L175.95 75.83L225.89 85.27V105.23C225.89 107.42 226.77 109.53 228.32 111.1L265 147.78C266.55 149.33 268.67 150.21 270.87 150.21H559C561.21 150.21 563.32 151.09 564.87 152.64L581.98 169.75L593.24 181.01C594.79 182.56 596.91 183.44 599.11 183.44H990.05C992.26 183.44 994.37 182.56 995.92 181.01L1024.29 152.64C1025.84 151.09 1026.72 148.97 1026.72 146.77V43.97H71.7ZM985.19 163.18H610.79C608.51 163.18 606.64 161.31 606.64 159.03C606.64 156.73 608.51 154.88 610.79 154.88H985.2C987.48 154.88 989.35 156.73 989.35 159.03C989.35 161.31 987.48 163.18 985.19 163.18ZM985.19 146.55H591C588.7 146.55 586.83 144.7 586.83 142.4C586.83 140.12 588.7 138.25 591 138.25H985.19C987.47 138.25 989.34 140.12 989.34 142.4C989.35 144.7 987.48 146.55 985.19 146.55ZM985.19 129.94H571.19C568.89 129.94 567.04 128.07 567.04 125.79C567.04 123.49 568.89 121.64 571.19 121.64H985.19C987.47 121.64 989.34 123.49 989.34 125.79C989.35 128.07 987.48 129.94 985.19 129.94ZM985.19 113.31H551.39C549.09 113.31 547.24 111.46 547.24 109.16C547.24 106.88 549.09 105.01 551.39 105.01H985.2C987.48 105.01 989.35 106.88 989.35 109.16C989.35 111.46 987.48 113.31 985.19 113.31Z" fill="#EFEFEF" stroke="black" stroke-miterlimit="10"/>
<path d="M133.79 38.98V26.51V18.2V5.73999H964.63V18.2V26.51V38.98H133.79Z" fill="#D8D8D8" stroke="black" stroke-miterlimit="10"/>
<path d="M964.63 0.76001L978.87 9.31L993.83 18.28C996.33 19.78 997.86 22.49 997.86 25.4V43.96H992.87H931.39V5.73999V0.75H964.63V0.76001Z" fill="#A5A5A5" stroke="black" stroke-miterlimit="10"/>
<path d="M119.55 9.29999L133.79 0.75H167.02V5.73999V43.96H105.54H100.55V25.4C100.55 22.48 102.08 19.78 104.58 18.28L119.55 9.29999Z" fill="#A5A5A5" stroke="black" stroke-miterlimit="10"/>
<path d="M156.47 26.68C158.397 26.68 159.96 25.1175 159.96 23.19C159.96 21.2625 158.397 19.7 156.47 19.7C154.542 19.7 152.98 21.2625 152.98 23.19C152.98 25.1175 154.542 26.68 156.47 26.68Z" fill="#EFEFEF" stroke="black" stroke-miterlimit="10"/>
<path d="M941.96 26.68C943.887 26.68 945.45 25.1175 945.45 23.19C945.45 21.2625 943.887 19.7 941.96 19.7C940.032 19.7 938.47 21.2625 938.47 23.19C938.47 25.1175 940.032 26.68 941.96 26.68Z" fill="#EFEFEF" stroke="black" stroke-miterlimit="10"/>
<path d="M1063.24 5.46995C1063.09 5.61995 1062.94 5.76996 1062.79 5.91996C1062.64 6.06996 1062.49 6.21997 1062.34 6.36997C1062.16 6.54997 1061.98 6.72995 1061.8 6.90995C1061.61 7.09995 1061.41 7.29997 1061.22 7.48997C1061.03 7.67997 1060.84 7.86998 1060.65 8.05998C1060.48 8.22998 1060.3 8.41 1060.13 8.58C1059.99 8.72 1059.85 8.85998 1059.71 8.99998C1059.62 9.08998 1059.53 9.18001 1059.43 9.28001L1059.34 9.36997L1059.5 9.53001L1059.61 9.63999C1059.61 9.63999 1059.7 9.72997 1059.71 9.73997L1059.92 9.94999L1059.33 10.54C1058.68 11.19 1058.68 12.24 1059.33 12.89L1063.44 17L1052.35 28.09V29.26L1086.42 63.33H1087.6L1098.69 52.24L1102.8 56.35C1103.45 57 1104.5 57 1105.15 56.35L1105.74 55.76L1105.95 55.97L1106.04 56.06L1106.15 56.17L1106.31 56.33L1110.21 52.43C1110.27 52.37 1110.33 52.3 1110.43 52.16C1110.46 52.12 1110.48 52.08 1110.5 52.03C1110.57 51.9 1110.62 51.76 1110.66 51.62C1110.68 51.55 1110.69 51.47 1110.7 51.4C1110.71 51.34 1110.7 51.27 1110.71 51.22C1110.74 51 1110.37 50.73 1110.37 50.73L1110.51 50.47C1107.9 45.67 1104.94 41.06 1101.66 36.69L1102.02 36.33C1101.72 35.93 1101.41 35.53 1101.11 35.13L1097.84 31.86C1093.59 26.79 1088.9 22.1 1083.82 17.84L1080.55 14.57C1080.15 14.26 1079.75 13.96 1079.35 13.66L1078.99 14.02C1074.62 10.74 1070.01 7.77996 1065.21 5.16996C1065.13 5.11996 1065.04 5.08997 1064.93 5.04997C1064.91 5.03997 1064.87 5.02999 1064.77 5.00999C1064.39 4.92999 1063.98 4.99999 1063.6 5.19999C1063.54 5.21999 1063.34 5.38996 1063.38 5.34996C1063.33 5.38996 1063.29 5.42995 1063.24 5.46995Z" fill="#D8D8D8" stroke="black" stroke-miterlimit="10"/>
<g opacity="0.7">
<mask id="mask0_2_1161" style="mask-type:luminance" maskUnits="userSpaceOnUse" x="1" y="43" width="1026" height="141">
<path d="M71.7 43.97C70.33 43.97 69.01 44.38 67.88 45.17L49.18 58.26L42.37 63.03L3.52002 90.22L1.54004 91.62L3.45004 94.33L5.43002 92.95L44.28 65.76L51.09 60.99L69.79 47.9C70.35 47.51 71.01 47.28 71.7 47.28V54.31C71.7 55.43 73.42 56.48 76.17 56.98L161.49 73.1L175.95 75.83L225.89 85.27V105.23C225.89 107.42 226.77 109.53 228.32 111.1L265 147.78C266.55 149.33 268.67 150.21 270.87 150.21H559C561.21 150.21 563.32 151.09 564.87 152.64L581.98 169.75L593.24 181.01C594.79 182.56 596.91 183.44 599.11 183.44H990.05C992.26 183.44 994.37 182.56 995.92 181.01L1024.29 152.64C1025.84 151.09 1026.72 148.97 1026.72 146.77V43.97H71.7ZM985.19 163.18H610.79C608.51 163.18 606.64 161.31 606.64 159.03C606.64 156.73 608.51 154.88 610.79 154.88H985.2C987.48 154.88 989.35 156.73 989.35 159.03C989.35 161.31 987.48 163.18 985.19 163.18ZM985.19 146.55H591C588.7 146.55 586.83 144.7 586.83 142.4C586.83 140.12 588.7 138.25 591 138.25H985.19C987.47 138.25 989.34 140.12 989.34 142.4C989.35 144.7 987.48 146.55 985.19 146.55ZM985.19 129.94H571.19C568.89 129.94 567.04 128.07 567.04 125.79C567.04 123.49 568.89 121.64 571.19 121.64H985.19C987.47 121.64 989.34 123.49 989.34 125.79C989.35 128.07 987.48 129.94 985.19 129.94ZM985.19 113.31H551.39C549.09 113.31 547.24 111.46 547.24 109.16C547.24 106.88 549.09 105.01 551.39 105.01H985.2C987.48 105.01 989.35 106.88 989.35 109.16C989.35 111.46 987.48 113.31 985.19 113.31Z" fill="white"/>
</mask>
<g mask="url(#mask0_2_1161)">
<path d="M-16.3201 27.47L44.5199 210.17" stroke="black" stroke-width="0.5" stroke-miterlimit="10"/>
<path d="M-11.0801 27.48L49.7699 210.18" stroke="black" stroke-width="0.5" stroke-miterlimit="10"/>
<path d="M-5.83008 27.49L55.0099 210.2" stroke="black" stroke-width="0.5" stroke-miterlimit="10"/>
<path d="M-0.590088 27.51L60.2499 210.21" stroke="black" stroke-width="0.5" stroke-miterlimit="10"/>
<path d="M4.6499 27.52L65.4899 210.22" stroke="black" stroke-width="0.5" stroke-miterlimit="10"/>
<path d="M9.88989 27.53L70.7299 210.23" stroke="black" stroke-width="0.5" stroke-miterlimit="10"/>
<path d="M15.1299 27.54L75.9799 210.25" stroke="black" stroke-width="0.5" stroke-miterlimit="10"/>
<path d="M20.3799 27.56L81.2199 210.26" stroke="black" stroke-width="0.5" stroke-miterlimit="10"/>
<path d="M25.6199 27.57L86.4599 210.27" stroke="black" stroke-width="0.5" stroke-miterlimit="10"/>
<path d="M30.8599 27.58L91.6999 210.28" stroke="black" stroke-width="0.5" stroke-miterlimit="10"/>
<path d="M36.0999 27.59L96.9398 210.3" stroke="black" stroke-width="0.5" stroke-miterlimit="10"/>
<path d="M41.3499 27.61L102.19 210.31" stroke="black" stroke-width="0.5" stroke-miterlimit="10"/>
<path d="M46.5898 27.62L107.43 210.32" stroke="black" stroke-width="0.5" stroke-miterlimit="10"/>
<path d="M51.8298 27.63L112.67 210.33" stroke="black" stroke-width="0.5" stroke-miterlimit="10"/>
<path d="M57.0698 27.65L117.91 210.35" stroke="black" stroke-width="0.5" stroke-miterlimit="10"/>
<path d="M62.3101 27.66L123.15 210.36" stroke="black" stroke-width="0.5" stroke-miterlimit="10"/>
<path d="M67.5601 27.67L128.4 210.37" stroke="black" stroke-width="0.5" stroke-miterlimit="10"/>
<path d="M72.7998 27.68L133.64 210.38" stroke="black" stroke-width="0.5" stroke-miterlimit="10"/>
<path d="M78.04 27.7L138.88 210.4" stroke="black" stroke-width="0.5" stroke-miterlimit="10"/>
<path d="M83.28 27.71L144.12 210.41" stroke="black" stroke-width="0.5" stroke-miterlimit="10"/>
<path d="M88.52 27.72L149.36 210.42" stroke="black" stroke-width="0.5" stroke-miterlimit="10"/>
<path d="M93.77 27.73L154.61 210.43" stroke="black" stroke-width="0.5" stroke-miterlimit="10"/>
<path d="M99.01 27.75L159.85 210.45" stroke="black" stroke-width="0.5" stroke-miterlimit="10"/>
<path d="M104.25 27.76L165.09 210.46" stroke="black" stroke-width="0.5" stroke-miterlimit="10"/>
<path d="M109.49 27.77L170.33 210.47" stroke="black" stroke-width="0.5" stroke-miterlimit="10"/>
<path d="M114.73 27.78L175.57 210.48" stroke="black" stroke-width="0.5" stroke-miterlimit="10"/>
<path d="M119.98 27.8L180.82 210.5" stroke="black" stroke-width="0.5" stroke-miterlimit="10"/>
<path d="M125.22 27.81L186.06 210.51" stroke="black" stroke-width="0.5" stroke-miterlimit="10"/>
<path d="M130.46 27.82L191.3 210.52" stroke="black" stroke-width="0.5" stroke-miterlimit="10"/>
<path d="M135.7 27.83L196.54 210.54" stroke="black" stroke-width="0.5" stroke-miterlimit="10"/>
<path d="M140.94 27.85L201.78 210.55" stroke="black" stroke-width="0.5" stroke-miterlimit="10"/>
<path d="M146.19 27.86L207.03 210.56" stroke="black" stroke-width="0.5" stroke-miterlimit="10"/>
<path d="M151.43 27.87L212.27 210.57" stroke="black" stroke-width="0.5" stroke-miterlimit="10"/>
<path d="M156.67 27.88L217.51 210.59" stroke="black" stroke-width="0.5" stroke-miterlimit="10"/>
<path d="M161.91 27.9L222.75 210.6" stroke="black" stroke-width="0.5" stroke-miterlimit="10"/>
<path d="M167.15 27.91L227.99 210.61" stroke="black" stroke-width="0.5" stroke-miterlimit="10"/>
<path d="M172.4 27.92L233.24 210.62" stroke="black" stroke-width="0.5" stroke-miterlimit="10"/>
<path d="M177.64 27.93L238.48 210.64" stroke="black" stroke-width="0.5" stroke-miterlimit="10"/>
<path d="M182.88 27.95L243.72 210.65" stroke="black" stroke-width="0.5" stroke-miterlimit="10"/>
<path d="M188.12 27.96L248.96 210.66" stroke="black" stroke-width="0.5" stroke-miterlimit="10"/>
<path d="M193.36 27.97L254.21 210.67" stroke="black" stroke-width="0.5" stroke-miterlimit="10"/>
<path d="M198.61 27.98L259.45 210.69" stroke="black" stroke-width="0.5" stroke-miterlimit="10"/>
<path d="M203.85 28L264.69 210.7" stroke="black" stroke-width="0.5" stroke-miterlimit="10"/>
<path d="M209.09 28.01L269.93 210.71" stroke="black" stroke-width="0.5" stroke-miterlimit="10"/>
<path d="M214.33 28.02L275.17 210.72" stroke="black" stroke-width="0.5" stroke-miterlimit="10"/>
<path d="M219.57 28.03L280.42 210.74" stroke="black" stroke-width="0.5" stroke-miterlimit="10"/>
<path d="M224.82 28.05L285.66 210.75" stroke="black" stroke-width="0.5" stroke-miterlimit="10"/>
<path d="M230.06 28.06L290.9 210.76" stroke="black" stroke-width="0.5" stroke-miterlimit="10"/>
<path d="M235.3 28.07L296.14 210.77" stroke="black" stroke-width="0.5" stroke-miterlimit="10"/>
<path d="M240.54 28.09L301.38 210.79" stroke="black" stroke-width="0.5" stroke-miterlimit="10"/>
<path d="M245.78 28.1L306.63 210.8" stroke="black" stroke-width="0.5" stroke-miterlimit="10"/>
<path d="M251.03 28.11L311.87 210.81" stroke="black" stroke-width="0.5" stroke-miterlimit="10"/>
<path d="M256.27 28.12L317.11 210.82" stroke="black" stroke-width="0.5" stroke-miterlimit="10"/>
<path d="M261.51 28.14L322.35 210.84" stroke="black" stroke-width="0.5" stroke-miterlimit="10"/>
<path d="M266.75 28.15L327.59 210.85" stroke="black" stroke-width="0.5" stroke-miterlimit="10"/>
<path d="M271.99 28.16L332.84 210.86" stroke="black" stroke-width="0.5" stroke-miterlimit="10"/>
<path d="M277.24 28.17L338.08 210.87" stroke="black" stroke-width="0.5" stroke-miterlimit="10"/>
<path d="M282.48 28.19L343.32 210.89" stroke="black" stroke-width="0.5" stroke-miterlimit="10"/>
<path d="M287.72 28.2L348.56 210.9" stroke="black" stroke-width="0.5" stroke-miterlimit="10"/>
<path d="M292.96 28.21L353.8 210.91" stroke="black" stroke-width="0.5" stroke-miterlimit="10"/>
<path d="M298.2 28.22L359.05 210.92" stroke="black" stroke-width="0.5" stroke-miterlimit="10"/>
<path d="M303.45 28.24L364.29 210.94" stroke="black" stroke-width="0.5" stroke-miterlimit="10"/>
<path d="M308.69 28.25L369.53 210.95" stroke="black" stroke-width="0.5" stroke-miterlimit="10"/>
<path d="M313.93 28.26L374.77 210.96" stroke="black" stroke-width="0.5" stroke-miterlimit="10"/>
<path d="M319.17 28.27L380.01 210.97" stroke="black" stroke-width="0.5" stroke-miterlimit="10"/>
<path d="M324.41 28.29L385.26 210.99" stroke="black" stroke-width="0.5" stroke-miterlimit="10"/>
<path d="M329.66 28.3L390.5 211" stroke="black" stroke-width="0.5" stroke-miterlimit="10"/>
<path d="M334.9 28.31L395.74 211.01" stroke="black" stroke-width="0.5" stroke-miterlimit="10"/>
<path d="M340.14 28.32L400.98 211.03" stroke="black" stroke-width="0.5" stroke-miterlimit="10"/>
<path d="M345.38 28.34L406.22 211.04" stroke="black" stroke-width="0.5" stroke-miterlimit="10"/>
<path d="M350.62 28.35L411.47 211.05" stroke="black" stroke-width="0.5" stroke-miterlimit="10"/>
<path d="M355.87 28.36L416.71 211.06" stroke="black" stroke-width="0.5" stroke-miterlimit="10"/>
<path d="M361.11 28.37L421.95 211.08" stroke="black" stroke-width="0.5" stroke-miterlimit="10"/>
<path d="M366.35 28.39L427.19 211.09" stroke="black" stroke-width="0.5" stroke-miterlimit="10"/>
<path d="M371.59 28.4L432.43 211.1" stroke="black" stroke-width="0.5" stroke-miterlimit="10"/>
<path d="M376.83 28.41L437.68 211.11" stroke="black" stroke-width="0.5" stroke-miterlimit="10"/>
<path d="M382.08 28.42L442.92 211.13" stroke="black" stroke-width="0.5" stroke-miterlimit="10"/>
<path d="M387.32 28.44L448.16 211.14" stroke="black" stroke-width="0.5" stroke-miterlimit="10"/>
<path d="M392.56 28.45L453.4 211.15" stroke="black" stroke-width="0.5" stroke-miterlimit="10"/>
<path d="M397.8 28.46L458.64 211.16" stroke="black" stroke-width="0.5" stroke-miterlimit="10"/>
<path d="M403.04 28.47L463.89 211.18" stroke="black" stroke-width="0.5" stroke-miterlimit="10"/>
<path d="M408.29 28.49L469.13 211.19" stroke="black" stroke-width="0.5" stroke-miterlimit="10"/>
<path d="M413.53 28.5L474.37 211.2" stroke="black" stroke-width="0.5" stroke-miterlimit="10"/>
<path d="M418.77 28.51L479.61 211.21" stroke="black" stroke-width="0.5" stroke-miterlimit="10"/>
<path d="M424.01 28.52L484.85 211.23" stroke="black" stroke-width="0.5" stroke-miterlimit="10"/>
<path d="M429.25 28.54L490.1 211.24" stroke="black" stroke-width="0.5" stroke-miterlimit="10"/>
<path d="M434.5 28.55L495.34 211.25" stroke="black" stroke-width="0.5" stroke-miterlimit="10"/>
<path d="M439.74 28.56L500.58 211.26" stroke="black" stroke-width="0.5" stroke-miterlimit="10"/>
<path d="M445.26 28.58L506.11 211.28" stroke="black" stroke-width="0.5" stroke-miterlimit="10"/>
<path d="M450.51 28.59L511.35 211.29" stroke="black" stroke-width="0.5" stroke-miterlimit="10"/>
<path d="M455.75 28.6L516.59 211.3" stroke="black" stroke-width="0.5" stroke-miterlimit="10"/>
<path d="M460.99 28.61L521.83 211.31" stroke="black" stroke-width="0.5" stroke-miterlimit="10"/>
<path d="M466.23 28.63L527.07 211.33" stroke="black" stroke-width="0.5" stroke-miterlimit="10"/>
<path d="M471.47 28.64L532.32 211.34" stroke="black" stroke-width="0.5" stroke-miterlimit="10"/>
<path d="M476.72 28.65L537.56 211.35" stroke="black" stroke-width="0.5" stroke-miterlimit="10"/>
<path d="M481.96 28.66L542.8 211.37" stroke="black" stroke-width="0.5" stroke-miterlimit="10"/>
<path d="M487.2 28.68L548.04 211.38" stroke="black" stroke-width="0.5" stroke-miterlimit="10"/>
<path d="M492.44 28.69L553.28 211.39" stroke="black" stroke-width="0.5" stroke-miterlimit="10"/>
<path d="M497.68 28.7L558.53 211.4" stroke="black" stroke-width="0.5" stroke-miterlimit="10"/>
<path d="M502.93 28.71L563.77 211.42" stroke="black" stroke-width="0.5" stroke-miterlimit="10"/>
<path d="M508.17 28.73L569.01 211.43" stroke="black" stroke-width="0.5" stroke-miterlimit="10"/>
<path d="M513.41 28.74L574.25 211.44" stroke="black" stroke-width="0.5" stroke-miterlimit="10"/>
<path d="M518.65 28.75L579.49 211.45" stroke="black" stroke-width="0.5" stroke-miterlimit="10"/>
<path d="M523.89 28.76L584.74 211.47" stroke="black" stroke-width="0.5" stroke-miterlimit="10"/>
<path d="M529.14 28.78L589.98 211.48" stroke="black" stroke-width="0.5" stroke-miterlimit="10"/>
<path d="M534.38 28.79L595.22 211.49" stroke="black" stroke-width="0.5" stroke-miterlimit="10"/>
<path d="M539.62 28.8L600.46 211.5" stroke="black" stroke-width="0.5" stroke-miterlimit="10"/>
<path d="M544.86 28.81L605.7 211.52" stroke="black" stroke-width="0.5" stroke-miterlimit="10"/>
<path d="M550.11 28.83L610.95 211.53" stroke="black" stroke-width="0.5" stroke-miterlimit="10"/>
<path d="M555.35 28.84L616.19 211.54" stroke="black" stroke-width="0.5" stroke-miterlimit="10"/>
<path d="M560.59 28.85L621.43 211.55" stroke="black" stroke-width="0.5" stroke-miterlimit="10"/>
<path d="M565.83 28.86L626.67 211.57" stroke="black" stroke-width="0.5" stroke-miterlimit="10"/>
<path d="M571.07 28.88L631.91 211.58" stroke="black" stroke-width="0.5" stroke-miterlimit="10"/>
<path d="M576.32 28.89L637.16 211.59" stroke="black" stroke-width="0.5" stroke-miterlimit="10"/>
<path d="M581.56 28.9L642.4 211.6" stroke="black" stroke-width="0.5" stroke-miterlimit="10"/>
<path d="M586.8 28.92L647.64 211.62" stroke="black" stroke-width="0.5" stroke-miterlimit="10"/>
<path d="M592.04 28.93L652.88 211.63" stroke="black" stroke-width="0.5" stroke-miterlimit="10"/>
<path d="M597.28 28.94L658.12 211.64" stroke="black" stroke-width="0.5" stroke-miterlimit="10"/>
<path d="M602.53 28.95L663.37 211.65" stroke="black" stroke-width="0.5" stroke-miterlimit="10"/>
<path d="M607.77 28.97L668.61 211.67" stroke="black" stroke-width="0.5" stroke-miterlimit="10"/>
<path d="M613.01 28.98L673.85 211.68" stroke="black" stroke-width="0.5" stroke-miterlimit="10"/>
<path d="M618.25 28.99L679.09 211.69" stroke="black" stroke-width="0.5" stroke-miterlimit="10"/>
<path d="M623.49 29L684.33 211.7" stroke="black" stroke-width="0.5" stroke-miterlimit="10"/>
<path d="M628.74 29.02L689.58 211.72" stroke="black" stroke-width="0.5" stroke-miterlimit="10"/>
<path d="M633.98 29.03L694.82 211.73" stroke="black" stroke-width="0.5" stroke-miterlimit="10"/>
<path d="M639.22 29.04L700.06 211.74" stroke="black" stroke-width="0.5" stroke-miterlimit="10"/>
<path d="M644.46 29.05L705.3 211.75" stroke="black" stroke-width="0.5" stroke-miterlimit="10"/>
<path d="M649.7 29.07L710.54 211.77" stroke="black" stroke-width="0.5" stroke-miterlimit="10"/>
<path d="M654.95 29.08L715.79 211.78" stroke="black" stroke-width="0.5" stroke-miterlimit="10"/>
<path d="M660.19 29.09L721.03 211.79" stroke="black" stroke-width="0.5" stroke-miterlimit="10"/>
<path d="M665.43 29.1L726.27 211.8" stroke="black" stroke-width="0.5" stroke-miterlimit="10"/>
<path d="M670.67 29.12L731.51 211.82" stroke="black" stroke-width="0.5" stroke-miterlimit="10"/>
<path d="M675.91 29.13L736.76 211.83" stroke="black" stroke-width="0.5" stroke-miterlimit="10"/>
<path d="M681.16 29.14L742 211.84" stroke="black" stroke-width="0.5" stroke-miterlimit="10"/>
<path d="M686.4 29.15L747.24 211.86" stroke="black" stroke-width="0.5" stroke-miterlimit="10"/>
<path d="M691.64 29.17L752.48 211.87" stroke="black" stroke-width="0.5" stroke-miterlimit="10"/>
<path d="M696.88 29.18L757.72 211.88" stroke="black" stroke-width="0.5" stroke-miterlimit="10"/>
<path d="M702.12 29.19L762.97 211.89" stroke="black" stroke-width="0.5" stroke-miterlimit="10"/>
<path d="M707.37 29.2L768.21 211.91" stroke="black" stroke-width="0.5" stroke-miterlimit="10"/>
<path d="M712.61 29.22L773.45 211.92" stroke="black" stroke-width="0.5" stroke-miterlimit="10"/>
<path d="M717.85 29.23L778.69 211.93" stroke="black" stroke-width="0.5" stroke-miterlimit="10"/>
<path d="M723.09 29.24L783.93 211.94" stroke="black" stroke-width="0.5" stroke-miterlimit="10"/>
<path d="M728.33 29.25L789.18 211.96" stroke="black" stroke-width="0.5" stroke-miterlimit="10"/>
<path d="M733.58 29.27L794.42 211.97" stroke="black" stroke-width="0.5" stroke-miterlimit="10"/>
<path d="M738.82 29.28L799.66 211.98" stroke="black" stroke-width="0.5" stroke-miterlimit="10"/>
<path d="M744.06 29.29L804.9 211.99" stroke="black" stroke-width="0.5" stroke-miterlimit="10"/>
<path d="M749.3 29.3L810.14 212.01" stroke="black" stroke-width="0.5" stroke-miterlimit="10"/>
<path d="M754.54 29.32L815.39 212.02" stroke="black" stroke-width="0.5" stroke-miterlimit="10"/>
<path d="M759.79 29.33L820.63 212.03" stroke="black" stroke-width="0.5" stroke-miterlimit="10"/>
<path d="M765.03 29.34L825.87 212.04" stroke="black" stroke-width="0.5" stroke-miterlimit="10"/>
<path d="M770.27 29.36L831.11 212.06" stroke="black" stroke-width="0.5" stroke-miterlimit="10"/>
<path d="M775.51 29.37L836.35 212.07" stroke="black" stroke-width="0.5" stroke-miterlimit="10"/>
<path d="M780.75 29.38L841.6 212.08" stroke="black" stroke-width="0.5" stroke-miterlimit="10"/>
<path d="M786 29.39L846.84 212.09" stroke="black" stroke-width="0.5" stroke-miterlimit="10"/>
<path d="M791.24 29.41L852.08 212.11" stroke="black" stroke-width="0.5" stroke-miterlimit="10"/>
<path d="M796.48 29.42L857.32 212.12" stroke="black" stroke-width="0.5" stroke-miterlimit="10"/>
<path d="M801.72 29.43L862.56 212.13" stroke="black" stroke-width="0.5" stroke-miterlimit="10"/>
<path d="M806.96 29.44L867.81 212.14" stroke="black" stroke-width="0.5" stroke-miterlimit="10"/>
<path d="M812.21 29.46L873.05 212.16" stroke="black" stroke-width="0.5" stroke-miterlimit="10"/>
<path d="M817.45 29.47L878.29 212.17" stroke="black" stroke-width="0.5" stroke-miterlimit="10"/>
<path d="M822.69 29.48L883.53 212.18" stroke="black" stroke-width="0.5" stroke-miterlimit="10"/>
<path d="M827.93 29.49L888.77 212.19" stroke="black" stroke-width="0.5" stroke-miterlimit="10"/>
<path d="M833.17 29.51L894.02 212.21" stroke="black" stroke-width="0.5" stroke-miterlimit="10"/>
<path d="M838.42 29.52L899.26 212.22" stroke="black" stroke-width="0.5" stroke-miterlimit="10"/>
<path d="M843.66 29.53L904.5 212.23" stroke="black" stroke-width="0.5" stroke-miterlimit="10"/>
<path d="M848.9 29.54L909.74 212.24" stroke="black" stroke-width="0.5" stroke-miterlimit="10"/>
<path d="M854.14 29.56L914.98 212.26" stroke="black" stroke-width="0.5" stroke-miterlimit="10"/>
<path d="M859.38 29.57L920.23 212.27" stroke="black" stroke-width="0.5" stroke-miterlimit="10"/>
<path d="M864.63 29.58L925.47 212.28" stroke="black" stroke-width="0.5" stroke-miterlimit="10"/>
<path d="M869.87 29.59L930.71 212.3" stroke="black" stroke-width="0.5" stroke-miterlimit="10"/>
<path d="M875.11 29.61L935.95 212.31" stroke="black" stroke-width="0.5" stroke-miterlimit="10"/>
<path d="M880.35 29.62L941.19 212.32" stroke="black" stroke-width="0.5" stroke-miterlimit="10"/>
<path d="M885.59 29.63L946.44 212.33" stroke="black" stroke-width="0.5" stroke-miterlimit="10"/>
<path d="M890.84 29.64L951.68 212.35" stroke="black" stroke-width="0.5" stroke-miterlimit="10"/>
<path d="M896.08 29.66L956.92 212.36" stroke="black" stroke-width="0.5" stroke-miterlimit="10"/>
<path d="M901.32 29.67L962.16 212.37" stroke="black" stroke-width="0.5" stroke-miterlimit="10"/>
<path d="M906.85 29.68L967.69 212.38" stroke="black" stroke-width="0.5" stroke-miterlimit="10"/>
<path d="M912.09 29.7L972.93 212.4" stroke="black" stroke-width="0.5" stroke-miterlimit="10"/>
<path d="M917.33 29.71L978.17 212.41" stroke="black" stroke-width="0.5" stroke-miterlimit="10"/>
<path d="M922.57 29.72L983.41 212.42" stroke="black" stroke-width="0.5" stroke-miterlimit="10"/>
<path d="M927.81 29.73L988.66 212.43" stroke="black" stroke-width="0.5" stroke-miterlimit="10"/>
<path d="M933.06 29.75L993.9 212.45" stroke="black" stroke-width="0.5" stroke-miterlimit="10"/>
<path d="M938.3 29.76L999.14 212.46" stroke="black" stroke-width="0.5" stroke-miterlimit="10"/>
<path d="M943.54 29.77L1004.38 212.47" stroke="black" stroke-width="0.5" stroke-miterlimit="10"/>
<path d="M948.78 29.78L1009.62 212.48" stroke="black" stroke-width="0.5" stroke-miterlimit="10"/>
<path d="M954.02 29.8L1014.87 212.5" stroke="black" stroke-width="0.5" stroke-miterlimit="10"/>
<path d="M959.27 29.81L1020.11 212.51" stroke="black" stroke-width="0.5" stroke-miterlimit="10"/>
<path d="M964.51 29.82L1025.35 212.52" stroke="black" stroke-width="0.5" stroke-miterlimit="10"/>
<path d="M969.75 29.83L1030.59 212.53" stroke="black" stroke-width="0.5" stroke-miterlimit="10"/>
<path d="M974.99 29.85L1035.83 212.55" stroke="black" stroke-width="0.5" stroke-miterlimit="10"/>
<path d="M980.23 29.86L1041.08 212.56" stroke="black" stroke-width="0.5" stroke-miterlimit="10"/>
<path d="M985.48 29.87L1046.32 212.57" stroke="black" stroke-width="0.5" stroke-miterlimit="10"/>
<path d="M990.72 29.88L1051.56 212.58" stroke="black" stroke-width="0.5" stroke-miterlimit="10"/>
<path d="M995.96 29.9L1056.8 212.6" stroke="black" stroke-width="0.5" stroke-miterlimit="10"/>
<path d="M1001.2 29.91L1062.04 212.61" stroke="black" stroke-width="0.5" stroke-miterlimit="10"/>
<path d="M1006.44 29.92L1067.29 212.62" stroke="black" stroke-width="0.5" stroke-miterlimit="10"/>
<path d="M1011.69 29.93L1072.53 212.64" stroke="black" stroke-width="0.5" stroke-miterlimit="10"/>
<path d="M1016.93 29.95L1077.77 212.65" stroke="black" stroke-width="0.5" stroke-miterlimit="10"/>
</g>
</g>
</svg>
