<svg width="1524" height="296" viewBox="0 0 1524 296" fill="none" xmlns="http://www.w3.org/2000/svg">
<path d="M0.25 295.77H1523.75" stroke="#070707" stroke-width="0.4" stroke-miterlimit="10"/>
<path d="M1250.38 79.4799L1246.5 83.3599L1217.34 54.1899L1221.22 50.3099H1222.86C1230.84 42.3299 1249.92 23.2499 1258.11 15.0699L1285.63 42.59C1277.51 50.7 1258.29 69.93 1250.38 77.84V79.4799Z" fill="#D8D8D8"/>
<path d="M399.17 211.61V47.2899H398.28H392.52H263.82C262.06 47.2899 260.37 47.9899 259.12 49.2399L198.39 109.97C197.14 111.22 196.44 112.91 196.44 114.67V204.97C196.44 208.64 199.42 211.62 203.09 211.62H392.52H399.17V211.61Z" fill="#D8D8D8"/>
<path d="M1073.81 211.61V47.2899H1074.7H1080.46H1209.16C1210.92 47.2899 1212.61 47.9899 1213.86 49.2399L1274.59 109.97C1275.84 111.22 1276.54 112.91 1276.54 114.67V204.97C1276.54 208.64 1273.56 211.62 1269.89 211.62H1080.46H1073.81V211.61Z" fill="#D8D8D8"/>
<path d="M1211.51 51.59L1272.24 112.32C1272.86 112.94 1273.21 113.79 1273.21 114.67V204.97C1273.21 206.81 1271.72 208.29 1269.89 208.29H1073.81V204.97V114.67V109.97V49.2399V47.2899H399.17V49.2399V109.97V114.67V204.97V208.29H203.09C201.25 208.29 199.77 206.8 199.77 204.97V114.67C199.77 113.79 200.12 112.94 200.74 112.32L261.47 51.59C262.09 50.97 262.94 50.6199 263.82 50.6199H327.53V47.2999H263.82C262.06 47.2999 260.37 47.9999 259.12 49.2499L198.39 109.98C197.14 111.23 196.44 112.92 196.44 114.68V204.98C196.44 206.15 196.75 207.29 197.33 208.3C198.52 210.36 200.71 211.62 203.09 211.62H399.17H1073.81H1269.89C1272.26 211.62 1274.46 210.35 1275.65 208.3C1276.23 207.29 1276.54 206.14 1276.54 204.98V114.68C1276.54 112.92 1275.84 111.23 1274.59 109.98L1213.86 49.2499C1212.61 47.9999 1210.92 47.2999 1209.16 47.2999H1145.45V50.6199H1209.16C1210.04 50.6099 1210.88 50.96 1211.51 51.59Z" fill="#AFAFAF"/>
<path d="M1276.23 168.94L1273.57 184.82C1273.42 185.7 1272.45 186.15 1271.68 185.7L1269.88 184.63C1269.39 186.41 1268.83 188.17 1268.22 189.9L1270.3 190.05C1271.2 190.11 1271.72 191.04 1271.35 191.85L1264.34 206.34C1263.95 207.14 1262.88 207.29 1262.28 206.66L1260.86 205.11C1259.89 206.68 1258.86 208.21 1257.76 209.69L1259.72 210.44C1260.54 210.76 1260.8 211.81 1260.21 212.46L1249.4 224.39C1248.8 225.06 1247.74 224.91 1247.34 224.11L1246.4 222.22C1245.02 223.45 1243.59 224.63 1242.14 225.75L1243.82 227.02C1244.51 227.56 1244.46 228.65 1243.71 229.1L1229.98 237.52C1229.21 237.97 1228.24 237.54 1228.07 236.66L1227.71 234.6C1226.06 235.39 1224.36 236.12 1222.64 236.79L1223.87 238.47C1224.39 239.18 1224.04 240.19 1223.18 240.43L1207.64 244.62C1206.78 244.84 1205.96 244.15 1206.05 243.25L1206.29 241.19C1204.48 241.47 1202.64 241.7 1200.79 241.84L1201.52 243.8C1201.82 244.62 1201.18 245.5 1200.3 245.48L1184.2 245.12C1183.32 245.1 1182.72 244.2 1183.08 243.38L1183.88 241.45C1182.03 241.21 1180.21 240.91 1178.42 240.53L1178.55 242.62C1178.61 243.5 1177.76 244.17 1176.92 243.89L1161.57 239.03C1160.73 238.75 1160.43 237.72 1160.97 237.03L1162.3 235.4C1160.6 234.67 1158.93 233.87 1157.31 233.01L1156.86 235.05C1156.67 235.91 1155.66 236.3 1154.93 235.82L1141.58 226.81C1140.85 226.32 1140.85 225.24 1141.58 224.73L1143.32 223.53C1141.9 222.35 1140.53 221.1 1139.21 219.83L1138.18 221.66C1137.75 222.43 1136.68 222.54 1136.12 221.85L1125.83 209.45C1125.27 208.78 1125.57 207.73 1126.41 207.47L1128.41 206.8C1127.38 205.27 1126.41 203.7 1125.51 202.09L1124.03 203.57C1123.39 204.19 1122.33 203.98 1121.97 203.18L1115.61 188.39C1115.27 187.57 1115.83 186.67 1116.73 186.63L1118.81 186.57C1118.27 184.81 1117.8 183.04 1117.37 181.22L1115.54 182.21C1114.75 182.62 1113.8 182.14 1113.69 181.26L1111.76 165.27C1111.65 164.39 1112.45 163.68 1113.31 163.9L1115.37 164.42C1115.35 164.08 1115.35 163.73 1115.35 163.39C1115.35 161.87 1115.39 160.38 1115.48 158.88L1113.42 159.31C1112.56 159.5 1111.77 158.75 1111.92 157.87L1114.56 141.99C1114.71 141.11 1115.68 140.66 1116.45 141.11L1118.25 142.18C1118.74 140.4 1119.3 138.65 1119.91 136.92L1117.83 136.75C1116.95 136.69 1116.41 135.76 1116.78 134.95L1123.79 120.46C1124.18 119.66 1125.25 119.51 1125.85 120.16L1127.27 121.69C1128.26 120.12 1129.29 118.59 1130.37 117.11L1128.41 116.36C1127.59 116.04 1127.33 114.99 1127.92 114.34L1138.73 102.41C1139.33 101.76 1140.39 101.9 1140.79 102.69L1141.73 104.6C1143.1 103.35 1144.54 102.17 1145.99 101.05L1144.33 99.78C1143.62 99.24 1143.68 98.17 1144.42 97.7L1158.15 89.3C1158.92 88.83 1159.91 89.28 1160.06 90.14L1160.42 92.2C1162.08 91.41 1163.77 90.68 1165.51 90.01L1164.28 88.33C1163.74 87.62 1164.09 86.61 1164.95 86.38L1180.49 82.17C1181.35 81.95 1182.17 82.6599 1182.08 83.5399L1181.84 85.5999C1183.65 85.3199 1185.49 85.11 1187.34 84.95L1186.63 82.99C1186.31 82.17 1186.95 81.29 1187.83 81.31L1203.93 81.67C1204.81 81.69 1205.41 82.5899 1205.05 83.4099L1204.25 85.34C1206.1 85.58 1207.93 85.88 1209.73 86.26L1209.58 84.17C1209.52 83.29 1210.37 82.62 1211.21 82.9L1226.56 87.76C1227.4 88.04 1227.7 89.07 1227.16 89.76L1225.85 91.37C1227.53 92.12 1229.2 92.92 1230.82 93.78L1231.27 91.74C1231.46 90.88 1232.47 90.4899 1233.2 90.9699L1246.55 99.9799C1247.28 100.47 1247.28 101.55 1246.55 102.06L1244.83 103.24C1246.25 104.44 1247.62 105.69 1248.94 106.96L1249.95 105.13C1250.38 104.36 1251.45 104.25 1252.01 104.94L1262.3 117.34C1262.86 118.01 1262.56 119.06 1261.72 119.32L1259.72 119.99C1260.75 121.52 1261.72 123.09 1262.62 124.7L1264.12 123.22C1264.74 122.6 1265.8 122.81 1266.16 123.63L1272.52 138.41C1272.88 139.23 1272.3 140.15 1271.4 140.17L1269.32 140.24C1269.86 141.98 1270.33 143.76 1270.74 145.57L1272.59 144.58C1273.38 144.17 1274.33 144.65 1274.44 145.55L1276.37 161.52C1276.48 162.4 1275.68 163.11 1274.82 162.89L1272.76 162.37C1272.78 162.71 1272.78 163.06 1272.78 163.4C1272.78 164.91 1272.74 166.41 1272.65 167.91L1274.71 167.48C1275.6 167.32 1276.37 168.06 1276.23 168.94Z" fill="#AFAFAF"/>
<path d="M359.86 168.94L357.2 184.82C357.05 185.7 356.08 186.15 355.31 185.7L353.51 184.63C353.02 186.41 352.46 188.17 351.85 189.9L353.93 190.05C354.83 190.11 355.35 191.04 354.98 191.85L347.97 206.34C347.58 207.14 346.51 207.29 345.91 206.66L344.49 205.11C343.52 206.68 342.49 208.21 341.39 209.69L343.35 210.44C344.17 210.76 344.43 211.81 343.84 212.46L333.03 224.39C332.43 225.06 331.37 224.91 330.97 224.11L330.03 222.22C328.65 223.45 327.22 224.63 325.77 225.75L327.45 227.02C328.14 227.56 328.09 228.65 327.34 229.1L313.61 237.52C312.84 237.97 311.87 237.54 311.7 236.66L311.34 234.6C309.69 235.39 307.99 236.12 306.27 236.79L307.5 238.47C308.02 239.18 307.67 240.19 306.81 240.43L291.27 244.62C290.41 244.84 289.59 244.15 289.68 243.25L289.92 241.19C288.11 241.47 286.27 241.7 284.42 241.84L285.15 243.8C285.45 244.62 284.81 245.5 283.93 245.48L267.83 245.12C266.95 245.1 266.35 244.2 266.71 243.38L267.51 241.45C265.66 241.21 263.84 240.91 262.05 240.53L262.18 242.62C262.24 243.5 261.39 244.17 260.55 243.89L245.2 239.03C244.36 238.75 244.06 237.72 244.6 237.03L245.93 235.4C244.23 234.67 242.56 233.87 240.94 233.01L240.49 235.05C240.3 235.91 239.29 236.3 238.56 235.82L225.21 226.81C224.48 226.32 224.48 225.24 225.21 224.73L226.95 223.53C225.53 222.35 224.16 221.1 222.84 219.83L221.81 221.66C221.38 222.43 220.31 222.54 219.75 221.85L209.46 209.45C208.9 208.78 209.2 207.73 210.04 207.47L212.04 206.8C211.01 205.27 210.04 203.7 209.14 202.09L207.66 203.57C207.02 204.19 205.96 203.98 205.6 203.18L199.24 188.39C198.9 187.57 199.46 186.67 200.36 186.63L202.44 186.57C201.9 184.81 201.43 183.04 201 181.22L199.17 182.21C198.38 182.62 197.43 182.14 197.32 181.26L195.39 165.27C195.28 164.39 196.08 163.68 196.94 163.9L199 164.42C198.98 164.08 198.98 163.73 198.98 163.39C198.98 161.87 199.02 160.38 199.11 158.88L197.05 159.31C196.19 159.5 195.4 158.75 195.55 157.87L198.19 141.99C198.34 141.11 199.31 140.66 200.08 141.11L201.88 142.18C202.37 140.4 202.93 138.65 203.54 136.92L201.46 136.75C200.58 136.69 200.04 135.76 200.41 134.95L207.42 120.46C207.81 119.66 208.88 119.51 209.48 120.16L210.9 121.69C211.89 120.12 212.92 118.59 214 117.11L212.04 116.36C211.22 116.04 210.96 114.99 211.55 114.34L222.36 102.41C222.96 101.76 224.02 101.9 224.42 102.69L225.36 104.6C226.73 103.35 228.17 102.17 229.62 101.05L227.96 99.78C227.25 99.24 227.31 98.17 228.05 97.7L241.78 89.3C242.55 88.83 243.54 89.28 243.69 90.14L244.05 92.2C245.71 91.41 247.4 90.68 249.14 90.01L247.91 88.33C247.37 87.62 247.72 86.61 248.58 86.38L264.12 82.17C264.98 81.95 265.8 82.6599 265.71 83.5399L265.47 85.5999C267.28 85.3199 269.12 85.11 270.97 84.95L270.26 82.99C269.94 82.17 270.58 81.29 271.46 81.31L287.56 81.67C288.44 81.69 289.04 82.5899 288.68 83.4099L287.88 85.34C289.73 85.58 291.56 85.88 293.36 86.26L293.21 84.17C293.15 83.29 294 82.62 294.84 82.9L310.2 87.76C311.04 88.04 311.34 89.07 310.8 89.76L309.49 91.37C311.17 92.12 312.84 92.92 314.46 93.78L314.91 91.74C315.1 90.88 316.11 90.4899 316.84 90.9699L330.2 100C330.93 100.49 330.93 101.57 330.2 102.08L328.48 103.26C329.9 104.46 331.27 105.71 332.59 106.98L333.6 105.15C334.03 104.38 335.1 104.27 335.66 104.96L345.95 117.36C346.51 118.03 346.21 119.08 345.37 119.34L343.37 120.01C344.4 121.54 345.37 123.11 346.27 124.72L347.77 123.24C348.39 122.62 349.45 122.83 349.81 123.65L356.17 138.43C356.53 139.25 355.95 140.17 355.05 140.19L352.97 140.26C353.51 142 353.98 143.78 354.39 145.59L356.24 144.6C357.03 144.19 357.98 144.67 358.09 145.57L360.02 161.54C360.13 162.42 359.33 163.13 358.47 162.91L356.41 162.39C356.43 162.73 356.43 163.08 356.43 163.42C356.43 164.93 356.39 166.43 356.3 167.93L358.36 167.5C359.22 167.32 359.99 168.06 359.86 168.94Z" fill="#AFAFAF"/>
<path d="M256.7 43.9699C255.33 43.9699 254.01 44.3799 252.88 45.1699L234.18 58.2599L227.37 63.03L188.52 90.2199L186.54 91.6199L188.45 94.33L190.43 92.95L229.28 65.7599L236.09 60.9899L254.79 47.9C255.35 47.51 256.01 47.28 256.7 47.28V54.3099C256.7 55.4299 258.42 56.4799 261.17 56.9799L346.49 73.0999L360.95 75.83L410.89 85.27V105.23C410.89 107.42 411.77 109.53 413.32 111.1L450 147.78C451.55 149.33 453.67 150.21 455.87 150.21H744C746.21 150.21 748.32 151.09 749.87 152.64L766.98 169.75L778.24 181.01C779.79 182.56 781.91 183.44 784.11 183.44H1175.05C1177.26 183.44 1179.37 182.56 1180.92 181.01L1209.29 152.64C1210.84 151.09 1211.72 148.97 1211.72 146.77V43.9699H256.7Z" fill="#EFEFEF"/>
<path d="M318.79 38.9799V26.52V18.21V5.74994H1149.63V18.21V26.52V38.9799H318.79Z" fill="#D8D8D8"/>
<path d="M1149.63 0.759949L1163.87 9.30994L1178.83 18.28C1181.33 19.78 1182.86 22.49 1182.86 25.4V43.96H1177.87H1116.39V5.73993V0.749939H1149.63V0.759949Z" fill="#AFAFAF"/>
<path d="M304.55 9.30994L318.79 0.759949H352.02V5.74994V43.9699H290.54H285.55V25.4099C285.55 22.4899 287.08 19.7899 289.58 18.2899L304.55 9.30994Z" fill="#AFAFAF"/>
<path d="M1248.24 5.46989C1248.09 5.61989 1247.94 5.7699 1247.79 5.9199C1247.64 6.0699 1247.49 6.21991 1247.34 6.36991C1247.16 6.54991 1246.98 6.72989 1246.8 6.90989C1246.61 7.09989 1246.41 7.29991 1246.22 7.48991C1246.03 7.67991 1245.84 7.86992 1245.65 8.05992C1245.48 8.22992 1245.3 8.40994 1245.13 8.57994C1244.99 8.71994 1244.85 8.85992 1244.71 8.99992C1244.62 9.08992 1244.53 9.17995 1244.43 9.27995L1244.34 9.36991L1244.5 9.52995L1244.61 9.63993C1244.61 9.63993 1244.7 9.72991 1244.71 9.73991L1244.92 9.94993L1244.33 10.5399C1243.68 11.1899 1243.68 12.2399 1244.33 12.8899L1248.44 16.9999L1237.35 28.0899V29.2599L1271.42 63.3299H1272.6L1283.69 52.2399L1287.8 56.3499C1288.45 56.9999 1289.5 56.9999 1290.15 56.3499L1290.74 55.7599L1290.95 55.9699L1291.04 56.0599L1291.15 56.1699L1291.31 56.3299L1295.21 52.4299C1295.27 52.3699 1295.33 52.2999 1295.43 52.1599C1295.46 52.1199 1295.48 52.0799 1295.5 52.0299C1295.57 51.8999 1295.62 51.7599 1295.66 51.6199C1295.68 51.5499 1295.69 51.4699 1295.7 51.3999C1295.71 51.3399 1295.7 51.2699 1295.71 51.2199C1295.74 50.9999 1295.37 50.7299 1295.37 50.7299L1295.51 50.4699C1292.9 45.6699 1289.94 41.0599 1286.66 36.6899L1287.02 36.3299C1286.72 35.9299 1286.41 35.5299 1286.11 35.1299L1282.84 31.8599C1278.59 26.7899 1273.9 22.0999 1268.82 17.8399L1265.55 14.5699C1265.15 14.2599 1264.75 13.9599 1264.35 13.6599L1263.99 14.0199C1259.62 10.7399 1255.01 7.7799 1250.21 5.1699C1250.13 5.1199 1250.04 5.08991 1249.93 5.04991C1249.91 5.03991 1249.87 5.02993 1249.77 5.00993C1249.39 4.92993 1248.98 4.99993 1248.6 5.19993C1248.54 5.21993 1248.34 5.38989 1248.38 5.34989C1248.33 5.38989 1248.29 5.42989 1248.24 5.46989Z" fill="#AFAFAF"/>
</svg>
