<svg width="1800" height="1200" viewBox="0 0 1800 1200" fill="none" xmlns="http://www.w3.org/2000/svg">
<path d="M138.25 1013.76H1661.75" stroke="#070707" stroke-width="0.4" stroke-miterlimit="10"/>
<path opacity="0.6" d="M183.71 248.62L347.32 899.26H1390.94L1574.55 248.62H879.13H183.71Z" fill="url(#paint0_linear_2_1135)"/>
<path d="M1661.75 149.1C1661.75 259.03 1320.7 348.15 900 348.15C479.3 348.15 138.25 259.03 138.25 149.1" stroke="url(#paint1_radial_2_1135)" stroke-width="0.4" stroke-miterlimit="10"/>
<path d="M138.25 275.55C138.25 358 584.47 424.84 900 424.84C1215.53 424.84 1661.75 358 1661.75 275.55" stroke="url(#paint2_radial_2_1135)" stroke-width="0.4" stroke-miterlimit="10"/>
<path d="M138.25 402C138.25 456.97 689.65 501.53 900 501.53C1110.35 501.53 1661.75 456.97 1661.75 402" stroke="url(#paint3_radial_2_1135)" stroke-width="0.4" stroke-miterlimit="10"/>
<path d="M138.25 528.45C138.25 555.93 794.82 578.21 900 578.21C1005.18 578.21 1661.75 555.93 1661.75 528.45" stroke="url(#paint4_radial_2_1135)" stroke-width="0.4" stroke-miterlimit="10"/>
<path d="M138.25 654.9H1661.75" stroke="url(#paint5_radial_2_1135)" stroke-width="0.4" stroke-miterlimit="10"/>
<path opacity="0.5" d="M1661.75 907.8C1661.75 852.83 1110.35 808.27 900 808.27C689.65 808.27 138.25 852.83 138.25 907.8" stroke="url(#paint6_radial_2_1135)" stroke-width="0.4" stroke-miterlimit="10"/>
<path opacity="0.8" d="M1661.75 781.35C1661.75 753.87 1005.18 731.59 900 731.59C794.82 731.59 138.25 753.87 138.25 781.35" stroke="url(#paint7_radial_2_1135)" stroke-width="0.4" stroke-miterlimit="10"/>
<path d="M900.01 808.28V731.58V654.9V578.22V501.52V424.84V348.14" stroke="url(#paint8_linear_2_1135)" stroke-width="0.4" stroke-miterlimit="10"/>
<path d="M1038.39 812.26V734.7V654.9V575.1V497.54V421.06V348.14" stroke="url(#paint9_linear_2_1135)" stroke-width="0.4" stroke-miterlimit="10"/>
<path d="M1176.77 820.8V739.64V654.9V570.16V489V410.86V334.6" stroke="url(#paint10_linear_2_1135)" stroke-width="0.4" stroke-miterlimit="10"/>
<path d="M1315.15 832.76V745.9V654.9V563.9V477.04V394.54V316.02" stroke="url(#paint11_linear_2_1135)" stroke-width="0.4" stroke-miterlimit="10"/>
<path opacity="0.6" d="M1453.53 848.94V753.86V654.9V555.94V460.86V370.58V285.84V282.26" stroke="url(#paint12_linear_2_1135)" stroke-width="0.4" stroke-miterlimit="10"/>
<path opacity="0.3" d="M1591.91 873.58V765.54V654.9V544.26V436.22V331.78V232.46" stroke="url(#paint13_linear_2_1135)" stroke-width="0.4" stroke-miterlimit="10"/>
<path d="M761.61 348.14V421.06V497.54V575.1V654.9V734.7V812.26" stroke="url(#paint14_linear_2_1135)" stroke-width="0.4" stroke-miterlimit="10"/>
<path d="M623.23 334.6V410.86V489V570.16V654.9V739.64V820.8" stroke="url(#paint15_linear_2_1135)" stroke-width="0.4" stroke-miterlimit="10"/>
<path d="M484.85 316.02V394.54V477.04V563.9V654.9V745.9V832.76" stroke="url(#paint16_linear_2_1135)" stroke-width="0.4" stroke-miterlimit="10"/>
<path opacity="0.6" d="M346.47 282.26V285.82V370.58V460.86V555.94V654.9V753.86V848.94" stroke="url(#paint17_linear_2_1135)" stroke-width="0.4" stroke-miterlimit="10"/>
<path opacity="0.3" d="M208.09 232.46V331.78V436.22V544.26V654.9V765.54V873.58" stroke="url(#paint18_linear_2_1135)" stroke-width="0.4" stroke-miterlimit="10"/>
<path d="M383.44 312.57C383.47 312.63 384.14 312.17 384.14 312.17L385.42 317.48C385.42 317.48 401.11 307.51 401.51 308.19C403.04 310.84 387 314.19 388.2 316.27L394.13 312.85C395.2 314.7 381.17 326.13 381.17 326.13L406.52 311.49C407.02 312.36 391.97 321.86 391.97 321.86C391.97 321.86 408.6 308.53 410.21 311.33C410.21 311.33 389.41 323.1 390.9 325.69C390.9 325.69 414.47 306.18 417.02 310.61L392.82 327.32L422.61 310.12C424.65 313.65 409.68 320.48 409.68 320.48C412.72 325.75 425.22 308.42 426.56 310.74C426.56 310.74 406.42 326.77 406.49 326.89C409.3 331.76 433.37 311.37 433.37 311.37C435.21 314.56 413.94 326.66 413.94 326.66C413.94 326.66 441.06 308.73 442.04 310.44C442.04 310.44 420 324.51 420.59 325.53C420.59 325.53 446.8 305.89 448.75 309.27C449.43 310.44 432.73 323.67 432.73 323.67L452.2 312.43L432.88 326.03L458.63 311.16C458.63 311.16 439.81 323.7 439.97 323.98L456.96 314.17L451.85 322.47C451.85 322.47 472.03 310.14 472.32 310.65C474.33 314.14 459.23 322.77 459.46 323.18C459.46 323.18 480.48 305.36 482.94 309.62C484.75 312.75 465.23 321.22 465.53 321.74C468.43 326.77 478.05 311.3 479.44 313.71C479.44 313.71 458.68 325.85 459.75 327.7C460.46 328.92 481.02 315.42 481.02 315.42C481.53 316.31 480.77 320.29 481.32 321.26C481.58 321.72 499.12 310.98 499.12 310.98C501.51 315.12 474.47 325.88 474.47 325.88C474.47 325.88 492.58 309.5 495.15 313.94C495.15 313.94 478.88 323.42 480.79 326.73C482.32 329.38 501.71 314.42 501.81 314.59C501.81 314.59 499.42 320.41 500.33 321.98L521.19 309.93L494.2 325.65C495.36 327.66 519.99 306.03 522.03 309.58C522.67 310.69 500.24 322.66 500.93 323.86C500.95 323.9 520.4 312.62 520.4 312.62C520.57 312.92 512.91 321.43 512.91 321.43C512.91 321.43 519.99 312.31 522.16 316.09C522.16 316.09 516.42 325.06 516.75 325.64L544.18 309.8C545.18 311.52 528.06 320.72 528.06 320.72C528.75 321.91 539.91 312.87 540.35 313.63L525.86 324.74L547.59 312.19C548.44 313.66 541.59 321.67 541.59 321.67C541.85 322.12 554.48 314.23 554.48 314.23C556.35 317.46 530.82 325.84 531.96 327.82C534.26 331.81 554.83 314.61 554.83 314.61C554.85 314.65 551.26 321.96 551.26 321.96L573.09 309.36C573.64 310.32 561.12 318.31 562.71 321.07L569.6 317.09L563.84 322.43C564.4 323.39 570.82 318.4 570.82 318.4L560.22 328.01C560.86 329.12 566.61 323.19 567.1 324.04C567.35 324.47 570.36 324.38 570.37 324.4C570.44 324.53 571.02 323.91 571.07 324" stroke="#302B35" stroke-width="1.4" stroke-linecap="round" stroke-linejoin="round"/>
<path d="M378.39 260.05C378.39 260.05 379.02 259.53 379.09 259.65C379.27 259.96 382.53 259.17 382.53 259.17L388.24 255.87C388.24 255.87 377.25 262.75 378.39 264.73C378.63 265.14 387.2 259.64 387.2 259.64C389.4 263.46 373.38 270.74 374.69 273L391.32 263.4C392.38 265.24 381.73 274.52 381.73 274.52C384.28 278.94 400.96 263.42 400.96 263.42C400.96 263.42 379.74 276.81 381.93 280.62L420.66 258.26C423.16 262.58 376.22 285.97 377.74 288.6C384.44 300.2 423.53 255.69 426.33 260.55C426.86 261.47 378.62 284.82 381.25 289.38C383.71 293.63 433.73 257.62 434.36 258.72C438.26 265.48 384.87 287.45 384.87 287.45L434.11 259.02L379.87 291.15C386.17 302.05 439.19 256.9 439.19 256.9C441.56 261 366 283.76 373.76 297.21C379.83 307.71 430.99 246.47 438.65 259.75C440.63 263.19 375.8 290.51 378.68 295.5L441.01 259.51C442.12 261.43 371.04 292.97 375.54 300.77C375.54 300.77 437.59 252.3 443.06 261.79L381.38 297.57C382.75 299.94 443.62 247.17 449.88 258.02C449.88 258.02 383.95 282.79 391.98 296.7C401.18 312.64 452.46 261.78 452.46 261.78C452.46 261.78 396.77 290.11 399.57 294.95C399.57 294.95 457.16 246.43 463.77 257.88C471.34 270.98 397.8 296.36 397.8 296.36C402.69 304.83 457.43 242.33 465.92 257.03C465.92 257.03 400.4 286.68 406.02 296.42C406.02 296.42 458.18 248.47 465.9 261.85C473 274.14 400.34 286.97 406.14 297.01L470.83 259.66C470.83 259.66 402.11 296.56 404.97 301.52L473.47 261.97L408.38 300.85C416.19 314.38 478.77 250.86 482.82 257.87C482.82 257.87 424.78 293.21 426.46 296.11C426.46 296.11 483.97 262.44 484.18 262.79C484.18 262.79 428.2 294.88 428.36 295.15C428.36 295.15 490.59 249.17 494.94 256.71C504.15 272.66 431.82 297.11 431.82 297.11C433.35 299.75 492.74 261.94 492.74 261.94C498.1 271.23 429.96 290.74 434.87 299.23C434.87 299.23 500.36 256.78 502.37 260.26C506.18 266.86 445.91 295.35 445.91 295.35L513.38 256.4C515.2 259.55 455.2 296.9 455.2 296.9L517.82 260.75C522.65 269.12 467.67 294.07 467.67 294.07C467.67 294.07 527.78 256.69 528.94 258.7C530.06 260.65 466.5 297.27 468.09 300.02L538.86 259.16C540.15 261.4 472.33 292.59 476.38 299.6C476.38 299.6 544.57 258.49 545.32 259.8C545.32 259.8 485.06 289.96 488.62 296.13C496.29 309.42 544.86 250.79 550.43 260.44L481.61 301.55C486.77 310.49 547.65 263.42 547.65 263.42C548.81 265.43 499.7 289.1 502.48 293.91C502.48 293.91 562.9 258.52 563.12 258.9C563.12 258.9 495.76 285.99 503.79 299.9C507.35 306.06 568.8 250.6 573.89 259.43C573.89 259.43 512.15 289.07 515.8 295.41C515.8 295.41 570.86 245.46 578.72 259.08L517.79 299.96C520.74 305.08 586.71 260.17 586.71 260.17C595.52 275.43 525.05 298.32 525.05 298.32L585.93 263.17C585.93 263.17 517.95 286.4 526.15 300.61C527.15 302.35 589.21 249.84 595.43 260.61L542.81 294.82C542.81 294.82 600.11 258.88 601.35 261.02C601.35 261.02 528.31 289.41 534.5 300.13C534.66 300.4 611.08 255.91 611.08 255.91C611.08 255.91 527.73 287.13 535.93 301.34C540.22 308.77 602.51 242.24 611.45 257.74C613.96 262.09 549.15 296.09 549.48 296.65L612.81 260.09C614.21 262.51 553.51 296.62 553.51 296.62L604.08 267.42C604.75 268.57 562.54 293.94 562.54 293.94C569.94 306.76 610.91 266.01 610.91 266.01C612.01 267.92 563.06 299.09 563.06 299.09C567.84 307.37 608.91 272.62 608.91 272.62C608.91 272.62 568.1 292.81 570.61 297.16C574.11 303.23 599.69 272.41 603.14 278.38L575.48 297.53L609.26 278.03C612.89 284.31 581.89 294.19 584.72 299.08L614.03 282.16C614.57 283.1 594.23 295.93 594.23 295.93C594.23 295.93 607.34 285.71 608.49 287.7L596.48 296.18C596.48 296.18 614.45 283.9 615.28 285.33L593.58 300.49C593.85 300.96 611.49 290.15 611.49 290.15L601.29 296.83C601.29 296.83 601.25 296.16 601.55 296.68C601.55 296.68 600.6 301.15 600.82 301.53C600.91 301.68 611.39 295.23 611.48 295.38" stroke="#BA6FF3" stroke-width="1.4" stroke-linecap="round" stroke-linejoin="round"/>
<path d="M1346.3 378.145C1346.97 375.275 1345.2 372.399 1342.33 371.721C1339.46 371.044 1336.58 372.821 1335.9 375.691C1335.22 378.561 1337 381.438 1339.87 382.115C1342.74 382.793 1345.62 381.016 1346.3 378.145Z" fill="#BA6FF3"/>
<path d="M1392.57 478.6C1394.65 476.515 1394.65 473.134 1392.57 471.048C1390.48 468.963 1387.1 468.963 1385.01 471.048C1382.93 473.134 1382.93 476.515 1385.01 478.6C1387.1 480.686 1390.48 480.686 1392.57 478.6Z" fill="#BA6FF3"/>
<path d="M1263.99 447.975C1264.66 445.105 1262.89 442.229 1260.02 441.551C1257.15 440.873 1254.27 442.651 1253.59 445.521C1252.91 448.391 1254.69 451.267 1257.56 451.945C1260.43 452.623 1263.31 450.845 1263.99 447.975Z" fill="#BA6FF3"/>
<path d="M1211.56 352.114C1213.64 350.028 1213.64 346.647 1211.56 344.562C1209.47 342.476 1206.09 342.476 1204.01 344.562C1201.92 346.647 1201.92 350.028 1204.01 352.114C1206.09 354.199 1209.47 354.199 1211.56 352.114Z" fill="#BA6FF3"/>
<path d="M1281.81 222.768C1282.49 219.897 1280.71 217.021 1277.84 216.344C1274.97 215.666 1272.09 217.443 1271.42 220.313C1270.74 223.183 1272.52 226.06 1275.39 226.737C1278.26 227.415 1281.13 225.638 1281.81 222.768Z" fill="#BA6FF3"/>
<path d="M1409.73 252.878C1410.4 250.008 1408.63 247.132 1405.76 246.454C1402.89 245.776 1400.01 247.553 1399.33 250.424C1398.65 253.294 1400.43 256.17 1403.3 256.848C1406.17 257.525 1409.05 255.748 1409.73 252.878Z" fill="#BA6FF3"/>
<path d="M1332.22 319.865C1332.9 316.995 1331.12 314.119 1328.25 313.441C1325.38 312.764 1322.51 314.541 1321.83 317.411C1321.15 320.281 1322.93 323.157 1325.8 323.835C1328.67 324.513 1331.54 322.736 1332.22 319.865Z" fill="#BA6FF3"/>
<path d="M1458.01 348.732C1458.68 345.862 1456.91 342.986 1454.04 342.308C1451.17 341.631 1448.29 343.408 1447.61 346.278C1446.94 349.148 1448.71 352.024 1451.58 352.702C1454.45 353.38 1457.33 351.602 1458.01 348.732Z" fill="#BA6FF3"/>
<path d="M1390.93 475.73L1257.17 447.5L1326.51 317.21L1454.11 345.8L1390.93 475.73ZM1260.37 446.01L1389.75 473.31L1451.04 347.28L1327.62 319.63L1260.37 446.01Z" fill="#BA6FF3"/>
<path d="M1258.76 449.03L1206.71 349.09L1276.21 218.49L1328.26 318.43L1258.76 449.03ZM1209.11 349.11L1258.79 444.49L1325.88 318.43L1276.2 223.05L1209.11 349.11Z" fill="#BA6FF3"/>
<path d="M1451.63 347.02L1403.4 251.26L1275.97 221.8L1276.44 219.74L1404.84 249.42L1453.52 346.07L1451.63 347.02Z" fill="#BA6FF3"/>
<path d="M1389.39 474.99L1341.76 378.47L1207.69 350.14L1208.13 348.06L1343.2 376.61L1391.29 474.05L1389.39 474.99Z" fill="#BA6FF3"/>
<path d="M1402.84 250.664L1341.54 376.429L1343.45 377.358L1404.74 251.593L1402.84 250.664Z" fill="#BA6FF3"/>
<path d="M330.11 439.53C314.64 439.53 299.66 431.18 291.95 416.57C286.58 406.4 285.5 394.74 288.9 383.75C292.3 372.76 299.77 363.75 309.95 358.38C330.95 347.3 357.05 355.37 368.13 376.37C379.21 397.37 371.14 423.47 350.14 434.55C343.75 437.93 336.88 439.53 330.11 439.53ZM329.97 354.96C323.44 354.96 316.83 356.5 310.66 359.75C300.85 364.93 293.64 373.61 290.37 384.21C287.09 394.81 288.14 406.05 293.32 415.85C300.75 429.94 315.2 437.99 330.12 437.99C336.65 437.99 343.26 436.45 349.43 433.2C369.68 422.51 377.46 397.35 366.78 377.1C359.33 363.01 344.89 354.96 329.97 354.96Z" fill="#BA6FF3"/>
<path d="M343.8 436.07C332.83 436.07 318.75 424.68 309.57 407.28C304.24 397.18 301.31 386.57 301.32 377.41C301.33 368.07 304.39 361.32 309.94 358.39C321.23 352.44 339.42 364.68 350.51 385.68C361.59 406.68 361.42 428.61 350.14 434.57C348.21 435.58 346.07 436.07 343.8 436.07ZM316.4 358.39C314.34 358.39 312.41 358.83 310.66 359.75C305.64 362.4 302.87 368.67 302.86 377.41C302.85 386.32 305.72 396.68 310.93 406.56C319.84 423.45 333.33 434.57 343.67 434.57C345.73 434.57 347.66 434.13 349.41 433.21C359.95 427.65 359.82 406.65 349.14 386.4C340.24 369.5 326.75 358.39 316.4 358.39Z" fill="#BA6FF3"/>
<path d="M367.152 376.195L292.623 415.545L293.342 416.907L367.871 377.557L367.152 376.195Z" fill="#BA6FF3"/>
<path d="M314.465 407.62C314.813 405.193 313.128 402.943 310.7 402.595C308.273 402.247 306.023 403.933 305.675 406.36C305.327 408.788 307.013 411.038 309.44 411.386C311.867 411.734 314.117 410.048 314.465 407.62Z" fill="#BA6FF3"/>
<path d="M354.216 386.639C354.564 384.212 352.879 381.962 350.451 381.614C348.024 381.266 345.774 382.952 345.426 385.379C345.078 387.806 346.764 390.056 349.191 390.404C351.619 390.752 353.869 389.067 354.216 386.639Z" fill="#BA6FF3"/>
<path d="M293.68 412.11C296.02 412.83 297.34 415.32 296.61 417.67C295.88 420.02 293.4 421.33 291.05 420.6C288.7 419.87 287.39 417.39 288.12 415.04C288.85 412.69 291.33 411.39 293.68 412.11Z" fill="#BA6FF3"/>
<path d="M368.85 372.45C371.19 373.17 372.51 375.66 371.78 378.01C371.06 380.35 368.57 381.67 366.22 380.94C363.88 380.22 362.56 377.73 363.29 375.38C364.02 373.03 366.51 371.72 368.85 372.45Z" fill="#BA6FF3"/>
<path d="M311.26 355.24C313.6 355.96 314.92 358.45 314.19 360.8C313.47 363.14 310.98 364.46 308.63 363.73C306.29 363.01 304.97 360.52 305.7 358.17C306.43 355.82 308.92 354.52 311.26 355.24Z" fill="#BA6FF3"/>
<path d="M350.07 428.79C352.41 429.51 353.73 432 353 434.35C352.28 436.69 349.79 438.01 347.44 437.28C345.1 436.56 343.78 434.07 344.51 431.72C345.23 429.38 347.72 428.07 350.07 428.79Z" fill="#BA6FF3"/>
<path d="M323.84 323.01C342.126 323.01 356.95 308.186 356.95 289.9C356.95 271.614 342.126 256.79 323.84 256.79C305.554 256.79 290.73 271.614 290.73 289.9C290.73 308.186 305.554 323.01 323.84 323.01Z" fill="#BA6FF3"/>
<path d="M323.84 316.27C338.404 316.27 350.21 304.464 350.21 289.9C350.21 275.336 338.404 263.53 323.84 263.53C309.276 263.53 297.47 275.336 297.47 289.9C297.47 304.464 309.276 316.27 323.84 316.27Z" fill="white"/>
<path d="M323.84 306.29C332.892 306.29 340.23 298.952 340.23 289.9C340.23 280.848 332.892 273.51 323.84 273.51C314.788 273.51 307.45 280.848 307.45 289.9C307.45 298.952 314.788 306.29 323.84 306.29Z" fill="#BA6FF3"/>
<path d="M318.79 321.85L328.74 321.87C329.02 321.87 329.25 322.07 329.31 322.34L330.07 326.09C330.14 326.45 329.87 326.79 329.5 326.79L318 326.76C317.63 326.76 317.36 326.42 317.43 326.06L318.21 322.32C318.27 322.04 318.51 321.85 318.79 321.85Z" fill="#BA6FF3"/>
<path d="M300.97 312.78L309 318.65C309.22 318.81 309.3 319.11 309.19 319.36L307.6 322.84C307.45 323.18 307.02 323.29 306.73 323.07L297.45 316.29C297.15 316.07 297.13 315.64 297.4 315.39L300.23 312.82C300.44 312.63 300.75 312.62 300.97 312.78Z" fill="#BA6FF3"/>
<path d="M291.89 294.97L294.94 304.44C295.02 304.7 294.91 304.99 294.67 305.13L291.34 307.01C291.02 307.19 290.61 307.03 290.5 306.68L286.98 295.74C286.87 295.39 287.1 295.02 287.47 294.98L291.27 294.57C291.55 294.54 291.81 294.71 291.89 294.97Z" fill="#BA6FF3"/>
<path d="M295.02 275.23L291.92 284.68C291.83 284.94 291.57 285.11 291.3 285.08L287.5 284.65C287.13 284.61 286.9 284.24 287.01 283.89L290.59 272.97C290.7 272.62 291.11 272.46 291.43 272.65L294.75 274.55C294.99 274.68 295.1 274.96 295.02 275.23Z" fill="#BA6FF3"/>
<path d="M309.15 261.09L301.09 266.92C300.87 267.08 300.56 267.06 300.35 266.88L297.53 264.3C297.26 264.05 297.28 263.61 297.58 263.4L306.89 256.67C307.19 256.45 307.61 256.57 307.76 256.9L309.33 260.39C309.45 260.63 309.37 260.93 309.15 261.09Z" fill="#BA6FF3"/>
<path d="M328.89 257.96L318.94 257.94C318.66 257.94 318.43 257.74 318.37 257.47L317.61 253.72C317.54 253.36 317.81 253.02 318.18 253.02L329.67 253.05C330.04 253.05 330.31 253.39 330.24 253.75L329.46 257.49C329.41 257.76 329.17 257.96 328.89 257.96Z" fill="#BA6FF3"/>
<path d="M346.71 267.03L338.68 261.16C338.46 261 338.38 260.7 338.49 260.45L340.08 256.97C340.23 256.63 340.66 256.52 340.95 256.74L350.23 263.52C350.53 263.74 350.55 264.17 350.28 264.42L347.45 266.99C347.24 267.17 346.93 267.19 346.71 267.03Z" fill="#BA6FF3"/>
<path d="M355.79 284.84L352.74 275.37C352.66 275.11 352.77 274.82 353.01 274.68L356.34 272.8C356.66 272.62 357.07 272.78 357.18 273.13L360.7 284.07C360.81 284.42 360.58 284.79 360.21 284.83L356.41 285.24C356.13 285.27 355.87 285.1 355.79 284.84Z" fill="#BA6FF3"/>
<path d="M352.66 304.58L355.76 295.13C355.85 294.87 356.11 294.7 356.38 294.73L360.18 295.16C360.55 295.2 360.78 295.57 360.67 295.92L357.09 306.84C356.98 307.19 356.57 307.35 356.25 307.16L352.93 305.26C352.69 305.13 352.58 304.85 352.66 304.58Z" fill="#BA6FF3"/>
<path d="M338.53 318.72L346.59 312.89C346.81 312.73 347.12 312.75 347.33 312.93L350.15 315.51C350.42 315.76 350.4 316.2 350.1 316.41L340.79 323.14C340.49 323.36 340.07 323.24 339.92 322.91L338.35 319.42C338.23 319.18 338.31 318.88 338.53 318.72Z" fill="#BA6FF3"/>
<path d="M323.84 297.37C327.966 297.37 331.31 294.026 331.31 289.9C331.31 285.774 327.966 282.43 323.84 282.43C319.715 282.43 316.37 285.774 316.37 289.9C316.37 294.026 319.715 297.37 323.84 297.37Z" fill="white"/>
<path d="M1253.47 538.32C1260 538.32 1265.29 533.028 1265.29 526.5C1265.29 519.972 1260 514.68 1253.47 514.68C1246.94 514.68 1241.65 519.972 1241.65 526.5C1241.65 533.028 1246.94 538.32 1253.47 538.32Z" fill="#BA6FF3"/>
<path d="M1291.87 516.69C1297.28 516.69 1301.69 521.09 1301.69 526.51C1301.69 531.92 1297.29 536.33 1291.87 536.33C1286.46 536.33 1282.05 531.93 1282.05 526.51C1282.05 521.09 1286.46 516.69 1291.87 516.69ZM1291.87 514.69C1285.34 514.69 1280.05 519.98 1280.05 526.51C1280.05 533.04 1285.34 538.33 1291.87 538.33C1298.4 538.33 1303.69 533.04 1303.69 526.51C1303.69 519.98 1298.4 514.69 1291.87 514.69Z" fill="#BA6FF3"/>
<path d="M1215.06 516.69C1220.47 516.69 1224.88 521.09 1224.88 526.51C1224.88 531.92 1220.48 536.33 1215.06 536.33C1209.65 536.33 1205.24 531.93 1205.24 526.51C1205.24 521.09 1209.65 516.69 1215.06 516.69ZM1215.06 514.69C1208.53 514.69 1203.24 519.98 1203.24 526.51C1203.24 533.04 1208.53 538.33 1215.06 538.33C1221.59 538.33 1226.88 533.04 1226.88 526.51C1226.88 519.98 1221.59 514.69 1215.06 514.69Z" fill="#BA6FF3"/>
<path d="M1330.28 516.69C1335.69 516.69 1340.1 521.09 1340.1 526.51C1340.1 531.92 1335.7 536.33 1330.28 536.33C1324.86 536.33 1320.46 531.93 1320.46 526.51C1320.46 521.09 1324.86 516.69 1330.28 516.69ZM1330.28 514.69C1323.75 514.69 1318.46 519.98 1318.46 526.51C1318.46 533.04 1323.75 538.33 1330.28 538.33C1336.81 538.33 1342.1 533.04 1342.1 526.51C1342.1 519.98 1336.8 514.69 1330.28 514.69Z" fill="#BA6FF3"/>
<path d="M1368.68 516.69C1374.09 516.69 1378.5 521.09 1378.5 526.51C1378.5 531.92 1374.1 536.33 1368.68 536.33C1363.27 536.33 1358.86 531.93 1358.86 526.51C1358.86 521.09 1363.27 516.69 1368.68 516.69ZM1368.68 514.69C1362.15 514.69 1356.86 519.98 1356.86 526.51C1356.86 533.04 1362.15 538.33 1368.68 538.33C1375.21 538.33 1380.5 533.04 1380.5 526.51C1380.5 519.98 1375.21 514.69 1368.68 514.69Z" fill="#BA6FF3"/>
<path d="M1407.08 516.69C1412.49 516.69 1416.9 521.09 1416.9 526.51C1416.9 531.92 1412.5 536.33 1407.08 536.33C1401.67 536.33 1397.26 531.93 1397.26 526.51C1397.27 521.09 1401.67 516.69 1407.08 516.69ZM1407.08 514.69C1400.55 514.69 1395.26 519.98 1395.26 526.51C1395.26 533.04 1400.55 538.33 1407.08 538.33C1413.61 538.33 1418.9 533.04 1418.9 526.51C1418.9 519.98 1413.61 514.69 1407.08 514.69Z" fill="#BA6FF3"/>
<path d="M1445.49 516.69C1450.9 516.69 1455.31 521.09 1455.31 526.51C1455.31 531.92 1450.91 536.33 1445.49 536.33C1440.08 536.33 1435.67 531.93 1435.67 526.51C1435.67 521.09 1440.08 516.69 1445.49 516.69ZM1445.49 514.69C1438.96 514.69 1433.67 519.98 1433.67 526.51C1433.67 533.04 1438.96 538.33 1445.49 538.33C1452.02 538.33 1457.31 533.04 1457.31 526.51C1457.31 519.98 1452.02 514.69 1445.49 514.69Z" fill="#BA6FF3"/>
<defs>
<linearGradient id="paint0_linear_2_1135" x1="879.132" y1="926.53" x2="879.132" y2="244.995" gradientUnits="userSpaceOnUse">
<stop offset="5.32779e-09" stop-color="#BA6FF3"/>
<stop offset="0.00290638" stop-color="#BA70F3"/>
<stop offset="0.2474" stop-color="#D3A2F7"/>
<stop offset="0.4773" stop-color="#E6CBFB"/>
<stop offset="0.6863" stop-color="#F4E7FD"/>
<stop offset="0.8674" stop-color="#FCF9FE"/>
<stop offset="1" stop-color="white"/>
</linearGradient>
<radialGradient id="paint1_radial_2_1135" cx="0" cy="0" r="1" gradientUnits="userSpaceOnUse" gradientTransform="translate(900 248.723) scale(543.364 543.364)">
<stop stop-color="#070707"/>
<stop offset="0.6776" stop-color="#090909"/>
<stop offset="0.9214" stop-color="#101010"/>
<stop offset="1" stop-color="#141414"/>
</radialGradient>
<radialGradient id="paint2_radial_2_1135" cx="0" cy="0" r="1" gradientUnits="userSpaceOnUse" gradientTransform="translate(900 350.292) scale(541.364 541.364)">
<stop stop-color="#070707"/>
<stop offset="0.6776" stop-color="#090909"/>
<stop offset="0.9214" stop-color="#101010"/>
<stop offset="1" stop-color="#141414"/>
</radialGradient>
<radialGradient id="paint3_radial_2_1135" cx="0" cy="0" r="1" gradientUnits="userSpaceOnUse" gradientTransform="translate(900 451.861) scale(539.93 539.93)">
<stop stop-color="#070707"/>
<stop offset="0.6776" stop-color="#090909"/>
<stop offset="0.9214" stop-color="#101010"/>
<stop offset="1" stop-color="#141414"/>
</radialGradient>
<radialGradient id="paint4_radial_2_1135" cx="0" cy="0" r="1" gradientUnits="userSpaceOnUse" gradientTransform="translate(900 553.43) scale(539.067 539.067)">
<stop stop-color="#070707"/>
<stop offset="0.6776" stop-color="#090909"/>
<stop offset="0.9214" stop-color="#101010"/>
<stop offset="1" stop-color="#141414"/>
</radialGradient>
<radialGradient id="paint5_radial_2_1135" cx="0" cy="0" r="1" gradientUnits="userSpaceOnUse" gradientTransform="translate(-nan -nan) rotate(-nan) scale(-nan -nan)">
<stop stop-color="#070707"/>
<stop offset="0.6776" stop-color="#090909"/>
<stop offset="0.9214" stop-color="#101010"/>
<stop offset="1" stop-color="#141414"/>
</radialGradient>
<radialGradient id="paint6_radial_2_1135" cx="0" cy="0" r="1" gradientUnits="userSpaceOnUse" gradientTransform="translate(900 857.937) scale(539.93 539.93)">
<stop stop-color="#070707"/>
<stop offset="0.6776" stop-color="#090909"/>
<stop offset="0.9214" stop-color="#101010"/>
<stop offset="1" stop-color="#141414"/>
</radialGradient>
<radialGradient id="paint7_radial_2_1135" cx="0" cy="0" r="1" gradientUnits="userSpaceOnUse" gradientTransform="translate(900 756.368) scale(539.067 539.067)">
<stop stop-color="#070707"/>
<stop offset="0.6776" stop-color="#090909"/>
<stop offset="0.9214" stop-color="#101010"/>
<stop offset="1" stop-color="#141414"/>
</radialGradient>
<linearGradient id="paint8_linear_2_1135" x1="-nan" y1="-nan" x2="-nan" y2="-nan" gradientUnits="userSpaceOnUse">
<stop stop-color="#070707"/>
<stop offset="0.6042" stop-color="#090909"/>
<stop offset="0.8216" stop-color="#101010"/>
<stop offset="0.9763" stop-color="#1B1B1B"/>
<stop offset="1" stop-color="#1E1E1E"/>
</linearGradient>
<linearGradient id="paint9_linear_2_1135" x1="-nan" y1="-nan" x2="-nan" y2="-nan" gradientUnits="userSpaceOnUse">
<stop stop-color="#070707"/>
<stop offset="0.6042" stop-color="#090909"/>
<stop offset="0.8216" stop-color="#101010"/>
<stop offset="0.9763" stop-color="#1B1B1B"/>
<stop offset="1" stop-color="#1E1E1E"/>
</linearGradient>
<linearGradient id="paint10_linear_2_1135" x1="-nan" y1="-nan" x2="-nan" y2="-nan" gradientUnits="userSpaceOnUse">
<stop stop-color="#070707"/>
<stop offset="0.6042" stop-color="#090909"/>
<stop offset="0.8216" stop-color="#101010"/>
<stop offset="0.9763" stop-color="#1B1B1B"/>
<stop offset="1" stop-color="#1E1E1E"/>
</linearGradient>
<linearGradient id="paint11_linear_2_1135" x1="-nan" y1="-nan" x2="-nan" y2="-nan" gradientUnits="userSpaceOnUse">
<stop stop-color="#070707"/>
<stop offset="0.6042" stop-color="#090909"/>
<stop offset="0.8216" stop-color="#101010"/>
<stop offset="0.9763" stop-color="#1B1B1B"/>
<stop offset="1" stop-color="#1E1E1E"/>
</linearGradient>
<linearGradient id="paint12_linear_2_1135" x1="-nan" y1="-nan" x2="-nan" y2="-nan" gradientUnits="userSpaceOnUse">
<stop stop-color="#070707"/>
<stop offset="0.6042" stop-color="#090909"/>
<stop offset="0.8216" stop-color="#101010"/>
<stop offset="0.9763" stop-color="#1B1B1B"/>
<stop offset="1" stop-color="#1E1E1E"/>
</linearGradient>
<linearGradient id="paint13_linear_2_1135" x1="-nan" y1="-nan" x2="-nan" y2="-nan" gradientUnits="userSpaceOnUse">
<stop stop-color="#070707"/>
<stop offset="0.6042" stop-color="#090909"/>
<stop offset="0.8216" stop-color="#101010"/>
<stop offset="0.9763" stop-color="#1B1B1B"/>
<stop offset="1" stop-color="#1E1E1E"/>
</linearGradient>
<linearGradient id="paint14_linear_2_1135" x1="-nan" y1="-nan" x2="-nan" y2="-nan" gradientUnits="userSpaceOnUse">
<stop stop-color="#070707"/>
<stop offset="0.6042" stop-color="#090909"/>
<stop offset="0.8216" stop-color="#101010"/>
<stop offset="0.9763" stop-color="#1B1B1B"/>
<stop offset="1" stop-color="#1E1E1E"/>
</linearGradient>
<linearGradient id="paint15_linear_2_1135" x1="-nan" y1="-nan" x2="-nan" y2="-nan" gradientUnits="userSpaceOnUse">
<stop stop-color="#070707"/>
<stop offset="0.6042" stop-color="#090909"/>
<stop offset="0.8216" stop-color="#101010"/>
<stop offset="0.9763" stop-color="#1B1B1B"/>
<stop offset="1" stop-color="#1E1E1E"/>
</linearGradient>
<linearGradient id="paint16_linear_2_1135" x1="-nan" y1="-nan" x2="-nan" y2="-nan" gradientUnits="userSpaceOnUse">
<stop stop-color="#070707"/>
<stop offset="0.6042" stop-color="#090909"/>
<stop offset="0.8216" stop-color="#101010"/>
<stop offset="0.9763" stop-color="#1B1B1B"/>
<stop offset="1" stop-color="#1E1E1E"/>
</linearGradient>
<linearGradient id="paint17_linear_2_1135" x1="-nan" y1="-nan" x2="-nan" y2="-nan" gradientUnits="userSpaceOnUse">
<stop stop-color="#070707"/>
<stop offset="0.6042" stop-color="#090909"/>
<stop offset="0.8216" stop-color="#101010"/>
<stop offset="0.9763" stop-color="#1B1B1B"/>
<stop offset="1" stop-color="#1E1E1E"/>
</linearGradient>
<linearGradient id="paint18_linear_2_1135" x1="-nan" y1="-nan" x2="-nan" y2="-nan" gradientUnits="userSpaceOnUse">
<stop stop-color="#070707"/>
<stop offset="0.6042" stop-color="#090909"/>
<stop offset="0.8216" stop-color="#101010"/>
<stop offset="0.9763" stop-color="#1B1B1B"/>
<stop offset="1" stop-color="#1E1E1E"/>
</linearGradient>
</defs>
</svg>
