<svg width="1800" height="1200" viewBox="0 0 1800 1200" fill="none" xmlns="http://www.w3.org/2000/svg">
<path d="M322.25 185.04V1107.61" stroke="#070707" stroke-width="0.3721" stroke-miterlimit="10"/>
<path d="M427.29 185.04V1107.61" stroke="#070707" stroke-width="0.3721" stroke-miterlimit="10"/>
<path d="M217.2 185.04V1107.61" stroke="#070707" stroke-width="0.3721" stroke-miterlimit="10"/>
<path d="M532.34 185.04V1107.61" stroke="#070707" stroke-width="0.3721" stroke-miterlimit="10"/>
<path d="M637.39 185.04V1107.61" stroke="#070707" stroke-width="0.3721" stroke-miterlimit="10"/>
<path d="M742.43 185.04V1107.61" stroke="#070707" stroke-width="0.3721" stroke-miterlimit="10"/>
<path d="M847.48 185.04V1107.61" stroke="#070707" stroke-width="0.3721" stroke-miterlimit="10"/>
<path d="M952.52 185.04V1107.61" stroke="#070707" stroke-width="0.3721" stroke-miterlimit="10"/>
<path d="M1057.57 185.04V1107.61" stroke="#070707" stroke-width="0.3721" stroke-miterlimit="10"/>
<path d="M1162.61 185.04V1107.61" stroke="#070707" stroke-width="0.3721" stroke-miterlimit="10"/>
<path d="M1267.66 185.04V1107.61" stroke="#070707" stroke-width="0.3721" stroke-miterlimit="10"/>
<path d="M1372.71 185.04V1107.61" stroke="#070707" stroke-width="0.3721" stroke-miterlimit="10"/>
<path d="M1477.75 185.04V1107.61" stroke="#070707" stroke-width="0.3721" stroke-miterlimit="10"/>
<path d="M1582.8 185.04V1107.61" stroke="#070707" stroke-width="0.3721" stroke-miterlimit="10"/>
<path d="M1661.66 278.44L138.15 278.89" stroke="#070707" stroke-width="0.4064" stroke-miterlimit="10"/>
<path d="M1661.69 383.48L138.18 383.94" stroke="#070707" stroke-width="0.4064" stroke-miterlimit="10"/>
<path d="M1661.73 488.53L138.21 488.99" stroke="#070707" stroke-width="0.4064" stroke-miterlimit="10"/>
<path d="M1661.76 593.57L138.24 594.03" stroke="#070707" stroke-width="0.4064" stroke-miterlimit="10"/>
<path d="M1661.79 698.62L138.27 699.08" stroke="#070707" stroke-width="0.4064" stroke-miterlimit="10"/>
<path d="M1661.82 803.67L138.31 804.12" stroke="#070707" stroke-width="0.4064" stroke-miterlimit="10"/>
<path d="M1661.85 908.71L138.34 909.17" stroke="#070707" stroke-width="0.4064" stroke-miterlimit="10"/>
<path d="M1661.88 1013.76L138.37 1014.21" stroke="#070707" stroke-width="0.4064" stroke-miterlimit="10"/>
<path d="M326.73 688.44L326.26 638.72L325.93 589L325.65 539.28C325.53 522.71 325.55 506.13 325.49 489.56L325.48 487.98H327.07C373.09 487.9 419.1 487.7 465.12 487.79L534.15 488.09L603.18 488.5C695.21 489.08 787.25 489.06 879.28 488.46C971.31 487.82 1063.35 487.69 1155.38 487.49C1247.41 487.3 1339.45 487.51 1431.48 487.91L1433.13 487.92L1433.12 489.55L1432.9 539.27L1432.59 588.99L1432.24 638.71L1431.8 688.43H1431.16L1430.72 638.71L1430.37 588.99L1430.06 539.27L1429.84 489.55L1431.48 491.19C1339.45 491.59 1247.41 491.81 1155.38 491.61C1063.35 491.41 971.31 491.28 879.28 490.64C787.25 490.04 695.21 490.02 603.18 490.6L534.15 491.01L465.12 491.31C419.1 491.4 373.09 491.2 327.07 491.12L328.65 489.54C328.59 506.11 328.61 522.69 328.49 539.26L328.21 589L327.87 638.72L327.4 688.44H326.73Z" fill="#BA6FF3"/>
<path d="M335.05 686.11L327.07 699.92L319.09 686.11H335.05Z" fill="#BA6FF3"/>
<path d="M1423.51 686.11L1431.49 699.92L1439.46 686.11H1423.51Z" fill="#BA6FF3"/>
<path d="M423.32 689L422.74 641.87L422.37 594.74L422.36 593.42L423.71 593.41C442.39 593.23 461.06 593.2 479.74 593.14L535.77 592.96C554.45 592.95 573.12 592.97 591.8 593.07L647.83 593.5L703.86 593.96L759.89 594.15L815.92 594.02L871.95 593.66L927.98 593.24L984.01 592.96L1096.06 592.64H1152.09L1208.12 592.79L1264.15 593.08L1320.18 593.44L1321.52 593.45L1321.51 594.77L1321.11 641.9L1320.56 689.03H1319.83L1319.28 641.9L1318.88 594.77L1320.2 596.09L1264.17 596.45L1208.14 596.74L1152.11 596.89H1096.08L984.03 596.57L928 596.29L871.97 595.87L815.94 595.51L759.91 595.38L703.88 595.57L647.85 596.03L591.82 596.46C573.14 596.56 554.47 596.58 535.79 596.57L479.76 596.39C461.08 596.33 442.41 596.3 423.73 596.12L425.06 594.79L424.69 641.92L424.09 689H423.32Z" fill="#BA6FF3"/>
<path d="M431.68 686.66L423.71 700.48L415.73 686.66H431.68Z" fill="#BA6FF3"/>
<path d="M1312.13 686.66L1320.11 700.48L1328.09 686.66H1312.13Z" fill="#BA6FF3"/>
<path d="M496.82 981.73C497 988.62 497.07 995.52 497.19 1002.41L497.33 1023.09L497.34 1023.97L496.45 1023.98C493.06 1024 489.66 1023.96 486.27 1023.95C482.88 1023.94 479.48 1023.92 476.09 1023.85L455.73 1023.5C442.16 1023.36 428.58 1023.41 415.01 1023.65C401.44 1023.9 387.86 1024.02 374.29 1024.09C360.72 1024.22 347.14 1024.12 333.57 1024.08H332.58L332.59 1023.1L332.82 1002.42C332.95 995.53 333.04 988.63 333.21 981.74H333.93C334.11 988.63 334.2 995.53 334.32 1002.42L334.55 1023.1L333.57 1022.12C347.14 1022.08 360.72 1021.98 374.29 1022.11C387.86 1022.18 401.44 1022.3 415.01 1022.55C428.58 1022.79 442.16 1022.84 455.73 1022.7L476.09 1022.35C479.48 1022.28 482.88 1022.26 486.27 1022.24C489.66 1022.23 493.06 1022.18 496.45 1022.21L495.56 1023.1L495.7 1002.42C495.82 995.53 495.89 988.63 496.07 981.74H496.82V981.73Z" fill="#BA6FF3"/>
<path d="M489.45 983.78L496.43 971.69L503.41 983.78H489.45Z" fill="#BA6FF3"/>
<path d="M340.52 983.78L333.54 971.69L326.56 983.78H340.52Z" fill="#BA6FF3"/>
<path d="M1448.94 718.02L1457.72 717.72L1466.5 717.47C1472.36 717.33 1478.21 717.21 1484.07 717.14L1485.66 717.12L1485.68 718.75C1485.82 728.95 1485.9 739.15 1485.84 749.34C1485.78 754.44 1485.69 759.54 1485.54 764.64L1485.13 779.94C1484.46 800.34 1484.61 820.73 1485.17 841.13C1485.43 851.33 1485.72 861.53 1485.83 871.72L1486.14 902.31C1486.33 922.71 1486.13 943.1 1485.74 963.5L1485.71 965.19L1484.08 965.16C1478.22 965.06 1472.37 964.91 1466.51 964.73C1460.65 964.56 1454.8 964.43 1448.94 964.18V962.82C1454.8 962.57 1460.65 962.44 1466.51 962.27C1472.37 962.09 1478.22 961.94 1484.08 961.84L1482.42 963.5C1482.03 943.1 1481.83 922.71 1482.02 902.31L1482.33 871.72C1482.44 861.52 1482.73 851.32 1482.99 841.13C1483.55 820.73 1483.7 800.34 1483.03 779.94L1482.62 764.64C1482.46 759.54 1482.38 754.44 1482.32 749.34C1482.26 739.14 1482.34 728.94 1482.48 718.75L1484.09 720.36C1478.23 720.29 1472.38 720.17 1466.52 720.03L1457.74 719.78L1448.96 719.48V718.02H1448.94Z" fill="#BA6FF3"/>
<path d="M1451.27 726.74L1437.46 718.76L1451.27 710.78V726.74Z" fill="#BA6FF3"/>
<path d="M1451.27 955.53L1437.46 963.51L1451.27 971.48V955.53Z" fill="#BA6FF3"/>
<path d="M779.361 237.472H772.315C771.899 235.445 771.169 233.665 770.128 232.131C769.105 230.597 767.855 229.309 766.378 228.267C764.919 227.207 763.3 226.411 761.52 225.881C759.739 225.351 757.883 225.085 755.952 225.085C752.429 225.085 749.238 225.976 746.378 227.756C743.537 229.536 741.274 232.159 739.588 235.625C737.921 239.091 737.088 243.343 737.088 248.381C737.088 253.419 737.921 257.671 739.588 261.137C741.274 264.602 743.537 267.226 746.378 269.006C749.238 270.786 752.429 271.676 755.952 271.676C757.883 271.676 759.739 271.411 761.52 270.881C763.3 270.351 764.919 269.565 766.378 268.523C767.855 267.462 769.105 266.165 770.128 264.631C771.169 263.078 771.899 261.298 772.315 259.29H779.361C778.83 262.263 777.864 264.924 776.463 267.273C775.061 269.621 773.319 271.62 771.236 273.267C769.152 274.896 766.813 276.137 764.219 276.989C761.643 277.841 758.887 278.267 755.952 278.267C750.989 278.267 746.577 277.055 742.713 274.631C738.849 272.207 735.81 268.76 733.594 264.29C731.378 259.82 730.27 254.517 730.27 248.381C730.27 242.245 731.378 236.941 733.594 232.472C735.81 228.002 738.849 224.555 742.713 222.131C746.577 219.707 750.989 218.495 755.952 218.495C758.887 218.495 761.643 218.921 764.219 219.773C766.813 220.625 769.152 221.875 771.236 223.523C773.319 225.152 775.061 227.14 776.463 229.489C777.864 231.818 778.83 234.479 779.361 237.472ZM808.132 278.381C803.927 278.381 800.301 277.453 797.251 275.597C794.221 273.722 791.882 271.108 790.234 267.756C788.605 264.385 787.791 260.464 787.791 255.995C787.791 251.525 788.605 247.585 790.234 244.176C791.882 240.748 794.174 238.078 797.109 236.165C800.064 234.233 803.511 233.267 807.45 233.267C809.723 233.267 811.967 233.646 814.183 234.404C816.399 235.161 818.416 236.392 820.234 238.097C822.052 239.782 823.501 242.017 824.581 244.801C825.66 247.585 826.2 251.013 826.2 255.085V257.926H792.564V252.131H819.382C819.382 249.669 818.89 247.472 817.905 245.54C816.939 243.608 815.556 242.084 813.757 240.966C811.977 239.849 809.874 239.29 807.45 239.29C804.78 239.29 802.469 239.953 800.518 241.279C798.587 242.585 797.1 244.29 796.058 246.392C795.016 248.495 794.496 250.748 794.496 253.154V257.017C794.496 260.313 795.064 263.106 796.2 265.398C797.355 267.671 798.956 269.404 801.001 270.597C803.047 271.771 805.424 272.358 808.132 272.358C809.893 272.358 811.484 272.112 812.905 271.62C814.344 271.108 815.585 270.351 816.626 269.347C817.668 268.324 818.473 267.055 819.041 265.54L825.518 267.358C824.837 269.555 823.691 271.487 822.081 273.154C820.471 274.801 818.482 276.089 816.115 277.017C813.748 277.926 811.087 278.381 808.132 278.381ZM836.399 293.835V233.835H842.876V240.767H843.672C844.164 240.01 844.846 239.044 845.717 237.87C846.607 236.676 847.876 235.616 849.524 234.688C851.191 233.741 853.445 233.267 856.285 233.267C859.96 233.267 863.198 234.186 866.001 236.023C868.804 237.86 870.992 240.464 872.564 243.835C874.136 247.207 874.922 251.184 874.922 255.767C874.922 260.388 874.136 264.394 872.564 267.784C870.992 271.156 868.814 273.769 866.03 275.625C863.246 277.462 860.035 278.381 856.399 278.381C853.596 278.381 851.352 277.917 849.666 276.989C847.98 276.042 846.683 274.972 845.774 273.779C844.865 272.566 844.164 271.563 843.672 270.767H843.104V293.835H836.399ZM842.99 255.654C842.99 258.949 843.473 261.856 844.439 264.375C845.405 266.875 846.816 268.835 848.672 270.256C850.528 271.657 852.801 272.358 855.49 272.358C858.293 272.358 860.632 271.62 862.507 270.142C864.401 268.646 865.821 266.638 866.768 264.12C867.734 261.582 868.217 258.76 868.217 255.654C868.217 252.585 867.744 249.82 866.797 247.358C865.869 244.877 864.458 242.917 862.564 241.477C860.689 240.019 858.331 239.29 855.49 239.29C852.763 239.29 850.471 239.981 848.615 241.364C846.759 242.727 845.357 244.64 844.41 247.102C843.463 249.546 842.99 252.396 842.99 255.654ZM891.854 251.222V277.472H885.149V219.29H891.854V240.654H892.422C893.445 238.4 894.979 236.61 897.024 235.284C899.088 233.94 901.835 233.267 905.263 233.267C908.236 233.267 910.84 233.864 913.075 235.057C915.31 236.231 917.043 238.04 918.274 240.483C919.524 242.907 920.149 245.995 920.149 249.745V277.472H913.445V250.199C913.445 246.733 912.545 244.053 910.746 242.159C908.965 240.246 906.494 239.29 903.331 239.29C901.134 239.29 899.164 239.754 897.422 240.682C895.698 241.61 894.335 242.964 893.331 244.745C892.346 246.525 891.854 248.684 891.854 251.222ZM950.71 278.381C946.506 278.381 942.879 277.453 939.829 275.597C936.799 273.722 934.46 271.108 932.812 267.756C931.184 264.385 930.369 260.464 930.369 255.995C930.369 251.525 931.184 247.585 932.812 244.176C934.46 240.748 936.752 238.078 939.687 236.165C942.642 234.233 946.089 233.267 950.028 233.267C952.301 233.267 954.545 233.646 956.761 234.404C958.977 235.161 960.994 236.392 962.812 238.097C964.631 239.782 966.079 242.017 967.159 244.801C968.239 247.585 968.778 251.013 968.778 255.085V257.926H935.142V252.131H961.96C961.96 249.669 961.468 247.472 960.483 245.54C959.517 243.608 958.134 242.084 956.335 240.966C954.555 239.849 952.453 239.29 950.028 239.29C947.358 239.29 945.047 239.953 943.097 241.279C941.165 242.585 939.678 244.29 938.636 246.392C937.595 248.495 937.074 250.748 937.074 253.154V257.017C937.074 260.313 937.642 263.106 938.778 265.398C939.934 267.671 941.534 269.404 943.579 270.597C945.625 271.771 948.002 272.358 950.71 272.358C952.472 272.358 954.062 272.112 955.483 271.62C956.922 271.108 958.163 270.351 959.204 269.347C960.246 268.324 961.051 267.055 961.619 265.54L968.097 267.358C967.415 269.555 966.269 271.487 964.659 273.154C963.049 274.801 961.061 276.089 958.693 277.017C956.326 277.926 953.665 278.381 950.71 278.381ZM1006.48 259.631V233.835H1013.18V277.472H1006.48V270.085H1006.02C1005 272.301 1003.41 274.186 1001.25 275.739C999.091 277.273 996.364 278.04 993.068 278.04C990.341 278.04 987.917 277.443 985.795 276.25C983.674 275.038 982.007 273.22 980.795 270.796C979.583 268.352 978.977 265.275 978.977 261.563V233.835H985.682V261.108C985.682 264.29 986.572 266.828 988.352 268.722C990.151 270.616 992.443 271.563 995.227 271.563C996.894 271.563 998.589 271.137 1000.31 270.284C1002.05 269.432 1003.51 268.125 1004.69 266.364C1005.88 264.602 1006.48 262.358 1006.48 259.631ZM1056.37 243.608L1050.35 245.313C1049.97 244.309 1049.41 243.334 1048.67 242.387C1047.95 241.421 1046.97 240.625 1045.72 240C1044.47 239.375 1042.87 239.063 1040.92 239.063C1038.25 239.063 1036.02 239.678 1034.24 240.909C1032.48 242.121 1031.6 243.665 1031.6 245.54C1031.6 247.207 1032.2 248.523 1033.42 249.489C1034.63 250.455 1036.52 251.26 1039.1 251.904L1045.58 253.495C1049.48 254.441 1052.38 255.89 1054.3 257.841C1056.21 259.773 1057.17 262.263 1057.17 265.313C1057.17 267.813 1056.45 270.048 1055.01 272.017C1053.59 273.987 1051.6 275.54 1049.04 276.676C1046.48 277.813 1043.51 278.381 1040.12 278.381C1035.67 278.381 1031.99 277.415 1029.07 275.483C1026.15 273.551 1024.31 270.729 1023.53 267.017L1029.89 265.426C1030.5 267.775 1031.65 269.536 1033.33 270.71C1035.04 271.885 1037.26 272.472 1040.01 272.472C1043.13 272.472 1045.61 271.809 1047.45 270.483C1049.31 269.138 1050.23 267.529 1050.23 265.654C1050.23 264.138 1049.7 262.87 1048.64 261.847C1047.58 260.805 1045.95 260.029 1043.76 259.517L1036.48 257.813C1032.49 256.866 1029.55 255.398 1027.68 253.409C1025.82 251.402 1024.89 248.892 1024.89 245.881C1024.89 243.419 1025.58 241.241 1026.97 239.347C1028.37 237.453 1030.27 235.966 1032.68 234.887C1035.1 233.807 1037.85 233.267 1040.92 233.267C1045.23 233.267 1048.62 234.214 1051.09 236.108C1053.57 238.002 1055.33 240.502 1056.37 243.608Z" fill="#BA6FF3"/>
<path d="M779.361 237.472V238.222H780.255L780.099 237.341L779.361 237.472ZM772.315 237.472L771.581 237.623L771.704 238.222H772.315V237.472ZM770.128 232.131L769.504 232.547L769.507 232.552L770.128 232.131ZM766.378 228.267L765.937 228.874L765.946 228.88L766.378 228.267ZM761.52 225.881L761.306 226.6L761.306 226.6L761.52 225.881ZM746.378 227.756L745.981 227.119L745.979 227.12L746.378 227.756ZM739.588 235.625L738.914 235.297L738.912 235.3L739.588 235.625ZM739.588 261.137L738.912 261.462L738.914 261.465L739.588 261.137ZM746.378 269.006L745.979 269.641L745.981 269.643L746.378 269.006ZM761.52 270.881L761.306 270.162L761.306 270.162L761.52 270.881ZM766.378 268.523L766.814 269.133L766.815 269.132L766.378 268.523ZM770.128 264.631L769.505 264.213L769.504 264.215L770.128 264.631ZM772.315 259.29V258.54H771.705L771.581 259.138L772.315 259.29ZM779.361 259.29L780.099 259.422L780.256 258.54H779.361V259.29ZM776.463 267.273L775.819 266.889L775.819 266.889L776.463 267.273ZM771.236 273.267L771.698 273.858L771.701 273.856L771.236 273.267ZM764.219 276.989L763.985 276.276L763.983 276.277L764.219 276.989ZM742.713 274.631L742.314 275.266L742.314 275.266L742.713 274.631ZM733.594 264.29L734.266 263.957L734.266 263.957L733.594 264.29ZM733.594 232.472L732.922 232.139L733.594 232.472ZM764.219 219.773L763.983 220.485L763.985 220.485L764.219 219.773ZM771.236 223.523L770.77 224.111L770.774 224.114L771.236 223.523ZM776.463 229.489L775.819 229.873L775.82 229.875L776.463 229.489ZM779.361 236.722H772.315V238.222H779.361V236.722ZM773.05 237.321C772.616 235.209 771.851 233.334 770.748 231.71L769.507 232.552C770.487 233.996 771.182 235.682 771.581 237.623L773.05 237.321ZM770.752 231.715C769.679 230.105 768.364 228.75 766.81 227.654L765.946 228.88C767.346 229.868 768.531 231.088 769.504 232.547L770.752 231.715ZM766.819 227.661C765.29 226.549 763.593 225.716 761.734 225.162L761.306 226.6C763.007 227.106 764.549 227.865 765.937 228.874L766.819 227.661ZM761.734 225.162C759.881 224.61 757.953 224.335 755.952 224.335V225.835C757.814 225.835 759.598 226.091 761.306 226.6L761.734 225.162ZM755.952 224.335C752.295 224.335 748.966 225.261 745.981 227.119L746.774 228.393C749.509 226.69 752.562 225.835 755.952 225.835V224.335ZM745.979 227.12C743.003 228.986 740.651 231.724 738.914 235.297L740.262 235.953C741.896 232.594 744.071 230.086 746.776 228.391L745.979 227.12ZM738.912 235.3C737.184 238.894 736.338 243.264 736.338 248.381H737.838C737.838 243.422 738.659 239.288 740.264 235.95L738.912 235.3ZM736.338 248.381C736.338 253.498 737.184 257.868 738.912 261.462L740.264 260.812C738.659 257.473 737.838 253.34 737.838 248.381H736.338ZM738.914 261.465C740.651 265.038 743.003 267.776 745.979 269.641L746.776 268.37C744.071 266.675 741.896 264.167 740.262 260.809L738.914 261.465ZM745.981 269.643C748.966 271.5 752.295 272.426 755.952 272.426V270.926C752.562 270.926 749.509 270.072 746.774 268.369L745.981 269.643ZM755.952 272.426C757.953 272.426 759.881 272.151 761.734 271.6L761.306 270.162C759.598 270.671 757.814 270.926 755.952 270.926V272.426ZM761.734 271.6C763.591 271.047 765.285 270.225 766.814 269.133L765.942 267.913C764.553 268.904 763.01 269.655 761.306 270.162L761.734 271.6ZM766.815 269.132C768.367 268.018 769.68 266.655 770.752 265.047L769.504 264.215C768.53 265.675 767.343 266.906 765.94 267.914L766.815 269.132ZM770.751 265.049C771.851 263.408 772.615 261.536 773.05 259.442L771.581 259.138C771.182 261.06 770.488 262.748 769.505 264.213L770.751 265.049ZM772.315 260.04H779.361V258.54H772.315V260.04ZM778.622 259.158C778.106 262.052 777.169 264.626 775.819 266.889L777.107 267.657C778.56 265.223 779.555 262.475 780.099 259.422L778.622 259.158ZM775.819 266.889C774.463 269.161 772.78 271.089 770.77 272.679L771.701 273.856C773.858 272.15 775.66 270.082 777.107 267.657L775.819 266.889ZM770.774 272.676C768.761 274.25 766.5 275.45 763.985 276.276L764.453 277.701C767.127 276.823 769.544 275.542 771.698 273.858L770.774 272.676ZM763.983 276.277C761.489 277.102 758.814 277.517 755.952 277.517V279.017C758.961 279.017 761.797 278.58 764.454 277.701L763.983 276.277ZM755.952 277.517C751.118 277.517 746.845 276.338 743.112 273.996L742.314 275.266C746.308 277.772 750.861 279.017 755.952 279.017V277.517ZM743.112 273.996C739.376 271.652 736.426 268.315 734.266 263.957L732.922 264.623C735.193 269.205 738.323 272.762 742.314 275.266L743.112 273.996ZM734.266 263.957C732.111 259.612 731.02 254.428 731.02 248.381H729.52C729.52 254.607 730.644 260.029 732.922 264.623L734.266 263.957ZM731.02 248.381C731.02 242.334 732.111 237.15 734.266 232.805L732.922 232.139C730.644 236.733 729.52 242.155 729.52 248.381H731.02ZM734.266 232.805C736.426 228.447 739.376 225.11 743.112 222.766L742.314 221.496C738.323 224 735.193 227.557 732.922 232.139L734.266 232.805ZM743.112 222.766C746.845 220.423 751.118 219.245 755.952 219.245V217.745C750.861 217.745 746.308 218.99 742.314 221.496L743.112 222.766ZM755.952 219.245C758.814 219.245 761.489 219.66 763.983 220.485L764.454 219.061C761.797 218.182 758.961 217.745 755.952 217.745V219.245ZM763.985 220.485C766.498 221.311 768.758 222.52 770.77 224.111L771.701 222.935C769.547 221.231 767.129 219.939 764.453 219.06L763.985 220.485ZM770.774 224.114C772.782 225.684 774.463 227.601 775.819 229.873L777.107 229.105C775.66 226.679 773.856 224.62 771.698 222.932L770.774 224.114ZM775.82 229.875C777.169 232.118 778.106 234.69 778.622 237.603L780.099 237.341C779.555 234.269 778.56 231.519 777.106 229.102L775.82 229.875ZM797.251 275.597L796.857 276.235L796.861 276.237L797.251 275.597ZM790.234 267.756L789.559 268.082L789.561 268.087L790.234 267.756ZM790.234 244.176L789.558 243.851L789.558 243.853L790.234 244.176ZM797.109 236.165L797.519 236.793L797.52 236.793L797.109 236.165ZM814.183 234.404L814.426 233.694L814.426 233.694L814.183 234.404ZM820.234 238.097L819.721 238.644L819.724 238.647L820.234 238.097ZM824.581 244.801L825.28 244.53L825.28 244.53L824.581 244.801ZM826.2 257.926V258.676H826.95V257.926H826.2ZM792.564 257.926H791.814V258.676H792.564V257.926ZM792.564 252.131V251.381H791.814V252.131H792.564ZM819.382 252.131V252.881H820.132V252.131H819.382ZM817.905 245.54L817.234 245.875L817.237 245.881L817.905 245.54ZM813.757 240.966L813.358 241.601L813.361 241.603L813.757 240.966ZM800.518 241.279L800.939 241.9L800.94 241.899L800.518 241.279ZM796.058 246.392L795.386 246.059L795.386 246.059L796.058 246.392ZM796.2 265.398L795.528 265.731L795.532 265.738L796.2 265.398ZM801.001 270.597L800.623 271.245L800.628 271.247L801.001 270.597ZM812.905 271.62L813.15 272.328L813.156 272.326L812.905 271.62ZM816.626 269.347L817.147 269.887L817.152 269.882L816.626 269.347ZM819.041 265.54L819.244 264.818L818.581 264.632L818.339 265.277L819.041 265.54ZM825.518 267.358L826.235 267.58L826.463 266.844L825.721 266.636L825.518 267.358ZM822.081 273.154L822.617 273.678L822.62 273.675L822.081 273.154ZM816.115 277.017L816.384 277.717L816.389 277.716L816.115 277.017ZM808.132 277.631C804.04 277.631 800.554 276.729 797.641 274.956L796.861 276.237C800.048 278.177 803.815 279.131 808.132 279.131V277.631ZM797.646 274.959C794.741 273.162 792.496 270.657 790.907 267.425L789.561 268.087C791.268 271.559 793.701 274.282 796.857 276.235L797.646 274.959ZM790.91 267.43C789.339 264.178 788.541 260.373 788.541 255.995H787.041C787.041 260.556 787.872 264.591 789.559 268.082L790.91 267.43ZM788.541 255.995C788.541 251.616 789.339 247.791 790.911 244.5L789.558 243.853C787.872 247.38 787.041 251.433 787.041 255.995H788.541ZM790.91 244.501C792.504 241.186 794.708 238.625 797.519 236.793L796.7 235.537C793.64 237.531 791.26 240.311 789.558 243.851L790.91 244.501ZM797.52 236.793C800.338 234.95 803.639 234.017 807.45 234.017V232.517C803.383 232.517 799.789 233.517 796.699 235.537L797.52 236.793ZM807.45 234.017C809.638 234.017 811.8 234.382 813.941 235.113L814.426 233.694C812.134 232.91 809.808 232.517 807.45 232.517V234.017ZM813.941 235.113C816.049 235.834 817.976 237.007 819.721 238.644L820.747 237.55C818.857 235.777 816.749 234.488 814.426 233.694L813.941 235.113ZM819.724 238.647C821.444 240.241 822.835 242.373 823.882 245.072L825.28 244.53C824.168 241.661 822.661 239.324 820.744 237.547L819.724 238.647ZM823.882 245.072C824.918 247.745 825.45 251.075 825.45 255.085H826.95C826.95 250.952 826.403 247.426 825.28 244.53L823.882 245.072ZM825.45 255.085V257.926H826.95V255.085H825.45ZM826.2 257.176H792.564V258.676H826.2V257.176ZM793.314 257.926V252.131H791.814V257.926H793.314ZM792.564 252.881H819.382V251.381H792.564V252.881ZM820.132 252.131C820.132 249.567 819.618 247.25 818.573 245.199L817.237 245.881C818.161 247.693 818.632 249.771 818.632 252.131H820.132ZM818.576 245.205C817.549 243.151 816.072 241.521 814.153 240.329L813.361 241.603C815.04 242.646 816.329 244.065 817.234 245.875L818.576 245.205ZM814.156 240.331C812.239 239.128 809.993 238.54 807.45 238.54V240.04C809.755 240.04 811.715 240.57 813.358 241.601L814.156 240.331ZM807.45 238.54C804.65 238.54 802.188 239.237 800.097 240.658L800.94 241.899C802.75 240.669 804.91 240.04 807.45 240.04V238.54ZM800.098 240.657C798.058 242.037 796.485 243.841 795.386 246.059L796.73 246.725C797.715 244.738 799.115 243.134 800.939 241.9L800.098 240.657ZM795.386 246.059C794.292 248.268 793.746 250.636 793.746 253.154H795.246C795.246 250.861 795.741 248.721 796.73 246.725L795.386 246.059ZM793.746 253.154V257.017H795.246V253.154H793.746ZM793.746 257.017C793.746 260.396 794.328 263.31 795.528 265.731L796.872 265.065C795.8 262.902 795.246 260.229 795.246 257.017H793.746ZM795.532 265.738C796.747 268.129 798.444 269.973 800.623 271.245L801.379 269.949C799.468 268.834 797.964 267.213 796.869 265.058L795.532 265.738ZM800.628 271.247C802.803 272.496 805.312 273.108 808.132 273.108V271.608C805.535 271.608 803.291 271.046 801.375 269.946L800.628 271.247ZM808.132 273.108C809.963 273.108 811.639 272.852 813.15 272.328L812.659 270.911C811.33 271.372 809.824 271.608 808.132 271.608V273.108ZM813.156 272.326C814.69 271.781 816.024 270.969 817.147 269.887L816.106 268.807C815.145 269.732 813.998 270.435 812.654 270.913L813.156 272.326ZM817.152 269.882C818.28 268.775 819.141 267.41 819.743 265.803L818.339 265.277C817.805 266.701 817.056 267.873 816.101 268.812L817.152 269.882ZM818.838 266.262L825.316 268.08L825.721 266.636L819.244 264.818L818.838 266.262ZM824.802 267.136C824.155 269.22 823.07 271.05 821.541 272.633L822.62 273.675C824.311 271.924 825.518 269.89 826.235 267.58L824.802 267.136ZM821.544 272.629C820.016 274.194 818.12 275.426 815.841 276.319L816.389 277.716C818.845 276.753 820.926 275.409 822.617 273.678L821.544 272.629ZM815.846 276.317C813.577 277.188 811.01 277.631 808.132 277.631V279.131C811.164 279.131 813.918 278.664 816.384 277.717L815.846 276.317ZM836.399 293.835H835.649V294.585H836.399V293.835ZM836.399 233.835V233.085H835.649V233.835H836.399ZM842.876 233.835H843.626V233.085H842.876V233.835ZM842.876 240.767H842.126V241.517H842.876V240.767ZM843.672 240.767V241.517H844.079L844.301 241.176L843.672 240.767ZM845.717 237.87L845.116 237.421L845.115 237.423L845.717 237.87ZM849.524 234.688L849.892 235.341L849.895 235.34L849.524 234.688ZM866.001 236.023L866.412 235.396L866.412 235.396L866.001 236.023ZM872.564 243.835L873.244 243.518L873.244 243.518L872.564 243.835ZM872.564 267.784L873.244 268.101L873.244 268.1L872.564 267.784ZM866.03 275.625L866.443 276.251L866.446 276.249L866.03 275.625ZM849.666 276.989L849.299 277.643L849.304 277.646L849.666 276.989ZM845.774 273.779L845.174 274.229L845.177 274.233L845.774 273.779ZM843.672 270.767L844.309 270.372L844.09 270.017H843.672V270.767ZM843.104 270.767V270.017H842.354V270.767H843.104ZM843.104 293.835V294.585H843.854V293.835H843.104ZM844.439 264.375L843.739 264.644L843.739 264.646L844.439 264.375ZM848.672 270.256L848.216 270.852L848.22 270.854L848.672 270.256ZM862.507 270.142L862.971 270.731L862.972 270.731L862.507 270.142ZM866.768 264.12L866.067 263.853L866.066 263.856L866.768 264.12ZM866.797 247.358L866.094 247.621L866.097 247.627L866.797 247.358ZM862.564 241.477L862.103 242.07L862.11 242.075L862.564 241.477ZM848.615 241.364L849.059 241.968L849.063 241.965L848.615 241.364ZM844.41 247.102L845.11 247.374L845.11 247.372L844.41 247.102ZM837.149 293.835V233.835H835.649V293.835H837.149ZM836.399 234.585H842.876V233.085H836.399V234.585ZM842.126 233.835V240.767H843.626V233.835H842.126ZM842.876 241.517H843.672V240.017H842.876V241.517ZM844.301 241.176C844.781 240.437 845.453 239.485 846.32 238.316L845.115 237.423C844.239 238.603 843.547 239.583 843.043 240.359L844.301 241.176ZM846.318 238.318C847.132 237.228 848.312 236.231 849.892 235.341L849.156 234.034C847.441 235 846.083 236.125 845.116 237.421L846.318 238.318ZM849.895 235.34C851.407 234.481 853.516 234.017 856.285 234.017V232.517C853.373 232.517 850.975 233.001 849.154 234.036L849.895 235.34ZM856.285 234.017C859.828 234.017 862.921 234.901 865.59 236.65L866.412 235.396C863.476 233.471 860.091 232.517 856.285 232.517V234.017ZM865.59 236.65C868.264 238.403 870.364 240.893 871.884 244.152L873.244 243.518C871.619 240.035 869.345 237.317 866.412 235.396L865.59 236.65ZM871.884 244.152C873.4 247.404 874.172 251.269 874.172 255.767H875.672C875.672 251.099 874.871 247.009 873.244 243.518L871.884 244.152ZM874.172 255.767C874.172 260.305 873.4 264.198 871.883 267.469L873.244 268.1C874.872 264.59 875.672 260.472 875.672 255.767H874.172ZM871.884 267.467C870.364 270.728 868.271 273.23 865.614 275.001L866.446 276.249C869.357 274.309 871.62 271.583 873.244 268.101L871.884 267.467ZM865.617 274.999C862.966 276.748 859.902 277.631 856.399 277.631V279.131C860.168 279.131 863.525 278.177 866.443 276.251L865.617 274.999ZM856.399 277.631C853.669 277.631 851.563 277.177 850.028 276.332L849.304 277.646C851.14 278.656 853.523 279.131 856.399 279.131V277.631ZM850.033 276.335C848.412 275.424 847.203 274.416 846.371 273.324L845.177 274.233C846.164 275.528 847.549 276.66 849.299 277.643L850.033 276.335ZM846.374 273.329C845.471 272.125 844.785 271.141 844.309 270.372L843.034 271.162C843.543 271.984 844.259 273.008 845.174 274.229L846.374 273.329ZM843.672 270.017H843.104V271.517H843.672V270.017ZM842.354 270.767V293.835H843.854V270.767H842.354ZM843.104 293.085H836.399V294.585H843.104V293.085ZM842.24 255.654C842.24 259.021 842.733 262.022 843.739 264.644L845.139 264.107C844.212 261.69 843.74 258.877 843.74 255.654H842.24ZM843.739 264.646C844.747 267.255 846.235 269.335 848.216 270.851L849.128 269.66C847.397 268.335 846.062 266.495 845.138 264.105L843.739 264.646ZM848.22 270.854C850.226 272.369 852.664 273.108 855.49 273.108V271.608C852.937 271.608 850.83 270.946 849.124 269.657L848.22 270.854ZM855.49 273.108C858.431 273.108 860.942 272.33 862.971 270.731L862.043 269.553C860.322 270.909 858.155 271.608 855.49 271.608V273.108ZM862.972 270.731C864.985 269.14 866.481 267.015 867.47 264.383L866.066 263.856C865.162 266.262 863.817 268.152 862.042 269.554L862.972 270.731ZM867.469 264.386C868.472 261.752 868.967 258.838 868.967 255.654H867.467C867.467 258.681 866.997 261.411 866.067 263.853L867.469 264.386ZM868.967 255.654C868.967 252.508 868.482 249.65 867.497 247.089L866.097 247.627C867.006 249.991 867.467 252.663 867.467 255.654H868.967ZM867.499 247.095C866.527 244.497 865.037 242.415 863.018 240.88L862.11 242.075C863.879 243.419 865.21 245.257 866.094 247.621L867.499 247.095ZM863.024 240.885C860.993 239.306 858.464 238.54 855.49 238.54V240.04C858.198 240.04 860.384 240.733 862.103 242.069L863.024 240.885ZM855.49 238.54C852.631 238.54 850.174 239.267 848.167 240.762L849.063 241.965C850.768 240.696 852.894 240.04 855.49 240.04V238.54ZM848.171 240.759C846.183 242.22 844.701 244.257 843.71 246.833L845.11 247.372C846.014 245.024 847.335 243.235 849.059 241.968L848.171 240.759ZM843.711 246.831C842.724 249.379 842.24 252.325 842.24 255.654H843.74C843.74 252.467 844.203 249.712 845.11 247.374L843.711 246.831ZM891.854 277.472V278.222H892.604V277.472H891.854ZM885.149 277.472H884.399V278.222H885.149V277.472ZM885.149 219.29V218.54H884.399V219.29H885.149ZM891.854 219.29H892.604V218.54H891.854V219.29ZM891.854 240.654H891.104V241.404H891.854V240.654ZM892.422 240.654V241.404H892.905L893.105 240.964L892.422 240.654ZM897.024 235.284L897.432 235.914L897.433 235.913L897.024 235.284ZM913.075 235.057L912.722 235.719L912.726 235.721L913.075 235.057ZM918.274 240.483L917.604 240.821L917.607 240.827L918.274 240.483ZM920.149 277.472V278.222H920.899V277.472H920.149ZM913.445 277.472H912.695V278.222H913.445V277.472ZM910.746 242.159L910.197 242.67L910.202 242.676L910.746 242.159ZM897.422 240.682L897.069 240.02L897.066 240.022L897.422 240.682ZM893.331 244.745L892.678 244.376L892.675 244.381L893.331 244.745ZM891.104 251.222V277.472H892.604V251.222H891.104ZM891.854 276.722H885.149V278.222H891.854V276.722ZM885.899 277.472V219.29H884.399V277.472H885.899ZM885.149 220.04H891.854V218.54H885.149V220.04ZM891.104 219.29V240.654H892.604V219.29H891.104ZM891.854 241.404H892.422V239.904H891.854V241.404ZM893.105 240.964C894.069 238.838 895.509 237.16 897.432 235.914L896.616 234.655C894.448 236.06 892.82 237.961 891.739 240.344L893.105 240.964ZM897.433 235.913C899.337 234.673 901.925 234.017 905.263 234.017V232.517C901.744 232.517 898.84 233.206 896.615 234.656L897.433 235.913ZM905.263 234.017C908.134 234.017 910.613 234.593 912.722 235.719L913.428 234.395C911.067 233.135 908.338 232.517 905.263 232.517V234.017ZM912.726 235.721C914.811 236.816 916.437 238.505 917.604 240.821L918.944 240.146C917.649 237.575 915.809 235.646 913.424 234.393L912.726 235.721ZM917.607 240.827C918.786 243.113 919.399 246.072 919.399 249.745H920.899C920.899 245.917 920.262 242.702 918.941 240.139L917.607 240.827ZM919.399 249.745V277.472H920.899V249.745H919.399ZM920.149 276.722H913.445V278.222H920.149V276.722ZM914.195 277.472V250.199H912.695V277.472H914.195ZM914.195 250.199C914.195 246.605 913.26 243.717 911.289 241.643L910.202 242.676C911.83 244.39 912.695 246.861 912.695 250.199H914.195ZM911.295 241.648C909.343 239.552 906.655 238.54 903.331 238.54V240.04C906.333 240.04 908.588 240.941 910.197 242.67L911.295 241.648ZM903.331 238.54C901.025 238.54 898.932 239.028 897.069 240.02L897.774 241.344C899.396 240.48 901.243 240.04 903.331 240.04V238.54ZM897.066 240.022C895.212 241.02 893.748 242.478 892.678 244.376L893.984 245.113C894.922 243.45 896.184 242.2 897.777 241.342L897.066 240.022ZM892.675 244.381C891.615 246.297 891.104 248.588 891.104 251.222H892.604C892.604 248.78 893.077 246.752 893.987 245.108L892.675 244.381ZM939.829 275.597L939.435 276.235L939.439 276.237L939.829 275.597ZM932.812 267.756L932.137 268.082L932.139 268.087L932.812 267.756ZM932.812 244.176L932.136 243.851L932.136 243.853L932.812 244.176ZM939.687 236.165L940.097 236.793L940.098 236.793L939.687 236.165ZM956.761 234.404L957.004 233.694L957.004 233.694L956.761 234.404ZM962.812 238.097L962.299 238.644L962.303 238.647L962.812 238.097ZM967.159 244.801L967.858 244.53L967.858 244.53L967.159 244.801ZM968.778 257.926V258.676H969.528V257.926H968.778ZM935.142 257.926H934.392V258.676H935.142V257.926ZM935.142 252.131V251.381H934.392V252.131H935.142ZM961.96 252.131V252.881H962.71V252.131H961.96ZM960.483 245.54L959.812 245.875L959.815 245.881L960.483 245.54ZM956.335 240.966L955.936 241.601L955.939 241.603L956.335 240.966ZM943.097 241.279L943.517 241.9L943.518 241.899L943.097 241.279ZM938.636 246.392L937.964 246.059L937.964 246.059L938.636 246.392ZM938.778 265.398L938.106 265.731L938.11 265.738L938.778 265.398ZM943.579 270.597L943.202 271.245L943.206 271.247L943.579 270.597ZM955.483 271.62L955.729 272.328L955.734 272.326L955.483 271.62ZM959.204 269.347L959.725 269.887L959.73 269.882L959.204 269.347ZM961.619 265.54L961.822 264.818L961.159 264.632L960.917 265.277L961.619 265.54ZM968.097 267.358L968.813 267.58L969.041 266.844L968.299 266.636L968.097 267.358ZM964.659 273.154L965.195 273.678L965.198 273.675L964.659 273.154ZM958.693 277.017L958.962 277.717L958.967 277.716L958.693 277.017ZM950.71 277.631C946.618 277.631 943.132 276.729 940.219 274.956L939.439 276.237C942.626 278.177 946.393 279.131 950.71 279.131V277.631ZM940.224 274.959C937.32 273.162 935.074 270.657 933.485 267.425L932.139 268.087C933.846 271.559 936.279 274.282 939.435 276.235L940.224 274.959ZM933.488 267.43C931.917 264.178 931.119 260.373 931.119 255.995H929.619C929.619 260.556 930.451 264.591 932.137 268.082L933.488 267.43ZM931.119 255.995C931.119 251.616 931.917 247.791 933.489 244.5L932.136 243.853C930.451 247.38 929.619 251.433 929.619 255.995H931.119ZM933.488 244.501C935.082 241.186 937.286 238.625 940.097 236.793L939.278 235.537C936.218 237.531 933.838 240.311 932.136 243.851L933.488 244.501ZM940.098 236.793C942.917 234.95 946.217 234.017 950.028 234.017V232.517C945.961 232.517 942.367 233.517 939.277 235.537L940.098 236.793ZM950.028 234.017C952.216 234.017 954.378 234.382 956.519 235.113L957.004 233.694C954.712 232.91 952.386 232.517 950.028 232.517V234.017ZM956.519 235.113C958.628 235.834 960.554 237.007 962.299 238.644L963.325 237.55C961.435 235.777 959.327 234.488 957.004 233.694L956.519 235.113ZM962.303 238.647C964.022 240.241 965.413 242.373 966.46 245.072L967.858 244.53C966.746 241.661 965.239 239.324 963.322 237.547L962.303 238.647ZM966.46 245.072C967.496 247.745 968.028 251.075 968.028 255.085H969.528C969.528 250.952 968.981 247.426 967.858 244.53L966.46 245.072ZM968.028 255.085V257.926H969.528V255.085H968.028ZM968.778 257.176H935.142V258.676H968.778V257.176ZM935.892 257.926V252.131H934.392V257.926H935.892ZM935.142 252.881H961.96V251.381H935.142V252.881ZM962.71 252.131C962.71 249.567 962.197 247.25 961.151 245.199L959.815 245.881C960.739 247.693 961.21 249.771 961.21 252.131H962.71ZM961.154 245.205C960.127 243.151 958.65 241.521 956.731 240.329L955.939 241.603C957.618 242.646 958.907 244.065 959.812 245.875L961.154 245.205ZM956.734 240.331C954.817 239.128 952.572 238.54 950.028 238.54V240.04C952.334 240.04 954.293 240.57 955.936 241.601L956.734 240.331ZM950.028 238.54C947.228 238.54 944.766 239.237 942.675 240.658L943.518 241.899C945.328 240.669 947.488 240.04 950.028 240.04V238.54ZM942.676 240.657C940.636 242.037 939.063 243.841 937.964 246.059L939.308 246.725C940.293 244.738 941.693 243.134 943.517 241.9L942.676 240.657ZM937.964 246.059C936.87 248.268 936.324 250.636 936.324 253.154H937.824C937.824 250.861 938.319 248.721 939.308 246.725L937.964 246.059ZM936.324 253.154V257.017H937.824V253.154H936.324ZM936.324 257.017C936.324 260.396 936.906 263.31 938.106 265.731L939.45 265.065C938.378 262.902 937.824 260.229 937.824 257.017H936.324ZM938.11 265.738C939.325 268.129 941.022 269.973 943.202 271.245L943.957 269.949C942.046 268.834 940.542 267.213 939.447 265.058L938.11 265.738ZM943.206 271.247C945.381 272.496 947.89 273.108 950.71 273.108V271.608C948.113 271.608 945.869 271.046 943.953 269.946L943.206 271.247ZM950.71 273.108C952.541 273.108 954.217 272.852 955.729 272.328L955.237 270.911C953.908 271.372 952.402 271.608 950.71 271.608V273.108ZM955.734 272.326C957.268 271.781 958.602 270.969 959.725 269.887L958.684 268.807C957.724 269.732 956.576 270.435 955.232 270.913L955.734 272.326ZM959.73 269.882C960.858 268.775 961.719 267.41 962.321 265.803L960.917 265.277C960.383 266.701 959.635 267.873 958.679 268.812L959.73 269.882ZM961.417 266.262L967.894 268.08L968.299 266.636L961.822 264.818L961.417 266.262ZM967.38 267.136C966.733 269.22 965.649 271.05 964.12 272.633L965.198 273.675C966.889 271.924 968.096 269.89 968.813 267.58L967.38 267.136ZM964.123 272.629C962.594 274.194 960.698 275.426 958.419 276.319L958.967 277.716C961.423 276.753 963.504 275.409 965.195 273.678L964.123 272.629ZM958.424 276.317C956.156 277.188 953.588 277.631 950.71 277.631V279.131C953.742 279.131 956.496 278.664 958.962 277.717L958.424 276.317ZM1006.48 233.835V233.085H1005.73V233.835H1006.48ZM1013.18 233.835H1013.93V233.085H1013.18V233.835ZM1013.18 277.472V278.222H1013.93V277.472H1013.18ZM1006.48 277.472H1005.73V278.222H1006.48V277.472ZM1006.48 270.085H1007.23V269.335H1006.48V270.085ZM1006.02 270.085V269.335H1005.54L1005.34 269.771L1006.02 270.085ZM1001.25 275.739L1001.68 276.35L1001.69 276.348L1001.25 275.739ZM985.795 276.25L985.423 276.901L985.428 276.904L985.795 276.25ZM980.795 270.796L980.124 271.129L980.125 271.131L980.795 270.796ZM978.977 233.835V233.085H978.227V233.835H978.977ZM985.682 233.835H986.432V233.085H985.682V233.835ZM988.352 268.722L987.806 269.235L987.808 269.238L988.352 268.722ZM1000.31 270.284L999.983 269.611L999.98 269.612L1000.31 270.284ZM1004.69 266.364L1004.07 265.943L1004.06 265.948L1004.69 266.364ZM1007.23 259.631V233.835H1005.73V259.631H1007.23ZM1006.48 234.585H1013.18V233.085H1006.48V234.585ZM1012.43 233.835V277.472H1013.93V233.835H1012.43ZM1013.18 276.722H1006.48V278.222H1013.18V276.722ZM1007.23 277.472V270.085H1005.73V277.472H1007.23ZM1006.48 269.335H1006.02V270.835H1006.48V269.335ZM1005.34 269.771C1004.38 271.859 1002.88 273.646 1000.81 275.13L1001.69 276.348C1003.94 274.726 1005.62 272.744 1006.7 270.4L1005.34 269.771ZM1000.82 275.127C998.811 276.551 996.246 277.29 993.068 277.29V278.79C996.481 278.79 999.37 277.994 1001.68 276.35L1000.82 275.127ZM993.068 277.29C990.454 277.29 988.159 276.719 986.163 275.597L985.428 276.904C987.674 278.168 990.228 278.79 993.068 278.79V277.29ZM986.167 275.599C984.189 274.468 982.62 272.767 981.466 270.46L980.125 271.131C981.395 273.673 983.16 275.608 985.423 276.901L986.167 275.599ZM981.467 270.462C980.322 268.153 979.727 265.199 979.727 261.563H978.227C978.227 265.351 978.845 268.552 980.124 271.129L981.467 270.462ZM979.727 261.563V233.835H978.227V261.563H979.727ZM978.977 234.585H985.682V233.085H978.977V234.585ZM984.932 233.835V261.108H986.432V233.835H984.932ZM984.932 261.108C984.932 264.436 985.867 267.173 987.806 269.235L988.899 268.208C987.277 266.483 986.432 264.144 986.432 261.108H984.932ZM987.808 269.238C989.759 271.292 992.253 272.313 995.227 272.313V270.813C992.634 270.813 990.544 269.94 988.896 268.205L987.808 269.238ZM995.227 272.313C997.026 272.313 998.834 271.852 1000.64 270.957L999.98 269.612C998.344 270.421 996.762 270.813 995.227 270.813V272.313ZM1000.64 270.958C1002.51 270.042 1004.07 268.641 1005.31 266.78L1004.06 265.948C1002.96 267.609 1001.6 268.822 999.983 269.611L1000.64 270.958ZM1005.31 266.784C1006.61 264.868 1007.23 262.466 1007.23 259.631H1005.73C1005.73 262.25 1005.15 264.337 1004.07 265.943L1005.31 266.784ZM1056.37 243.608L1056.57 244.33L1057.33 244.116L1057.08 243.37L1056.37 243.608ZM1050.35 245.313L1049.65 245.578L1049.89 246.222L1050.55 246.034L1050.35 245.313ZM1048.67 242.387L1048.07 242.835L1048.08 242.841L1048.08 242.848L1048.67 242.387ZM1045.72 240L1046.05 239.329L1046.05 239.329L1045.72 240ZM1034.24 240.909L1034.67 241.527L1034.67 241.526L1034.24 240.909ZM1033.42 249.489L1032.95 250.075L1032.95 250.075L1033.42 249.489ZM1039.1 251.904L1038.92 252.631L1038.92 252.632L1039.1 251.904ZM1045.58 253.495L1045.4 254.223L1045.4 254.223L1045.58 253.495ZM1054.3 257.841L1053.76 258.366L1053.76 258.369L1054.3 257.841ZM1055.01 272.017L1054.4 271.575L1054.4 271.579L1055.01 272.017ZM1029.07 275.483L1029.48 274.858L1029.48 274.858L1029.07 275.483ZM1023.53 267.017L1023.35 266.29L1022.65 266.465L1022.8 267.171L1023.53 267.017ZM1029.89 265.426L1030.62 265.239L1030.43 264.518L1029.71 264.699L1029.89 265.426ZM1033.33 270.71L1032.9 271.326L1032.91 271.328L1033.33 270.71ZM1047.45 270.483L1047.89 271.091L1047.89 271.091L1047.45 270.483ZM1048.64 261.847L1048.12 262.382L1048.12 262.387L1048.64 261.847ZM1043.76 259.517L1043.59 260.247L1043.59 260.248L1043.76 259.517ZM1036.48 257.813L1036.31 258.543L1036.31 258.543L1036.48 257.813ZM1027.68 253.409L1027.13 253.918L1027.13 253.924L1027.68 253.409ZM1026.97 239.347L1026.36 238.901L1026.36 238.905L1026.97 239.347ZM1032.68 234.887L1032.37 234.201L1032.37 234.202L1032.68 234.887ZM1051.09 236.108L1050.63 236.703L1050.63 236.704L1051.09 236.108ZM1056.17 242.887L1050.14 244.591L1050.55 246.034L1056.57 244.33L1056.17 242.887ZM1051.05 245.048C1050.64 243.966 1050.04 242.925 1049.26 241.925L1048.08 242.848C1048.78 243.742 1049.3 244.652 1049.65 245.578L1051.05 245.048ZM1049.27 241.938C1048.47 240.865 1047.39 239.998 1046.05 239.329L1045.38 240.671C1046.54 241.252 1047.43 241.977 1048.07 242.835L1049.27 241.938ZM1046.05 239.329C1044.67 238.636 1042.94 238.313 1040.92 238.313V239.813C1042.79 239.813 1044.27 240.115 1045.38 240.671L1046.05 239.329ZM1040.92 238.313C1038.13 238.313 1035.75 238.956 1033.81 240.292L1034.67 241.526C1036.29 240.4 1038.36 239.813 1040.92 239.813V238.313ZM1033.81 240.291C1031.88 241.621 1030.85 243.38 1030.85 245.54H1032.35C1032.35 243.949 1033.07 242.622 1034.67 241.527L1033.81 240.291ZM1030.85 245.54C1030.85 247.415 1031.54 248.955 1032.95 250.075L1033.88 248.902C1032.86 248.091 1032.35 246.998 1032.35 245.54H1030.85ZM1032.95 250.075C1034.28 251.14 1036.3 251.977 1038.92 252.631L1039.28 251.176C1036.74 250.542 1034.97 249.77 1033.88 248.902L1032.95 250.075ZM1038.92 252.632L1045.4 254.223L1045.75 252.766L1039.28 251.175L1038.92 252.632ZM1045.4 254.223C1049.22 255.152 1051.98 256.552 1053.76 258.366L1054.83 257.316C1052.79 255.229 1049.73 253.731 1045.75 252.766L1045.4 254.223ZM1053.76 258.369C1055.52 260.143 1056.42 262.435 1056.42 265.313H1057.92C1057.92 262.092 1056.9 259.403 1054.83 257.313L1053.76 258.369ZM1056.42 265.313C1056.42 267.658 1055.74 269.737 1054.4 271.575L1055.61 272.46C1057.15 270.358 1057.92 267.968 1057.92 265.313H1056.42ZM1054.4 271.579C1053.07 273.425 1051.19 274.9 1048.74 275.991L1049.35 277.362C1052.01 276.18 1054.11 274.549 1055.62 272.456L1054.4 271.579ZM1048.74 275.991C1046.29 277.077 1043.43 277.631 1040.12 277.631V279.131C1043.59 279.131 1046.67 278.549 1049.35 277.362L1048.74 275.991ZM1040.12 277.631C1035.78 277.631 1032.25 276.689 1029.48 274.858L1028.66 276.108C1031.72 278.141 1035.56 279.131 1040.12 279.131V277.631ZM1029.48 274.858C1026.75 273.045 1025 270.4 1024.26 266.864L1022.8 267.171C1023.61 271.058 1025.56 274.058 1028.66 276.108L1029.48 274.858ZM1023.71 267.745L1030.08 266.154L1029.71 264.699L1023.35 266.29L1023.71 267.745ZM1029.17 265.614C1029.81 268.103 1031.04 270.031 1032.9 271.326L1033.76 270.095C1032.25 269.041 1031.19 267.447 1030.62 265.239L1029.17 265.614ZM1032.91 271.328C1034.77 272.613 1037.16 273.222 1040.01 273.222V271.722C1037.36 271.722 1035.3 271.157 1033.76 270.093L1032.91 271.328ZM1040.01 273.222C1043.23 273.222 1045.88 272.538 1047.89 271.091L1047.01 269.875C1045.34 271.079 1043.03 271.722 1040.01 271.722V273.222ZM1047.89 271.091C1049.89 269.64 1050.98 267.823 1050.98 265.654H1049.48C1049.48 267.234 1048.72 268.637 1047.01 269.876L1047.89 271.091ZM1050.98 265.654C1050.98 263.941 1050.38 262.475 1049.16 261.307L1048.12 262.387C1049.03 263.264 1049.48 264.336 1049.48 265.654H1050.98ZM1049.17 261.312C1047.97 260.136 1046.19 259.314 1043.93 258.787L1043.59 260.248C1045.71 260.743 1047.19 261.474 1048.12 262.382L1049.17 261.312ZM1043.93 258.787L1036.66 257.082L1036.31 258.543L1043.59 260.247L1043.93 258.787ZM1036.66 257.083C1032.74 256.154 1029.96 254.736 1028.22 252.895L1027.13 253.924C1029.15 256.06 1032.24 257.578 1036.31 258.543L1036.66 257.083ZM1028.23 252.9C1026.51 251.046 1025.64 248.724 1025.64 245.881H1024.14C1024.14 249.06 1025.13 251.758 1027.13 253.918L1028.23 252.9ZM1025.64 245.881C1025.64 243.569 1026.29 241.548 1027.57 239.789L1026.36 238.905C1024.88 240.934 1024.14 243.268 1024.14 245.881H1025.64ZM1027.57 239.793C1028.89 238.014 1030.68 236.604 1032.98 235.571L1032.37 234.202C1029.86 235.328 1027.85 236.891 1026.36 238.901L1027.57 239.793ZM1032.98 235.572C1035.3 234.541 1037.94 234.017 1040.92 234.017V232.517C1037.76 232.517 1034.91 233.073 1032.37 234.201L1032.98 235.572ZM1040.92 234.017C1045.13 234.017 1048.34 234.942 1050.63 236.703L1051.54 235.514C1048.91 233.486 1045.34 232.517 1040.92 232.517V234.017ZM1050.63 236.704C1052.99 238.503 1054.66 240.875 1055.66 243.847L1057.08 243.37C1055.99 240.129 1054.15 237.502 1051.54 235.512L1050.63 236.704Z" fill="#BA6FF3"/>
<path d="M812.523 476.973C811.031 476.949 809.54 476.665 808.048 476.121C806.557 475.576 805.195 474.659 803.964 473.368C802.733 472.066 801.745 470.309 800.999 468.095C800.253 465.87 799.881 463.076 799.881 459.714C799.881 456.495 800.182 453.642 800.786 451.156C801.39 448.658 802.266 446.557 803.414 444.853C804.562 443.136 805.947 441.834 807.569 440.947C809.202 440.059 811.043 439.615 813.091 439.615C815.127 439.615 816.938 440.023 818.524 440.84C820.122 441.645 821.424 442.77 822.43 444.214C823.436 445.658 824.088 447.321 824.383 449.203H820.051C819.649 447.569 818.867 446.214 817.707 445.137C816.547 444.06 815.008 443.521 813.091 443.521C810.274 443.521 808.054 444.746 806.432 447.197C804.823 449.647 804.012 453.086 804 457.513H804.284C804.947 456.506 805.734 455.648 806.646 454.938C807.569 454.216 808.587 453.66 809.699 453.269C810.812 452.878 811.99 452.683 813.233 452.683C815.316 452.683 817.222 453.204 818.95 454.246C820.678 455.275 822.063 456.702 823.105 458.525C824.147 460.336 824.668 462.413 824.668 464.757C824.668 467.006 824.164 469.066 823.158 470.936C822.152 472.794 820.738 474.274 818.915 475.375C817.104 476.464 814.973 476.997 812.523 476.973ZM812.523 473.067C814.014 473.067 815.352 472.694 816.535 471.948C817.731 471.202 818.672 470.202 819.359 468.947C820.057 467.693 820.406 466.296 820.406 464.757C820.406 463.254 820.069 461.886 819.394 460.655C818.731 459.412 817.814 458.424 816.642 457.69C815.482 456.956 814.156 456.589 812.665 456.589C811.54 456.589 810.493 456.814 809.522 457.264C808.551 457.702 807.699 458.306 806.965 459.075C806.243 459.845 805.675 460.726 805.261 461.721C804.846 462.703 804.639 463.739 804.639 464.828C804.639 466.272 804.976 467.622 805.651 468.876C806.338 470.131 807.273 471.143 808.457 471.912C809.652 472.682 811.007 473.067 812.523 473.067ZM843.014 476.973C840.93 476.973 839.054 476.559 837.385 475.73C835.716 474.901 834.378 473.765 833.372 472.321C832.366 470.877 831.816 469.231 831.721 467.385H835.982C836.148 469.03 836.894 470.391 838.22 471.469C839.557 472.534 841.155 473.067 843.014 473.067C844.505 473.067 845.831 472.717 846.991 472.019C848.163 471.321 849.08 470.362 849.743 469.143C850.418 467.912 850.755 466.521 850.755 464.97C850.755 463.384 850.406 461.969 849.707 460.726C849.021 459.472 848.074 458.483 846.867 457.761C845.659 457.039 844.28 456.672 842.729 456.66C841.617 456.649 840.475 456.82 839.303 457.175C838.131 457.519 837.166 457.962 836.408 458.507L832.289 458.01L834.491 440.112H853.383V444.018H838.184L836.906 454.743H837.119C837.864 454.151 838.8 453.66 839.924 453.269C841.049 452.878 842.22 452.683 843.44 452.683C845.665 452.683 847.648 453.216 849.388 454.281C851.14 455.335 852.513 456.779 853.507 458.613C854.513 460.448 855.016 462.543 855.016 464.899C855.016 467.219 854.496 469.291 853.454 471.113C852.424 472.925 851.004 474.357 849.193 475.41C847.381 476.452 845.322 476.973 843.014 476.973ZM863.206 476.476L879.47 444.302V444.018H860.72V440.112H884.016V444.231L867.823 476.476H863.206ZM904.768 476.476V449.203H908.816V453.464H909.171C909.739 452.008 910.657 450.878 911.923 450.073C913.19 449.256 914.711 448.848 916.487 448.848C918.286 448.848 919.783 449.256 920.979 450.073C922.186 450.878 923.127 452.008 923.802 453.464H924.086C924.784 452.056 925.832 450.937 927.229 450.109C928.626 449.268 930.301 448.848 932.254 448.848C934.692 448.848 936.687 449.611 938.237 451.138C939.788 452.654 940.563 455.015 940.563 458.223V476.476H936.373V458.223C936.373 456.211 935.823 454.772 934.722 453.908C933.621 453.044 932.325 452.612 930.833 452.612C928.916 452.612 927.43 453.192 926.377 454.352C925.323 455.5 924.796 456.956 924.796 458.72V476.476H920.535V457.797C920.535 456.246 920.032 454.997 919.026 454.05C918.02 453.091 916.723 452.612 915.137 452.612C914.048 452.612 913.03 452.902 912.083 453.482C911.148 454.062 910.39 454.867 909.81 455.897C909.242 456.915 908.958 458.093 908.958 459.43V476.476H904.768ZM948.225 476.476V449.203H952.273V453.464H952.628C953.196 452.008 954.114 450.878 955.38 450.073C956.647 449.256 958.168 448.848 959.944 448.848C961.743 448.848 963.24 449.256 964.436 450.073C965.643 450.878 966.584 452.008 967.259 453.464H967.543C968.241 452.056 969.289 450.937 970.686 450.109C972.083 449.268 973.758 448.848 975.711 448.848C978.149 448.848 980.144 449.611 981.694 451.138C983.245 452.654 984.02 455.015 984.02 458.223V476.476H979.83V458.223C979.83 456.211 979.28 454.772 978.179 453.908C977.078 453.044 975.782 452.612 974.29 452.612C972.373 452.612 970.887 453.192 969.834 454.352C968.78 455.5 968.253 456.956 968.253 458.72V476.476H963.992V457.797C963.992 456.246 963.489 454.997 962.483 454.05C961.477 453.091 960.18 452.612 958.594 452.612C957.505 452.612 956.487 452.902 955.54 453.482C954.605 454.062 953.848 454.867 953.267 455.897C952.699 456.915 952.415 458.093 952.415 459.43V476.476H948.225Z" fill="#BA6FF3"/>
<path d="M808.077 578.42C805.994 578.42 804.118 578.006 802.449 577.177C800.779 576.349 799.442 575.212 798.436 573.768C797.43 572.324 796.879 570.679 796.784 568.832H801.046C801.212 570.477 801.957 571.839 803.283 572.916C804.621 573.981 806.219 574.514 808.077 574.514C809.569 574.514 810.894 574.165 812.054 573.466C813.226 572.768 814.144 571.809 814.806 570.59C815.481 569.359 815.819 567.968 815.819 566.417C815.819 564.831 815.469 563.417 814.771 562.174C814.084 560.919 813.137 559.931 811.93 559.208C810.723 558.486 809.344 558.119 807.793 558.108C806.68 558.096 805.538 558.267 804.366 558.623C803.194 558.966 802.23 559.41 801.472 559.954L797.353 559.457L799.554 541.559H818.446V545.466H803.248L801.969 556.19H802.182C802.928 555.598 803.863 555.107 804.988 554.716C806.112 554.326 807.284 554.13 808.503 554.13C810.729 554.13 812.711 554.663 814.451 555.728C816.203 556.782 817.576 558.226 818.571 560.061C819.577 561.896 820.08 563.991 820.08 566.346C820.08 568.666 819.559 570.738 818.517 572.561C817.488 574.372 816.067 575.804 814.256 576.858C812.445 577.899 810.385 578.42 808.077 578.42ZM838.497 578.42C836.414 578.42 834.537 578.006 832.868 577.177C831.199 576.349 829.862 575.212 828.856 573.768C827.849 572.324 827.299 570.679 827.204 568.832H831.466C831.631 570.477 832.377 571.839 833.703 572.916C835.041 573.981 836.639 574.514 838.497 574.514C839.988 574.514 841.314 574.165 842.474 573.466C843.646 572.768 844.564 571.809 845.226 570.59C845.901 569.359 846.238 567.968 846.238 566.417C846.238 564.831 845.889 563.417 845.191 562.174C844.504 560.919 843.557 559.931 842.35 559.208C841.143 558.486 839.764 558.119 838.213 558.108C837.1 558.096 835.958 558.267 834.786 558.623C833.614 558.966 832.649 559.41 831.892 559.954L827.773 559.457L829.974 541.559H848.866V545.466H833.667L832.389 556.19H832.602C833.348 555.598 834.283 555.107 835.407 554.716C836.532 554.326 837.704 554.13 838.923 554.13C841.148 554.13 843.131 554.663 844.871 555.728C846.623 556.782 847.996 558.226 848.991 560.061C849.997 561.896 850.5 563.991 850.5 566.346C850.5 568.666 849.979 570.738 848.937 572.561C847.907 574.372 846.487 575.804 844.676 576.858C842.865 577.899 840.805 578.42 838.497 578.42ZM869.414 578.42C866.739 578.42 864.46 577.692 862.578 576.236C860.696 574.768 859.258 572.644 858.263 569.862C857.269 567.068 856.772 563.695 856.772 559.741C856.772 555.811 857.269 552.455 858.263 549.674C859.27 546.88 860.714 544.749 862.596 543.282C864.49 541.802 866.763 541.062 869.414 541.062C872.066 541.062 874.332 541.802 876.214 543.282C878.108 544.749 879.553 546.88 880.547 549.674C881.553 552.455 882.056 555.811 882.056 559.741C882.056 563.695 881.559 567.068 880.565 569.862C879.57 572.644 878.132 574.768 876.25 576.236C874.368 577.692 872.089 578.42 869.414 578.42ZM869.414 574.514C872.066 574.514 874.125 573.235 875.593 570.679C877.061 568.122 877.795 564.476 877.795 559.741C877.795 556.592 877.457 553.911 876.783 551.698C876.12 549.484 875.161 547.797 873.906 546.637C872.663 545.477 871.166 544.897 869.414 544.897C866.786 544.897 864.732 546.194 863.253 548.786C861.773 551.366 861.033 555.018 861.033 559.741C861.033 562.89 861.365 565.565 862.028 567.767C862.691 569.968 863.643 571.643 864.886 572.792C866.141 573.94 867.65 574.514 869.414 574.514ZM902.937 577.923V550.65H906.985V554.912H907.34C907.908 553.456 908.826 552.325 910.092 551.52C911.359 550.704 912.88 550.295 914.656 550.295C916.455 550.295 917.952 550.704 919.148 551.52C920.355 552.325 921.296 553.456 921.971 554.912H922.255C922.953 553.503 924.001 552.384 925.398 551.556C926.795 550.715 928.469 550.295 930.423 550.295C932.861 550.295 934.856 551.059 936.406 552.586C937.957 554.101 938.732 556.462 938.732 559.67V577.923H934.542V559.67C934.542 557.658 933.991 556.22 932.891 555.356C931.79 554.491 930.494 554.059 929.002 554.059C927.085 554.059 925.599 554.639 924.545 555.799C923.492 556.948 922.965 558.404 922.965 560.167V577.923H918.704V559.244C918.704 557.693 918.201 556.445 917.195 555.498C916.188 554.539 914.892 554.059 913.306 554.059C912.217 554.059 911.199 554.349 910.252 554.929C909.317 555.509 908.559 556.314 907.979 557.344C907.411 558.362 907.127 559.54 907.127 560.878V577.923H902.937ZM946.394 577.923V550.65H950.442V554.912H950.797C951.365 553.456 952.283 552.325 953.549 551.52C954.816 550.704 956.337 550.295 958.113 550.295C959.912 550.295 961.409 550.704 962.605 551.52C963.812 552.325 964.753 553.456 965.428 554.912H965.712C966.41 553.503 967.458 552.384 968.855 551.556C970.252 550.715 971.926 550.295 973.88 550.295C976.318 550.295 978.313 551.059 979.863 552.586C981.414 554.101 982.189 556.462 982.189 559.67V577.923H977.999V559.67C977.999 557.658 977.449 556.22 976.348 555.356C975.247 554.491 973.951 554.059 972.459 554.059C970.542 554.059 969.056 554.639 968.002 555.799C966.949 556.948 966.422 558.404 966.422 560.167V577.923H962.161V559.244C962.161 557.693 961.658 556.445 960.652 555.498C959.645 554.539 958.349 554.059 956.763 554.059C955.674 554.059 954.656 554.349 953.709 554.929C952.774 555.509 952.016 556.314 951.436 557.344C950.868 558.362 950.584 559.54 950.584 560.878V577.923H946.394Z" fill="#BA6FF3"/>
<path d="M355.169 1033.22V1069.59H350.766V1037.84H350.553L341.675 1043.73V1039.26L350.766 1033.22H355.169ZM377.488 1070.08C374.813 1070.08 372.534 1069.36 370.652 1067.9C368.77 1066.43 367.332 1064.31 366.338 1061.53C365.343 1058.73 364.846 1055.36 364.846 1051.4C364.846 1047.47 365.343 1044.12 366.338 1041.34C367.344 1038.54 368.788 1036.41 370.67 1034.94C372.564 1033.47 374.837 1032.73 377.488 1032.73C380.14 1032.73 382.407 1033.47 384.289 1034.94C386.183 1036.41 387.627 1038.54 388.621 1041.34C389.627 1044.12 390.13 1047.47 390.13 1051.4C390.13 1055.36 389.633 1058.73 388.639 1061.53C387.645 1064.31 386.206 1066.43 384.324 1067.9C382.442 1069.36 380.163 1070.08 377.488 1070.08ZM377.488 1066.18C380.14 1066.18 382.199 1064.9 383.667 1062.34C385.135 1059.78 385.869 1056.14 385.869 1051.4C385.869 1048.26 385.532 1045.57 384.857 1043.36C384.194 1041.15 383.235 1039.46 381.98 1038.3C380.738 1037.14 379.24 1036.56 377.488 1036.56C374.86 1036.56 372.807 1037.86 371.327 1040.45C369.847 1043.03 369.108 1046.68 369.108 1051.4C369.108 1054.55 369.439 1057.23 370.102 1059.43C370.765 1061.63 371.718 1063.31 372.961 1064.45C374.215 1065.6 375.725 1066.18 377.488 1066.18ZM408.738 1070.08C406.063 1070.08 403.784 1069.36 401.902 1067.9C400.02 1066.43 398.582 1064.31 397.588 1061.53C396.593 1058.73 396.096 1055.36 396.096 1051.4C396.096 1047.47 396.593 1044.12 397.588 1041.34C398.594 1038.54 400.038 1036.41 401.92 1034.94C403.814 1033.47 406.087 1032.73 408.738 1032.73C411.39 1032.73 413.657 1033.47 415.539 1034.94C417.433 1036.41 418.877 1038.54 419.871 1041.34C420.877 1044.12 421.38 1047.47 421.38 1051.4C421.38 1055.36 420.883 1058.73 419.889 1061.53C418.895 1064.31 417.456 1066.43 415.574 1067.9C413.692 1069.36 411.413 1070.08 408.738 1070.08ZM408.738 1066.18C411.39 1066.18 413.449 1064.9 414.917 1062.34C416.385 1059.78 417.119 1056.14 417.119 1051.4C417.119 1048.26 416.782 1045.57 416.107 1043.36C415.444 1041.15 414.485 1039.46 413.23 1038.3C411.988 1037.14 410.49 1036.56 408.738 1036.56C406.11 1036.56 404.057 1037.86 402.577 1040.45C401.097 1043.03 400.358 1046.68 400.358 1051.4C400.358 1054.55 400.689 1057.23 401.352 1059.43C402.015 1061.63 402.968 1063.31 404.211 1064.45C405.465 1065.6 406.975 1066.18 408.738 1066.18ZM442.261 1069.59V1042.31H446.309V1046.57H446.664C447.233 1045.12 448.15 1043.99 449.417 1043.18C450.683 1042.37 452.204 1041.96 453.98 1041.96C455.779 1041.96 457.276 1042.37 458.472 1043.18C459.679 1043.99 460.62 1045.12 461.295 1046.57H461.579C462.278 1045.17 463.325 1044.05 464.722 1043.22C466.119 1042.38 467.794 1041.96 469.747 1041.96C472.185 1041.96 474.18 1042.72 475.73 1044.25C477.281 1045.76 478.056 1048.13 478.056 1051.33V1069.59H473.866V1051.33C473.866 1049.32 473.316 1047.88 472.215 1047.02C471.114 1046.15 469.818 1045.72 468.326 1045.72C466.409 1045.72 464.923 1046.3 463.87 1047.46C462.816 1048.61 462.289 1050.07 462.289 1051.83V1069.59H458.028V1050.91C458.028 1049.36 457.525 1048.11 456.519 1047.16C455.513 1046.2 454.217 1045.72 452.63 1045.72C451.541 1045.72 450.523 1046.01 449.576 1046.59C448.641 1047.17 447.884 1047.98 447.304 1049.01C446.735 1050.03 446.451 1051.2 446.451 1052.54V1069.59H442.261ZM485.718 1069.59V1042.31H489.766V1046.57H490.121C490.69 1045.12 491.607 1043.99 492.874 1043.18C494.14 1042.37 495.661 1041.96 497.437 1041.96C499.236 1041.96 500.733 1042.37 501.929 1043.18C503.136 1043.99 504.077 1045.12 504.752 1046.57H505.036C505.735 1045.17 506.782 1044.05 508.179 1043.22C509.576 1042.38 511.251 1041.96 513.204 1041.96C515.642 1041.96 517.637 1042.72 519.188 1044.25C520.738 1045.76 521.513 1048.13 521.513 1051.33V1069.59H517.323V1051.33C517.323 1049.32 516.773 1047.88 515.672 1047.02C514.571 1046.15 513.275 1045.72 511.783 1045.72C509.866 1045.72 508.38 1046.3 507.327 1047.46C506.273 1048.61 505.746 1050.07 505.746 1051.83V1069.59H501.485V1050.91C501.485 1049.36 500.982 1048.11 499.976 1047.16C498.97 1046.2 497.674 1045.72 496.087 1045.72C494.998 1045.72 493.98 1046.01 493.033 1046.59C492.098 1047.17 491.341 1047.98 490.761 1049.01C490.192 1050.03 489.908 1051.2 489.908 1052.54V1069.59H485.718Z" fill="#BA6FF3"/>
<path d="M1549.48 805.869L1513.14 807.084L1512.99 802.683L1544.72 801.623L1544.71 801.41L1538.52 792.734L1543 792.585L1549.33 801.469L1549.48 805.869ZM1520.91 816.435L1524.53 816.314L1550.33 831.44L1550.42 834.066L1544.81 834.253L1544.75 832.479L1525.26 821.051L1524.97 821.06L1525.69 842.567L1521.79 842.697L1520.91 816.435ZM1514.03 833.79L1522.58 833.504L1524.27 833.448L1550.37 832.576L1550.51 836.763L1514.17 837.978L1514.03 833.79ZM1551.78 859.935C1551.82 861.426 1551.59 862.926 1551.08 864.435C1550.58 865.944 1549.7 867.336 1548.45 868.609C1547.21 869.882 1545.5 870.928 1543.31 871.747C1541.13 872.567 1538.36 873.032 1535.03 873.143C1531.8 873.251 1528.92 873.04 1526.39 872.508C1523.88 871.988 1521.74 871.183 1519.99 870.093C1518.23 869.015 1516.89 867.674 1515.94 866.071C1515 864.48 1514.5 862.661 1514.43 860.615C1514.36 858.58 1514.7 856.751 1515.45 855.127C1516.22 853.514 1517.3 852.175 1518.71 851.11C1520.13 850.055 1521.8 849.354 1523.71 849.006L1523.85 853.336C1522.2 853.782 1520.84 854.603 1519.79 855.799C1518.76 857.006 1518.27 858.568 1518.33 860.484C1518.43 863.288 1519.73 865.459 1522.23 866.998C1524.73 868.549 1528.22 869.25 1532.69 869.1L1532.68 868.816C1531.67 868.187 1530.78 867.429 1530.03 866.542C1529.28 865.655 1528.69 864.662 1528.26 863.563C1527.83 862.465 1527.6 861.288 1527.56 860.034C1527.49 857.952 1527.94 856.024 1528.91 854.251C1529.89 852.489 1531.27 851.057 1533.05 849.956C1534.83 848.866 1536.9 848.281 1539.24 848.203C1541.46 848.129 1543.52 848.558 1545.39 849.49C1547.29 850.433 1548.81 851.791 1549.97 853.565C1551.13 855.35 1551.74 857.473 1551.78 859.935ZM1547.88 860.065C1547.83 858.575 1547.41 857.245 1546.63 856.075C1545.85 854.916 1544.83 854.009 1543.55 853.353C1542.29 852.708 1540.9 852.411 1539.38 852.462C1537.87 852.512 1536.5 852.89 1535.28 853.594C1534.07 854.309 1533.12 855.259 1532.43 856.443C1531.75 857.638 1531.43 858.981 1531.48 860.471C1531.52 861.595 1531.77 862.635 1532.24 863.59C1532.72 864.545 1533.36 865.371 1534.15 866.067C1534.96 866.774 1535.86 867.318 1536.85 867.7C1537.86 868.081 1538.9 868.253 1539.98 868.217C1541.4 868.17 1542.72 867.782 1543.94 867.054C1545.16 866.339 1546.13 865.37 1546.86 864.15C1547.59 862.941 1547.93 861.58 1547.88 860.065ZM1516.07 894.904L1543.33 893.993L1543.46 898.039L1539.21 898.181L1539.22 898.536C1540.69 899.055 1541.85 899.934 1542.7 901.173C1543.56 902.412 1544.02 903.918 1544.08 905.693C1544.14 907.491 1543.78 909.001 1543 910.223C1542.24 911.457 1541.14 912.435 1539.71 913.158L1539.72 913.442C1541.15 914.093 1542.3 915.102 1543.17 916.47C1544.06 917.838 1544.54 919.498 1544.6 921.45C1544.68 923.887 1543.99 925.906 1542.51 927.507C1541.05 929.107 1538.72 929.961 1535.51 930.068L1517.27 930.678L1517.13 926.49L1535.37 925.88C1537.38 925.813 1538.8 925.215 1539.63 924.086C1540.45 922.957 1540.84 921.647 1540.79 920.156C1540.73 918.24 1540.1 916.775 1538.9 915.76C1537.72 914.746 1536.25 914.268 1534.49 914.327L1516.74 914.92L1516.6 910.661L1535.27 910.037C1536.82 909.986 1538.05 909.441 1538.96 908.404C1539.89 907.366 1540.32 906.055 1540.27 904.47C1540.23 903.381 1539.91 902.374 1539.3 901.447C1538.69 900.531 1537.86 899.801 1536.81 899.256C1535.77 898.722 1534.58 898.478 1533.25 898.522L1516.21 899.092L1516.07 894.904ZM1517.52 938.334L1544.78 937.424L1544.92 941.469L1540.66 941.612L1540.67 941.967C1542.14 942.486 1543.3 943.365 1544.15 944.604C1545.01 945.842 1545.47 947.349 1545.53 949.123C1545.59 950.922 1545.23 952.432 1544.45 953.654C1543.69 954.887 1542.59 955.866 1541.16 956.589L1541.17 956.872C1542.6 957.523 1543.75 958.533 1544.63 959.901C1545.51 961.269 1545.99 962.929 1546.05 964.881C1546.13 967.318 1545.44 969.337 1543.96 970.937C1542.5 972.538 1540.17 973.392 1536.96 973.499L1518.72 974.108L1518.58 969.921L1536.82 969.311C1538.83 969.244 1540.25 968.646 1541.08 967.516C1541.91 966.387 1542.29 965.078 1542.24 963.587C1542.18 961.671 1541.55 960.205 1540.36 959.191C1539.17 958.177 1537.7 957.699 1535.94 957.758L1518.19 958.351L1518.05 954.092L1536.72 953.468C1538.27 953.416 1539.5 952.872 1540.41 951.835C1541.34 950.797 1541.77 949.486 1541.72 947.901C1541.68 946.812 1541.36 945.804 1540.75 944.877C1540.14 943.962 1539.31 943.232 1538.26 942.687C1537.22 942.153 1536.04 941.908 1534.7 941.953L1517.66 942.522L1517.52 938.334Z" fill="#BA6FF3"/>
<path d="M221.98 308.64C222.04 308.75 222.73 308.21 222.73 308.21L221.98 311.47C222.46 312.31 227.25 307.55 227.63 308.21L221.98 318.06L239.05 308.21C239.05 308.21 219.79 315.42 221.98 319.23L241.06 308.21C241.34 308.7 225.73 317.04 227.71 320.47C227.86 320.73 247.9 306.41 248.94 308.21L232.03 320.47C232.03 320.47 250.22 302.95 253.26 308.21C254.61 310.55 240.43 320.47 240.43 320.47C240.43 320.47 259.75 304.9 261.66 308.21C261.66 308.21 250.68 319.49 251.24 320.47C251.28 320.53 272.47 308.21 272.47 308.21C272.47 308.21 267.84 313.95 268.78 315.57C271.08 319.55 270.34 314.67 270.34 314.67L280.48 311.84C280.71 312.24 279.98 310.64 280.63 311.76C281.69 313.6 274.77 320.18 274.77 320.18C275.24 321 281.74 312.43 283.35 315.22L277.07 319.79C277.07 319.79 295.78 306.03 297.06 308.25L287.67 317.58C287.94 318.05 291.68 309.52 294.17 313.83C294.17 313.83 293.93 319.61 294.42 320.46C294.42 320.46 315.63 308.17 315.65 308.2C315.65 308.2 298.14 319.44 298.73 320.46L319.96 308.2L307.41 315.53L318.55 309.1C319.07 310 315.85 312.34 316.28 313.07C317.51 315.2 322.89 305.63 324.46 308.35L311.75 319.56C313.05 321.81 325.72 310.32 326.23 311.2C326.73 312.07 319.53 318.36 320.15 319.44L330.48 313.48C331.27 314.86 318.81 320.47 318.81 320.47C320.95 324.18 340.04 308.21 340.04 308.21L326.07 320.47L347.3 308.21C348.21 309.79 328.02 320.47 328.02 320.47L349.25 308.21L339.37 320.47C339.85 321.31 360.33 307.73 360.6 308.21C361.34 309.5 344.37 320.47 344.37 320.47C345.51 322.44 365.6 308.21 365.6 308.21C366.45 309.68 346.23 320.47 346.23 320.47C346.71 321.31 367.46 308.21 367.46 308.21C367.9 308.97 356.99 320.08 357.21 320.47L378.44 308.21C378.44 308.21 365.38 314.22 366.48 316.13C366.48 316.13 369.09 313.46 369.59 314.33C369.59 314.33 368.34 319.29 369.01 320.47C371.82 325.33 390.24 308.21 390.24 308.21C392.31 311.8 375.52 320.47 375.52 320.47C375.52 320.47 393.97 303.39 396.75 308.21C396.75 308.21 381.4 320.2 381.55 320.47C381.76 320.83 401.43 305.87 402.78 308.21C402.78 308.21 388.14 320.02 388.4 320.47C388.4 320.47 408.29 305.89 409.63 308.21C411.55 311.54 395.16 320.47 395.16 320.47C396.1 322.1 416.39 308.21 416.39 308.21C418.33 311.57 395.54 318.88 396.46 320.47L417.69 308.21C418.94 310.38 407.59 320.47 407.59 320.47C407.59 320.47 426.06 303.42 428.82 308.21C431.12 312.2 414.94 320.47 414.94 320.47C415.17 320.87 434.77 305.78 436.17 308.21C436.68 309.09 418.2 320.47 418.2 320.47C418.2 320.47 436.46 303.06 439.43 308.21C439.43 308.21 423.36 320.1 423.58 320.47L444.81 308.21L433.07 320.47C433.07 320.47 453.14 306.19 454.3 308.21C454.64 308.81 452.2 313.15 452.35 313.42C452.99 314.53 452.72 309.97 454.12 312.4C454.12 312.4 446.15 319.31 446.82 320.47L456.9 314.65C457.04 314.89 453.91 320.47 453.91 320.47C453.99 320.61 456.91 318.74 456.91 318.74C456.91 318.74 455.95 320.1 456.16 320.47L456.91 320.04" stroke="#BA6FF3" stroke-width="1.5" stroke-linecap="round" stroke-linejoin="round"/>
<path d="M221.98 333.33C221.98 333.33 222.7 332.85 222.73 332.9C222.82 333.06 221.94 335.19 221.98 335.27C222.08 335.44 225.71 332.26 226.08 332.9C226.26 333.21 221.98 335.78 221.98 335.78L226.98 332.9C226.98 332.9 223.34 338.96 223.95 340.02C224.93 341.72 223.18 338.62 223.98 340L224.52 345.16C225.33 346.55 244.85 331.33 245.75 332.9C246.46 334.14 232.56 342.89 233.87 345.16C236.76 350.17 255.1 332.9 255.1 332.9C255.1 332.9 238.72 342.54 240.23 345.16L261.46 332.9C262.94 335.46 246.03 345.16 246.03 345.16C248.59 349.59 264.54 328.18 267.26 332.9C269.39 336.59 252.74 345.16 252.74 345.16C252.74 345.16 273.6 332.26 273.97 332.9L262.07 345.16C262.07 345.16 281.23 329.31 283.3 332.9C284.29 334.61 272.19 341.18 272.48 341.68C272.48 341.68 283.91 334.26 284.27 334.87L269.72 344.45C270.62 346.01 278.53 339.36 278.53 339.36C278.63 339.53 276.21 341.92 276.29 342.07C279.05 346.85 278.71 340.67 278.71 340.67C278.71 340.67 277.32 343.98 277.68 344.61C280.08 348.76 293.78 332.92 294.82 334.72C294.82 334.72 302.48 333.73 303.37 335.27C303.41 335.34 306.73 333.33 306.73 333.33C306.73 333.33 292.54 343.33 293.59 345.15C296.21 349.68 314.82 332.89 314.82 332.89C315.2 333.54 312.97 339.01 312.97 339.01C312.97 339.01 313.6 335.28 315.05 337.81C315.16 338 310.01 340.24 310.66 341.35L312.96 340.02L309.52 344.93L329.96 333.13C331.77 336.26 309.89 344.19 310.44 345.14C310.58 345.38 331.67 332.88 331.67 332.88C332.4 334.15 324.49 343.02 324.49 343.02C324.49 343.02 337.68 331.97 339.17 334.55C339.4 334.95 329.28 344.21 329.81 345.14C332.13 349.16 350.91 332.65 351.04 332.88C351.18 333.12 339.57 341.4 340.94 343.77C340.94 343.77 344.34 335.28 347.17 340.17C347.48 340.71 346.44 345.13 346.44 345.13L367.67 332.87C367.71 332.93 348.15 344.08 348.76 345.13C348.76 345.13 368.47 330.23 369.99 332.87C370.36 333.51 358.02 344.73 358.25 345.13C358.25 345.13 379.38 332.69 379.48 332.87C381.33 336.07 361.52 343.01 362.74 345.13L383.97 332.87C383.97 332.87 379.43 340.61 379.76 341.19C379.76 341.19 389.56 332.33 390.95 334.73C392.79 337.91 376.9 345.13 376.9 345.13C377.3 345.82 398.13 332.87 398.13 332.87C399.07 334.51 386.07 345.13 386.07 345.13L407.3 332.87C407.3 332.87 392.12 342.82 393.45 345.13L414.68 332.87C414.68 332.87 416.47 337.74 416.58 337.92C416.72 338.15 420.3 335.77 420.3 335.77C420.43 335.99 406.02 344.57 406.34 345.12C407.5 347.14 427.57 332.86 427.57 332.86C427.57 332.86 412.67 344.94 412.77 345.12L432.26 333.87C433.91 336.73 419.64 343.23 420.73 345.12C420.76 345.17 432.27 338.46 432.27 338.46C432.27 338.46 427.6 344.68 427.86 345.12C427.86 345.12 432.19 342.42 432.28 342.57C432.28 342.57 431.37 344.84 431.54 345.12C431.56 345.15 432.29 344.69 432.29 344.69" stroke="#BA6FF3" stroke-width="1.5" stroke-linecap="round" stroke-linejoin="round"/>
<path d="M1468.51 1064.91C1468.61 1065.08 1469.26 1064.48 1469.26 1064.48C1469.26 1064.48 1468.45 1065.82 1468.51 1065.92L1471.01 1064.48L1468.51 1067.07C1468.51 1067.07 1472.82 1064.19 1472.99 1064.48L1468.51 1073.9C1469.95 1076.4 1484.83 1064.48 1484.83 1064.48C1484.83 1064.48 1467.85 1075.07 1468.51 1076.22C1469.66 1078.22 1488.41 1063.74 1488.84 1064.48C1488.84 1064.48 1472.07 1073.02 1474.22 1076.74L1495.46 1064.48C1495.48 1064.52 1484.13 1074.95 1485.16 1076.74C1486.61 1079.25 1506.4 1064.48 1506.4 1064.48C1506.4 1064.48 1494.82 1076.27 1495.09 1076.74C1495.09 1076.74 1513.98 1060.42 1516.33 1064.48C1517.1 1065.82 1503.86 1074.16 1505.35 1076.74C1505.43 1076.87 1523.56 1059.24 1526.59 1064.48C1526.59 1064.48 1513.9 1074.58 1515.15 1076.74L1536.39 1064.48C1536.39 1064.48 1534.45 1067.81 1534.57 1068.03C1534.57 1068.03 1534.72 1067.51 1534.91 1067.83C1535.89 1069.53 1522.1 1072.51 1523.54 1075.01L1525.18 1074.06C1525.18 1074.06 1535.52 1068.31 1535.52 1068.32L1537.99 1066.89C1537.99 1066.89 1527.61 1076.67 1527.65 1076.73L1548.89 1064.47L1536.16 1076.73C1536.16 1076.73 1556.34 1062.65 1557.4 1064.47C1557.4 1064.47 1543.12 1073.79 1544.82 1076.73C1545.76 1078.36 1566.06 1064.47 1566.06 1064.47L1549.88 1076.73L1571.12 1064.47C1571.71 1065.5 1557.91 1076.73 1557.91 1076.73C1558.09 1077.04 1577 1060.75 1579.15 1064.47L1567.69 1076.73C1567.69 1076.73 1582.74 1066.52 1583.4 1067.66L1579.06 1076.73C1579.27 1077.1 1583.41 1074.22 1583.41 1074.22C1583.56 1074.49 1582.67 1076.73 1582.67 1076.73C1582.67 1076.73 1583.36 1076.19 1583.42 1076.3" stroke="#BA6FF3" stroke-width="1.5" stroke-linecap="round" stroke-linejoin="round"/>
<path d="M221.98 366.02C221.98 366.02 222.72 365.57 222.73 365.59C222.98 366.02 221.28 371.08 221.98 372.28C221.98 372.28 232.98 364.54 233.58 365.58L231.01 372.04C233.68 376.66 236.22 369.03 236.22 369.03C236.22 369.03 233.96 375.4 233.99 375.44C236.67 380.09 249.97 366.21 249.97 366.21L236.93 377.16C237.66 378.43 248 368.21 249.11 370.13C250.85 373.14 236.47 377.83 236.47 377.83C236.47 377.83 256.13 362.84 257.71 365.57L250.81 372.13C252.5 375.05 256.62 368.78 256.62 368.78C256.62 368.78 245.26 374.39 246.44 376.42C246.77 376.99 250.12 370.04 251.96 373.23C252.24 373.72 257.86 370.08 257.86 370.08C259.22 372.44 258.23 369.87 258.23 369.87C258.82 370.89 258.93 374.53 259.41 375.36C261.28 378.61 268.6 364.17 271.15 368.58C271.15 368.58 257.74 375.28 259.2 377.83C259.2 377.83 279.09 363.24 280.44 365.57C281.45 367.31 270.14 377.36 270.41 377.83C271.94 380.48 291.65 365.57 291.65 365.57C291.65 365.57 271.54 376.67 272.22 377.83C273.96 380.85 290.71 360.81 293.46 365.57C293.46 365.57 277.04 374.06 279.22 377.83C279.22 377.83 298.43 362.06 300.46 365.57L307.53 366.39C307.53 366.39 305.76 362.38 307.94 366.15C308.98 367.95 289.15 377.16 289.54 377.82C291.47 381.17 310.78 365.56 310.78 365.56C310.93 365.83 314.73 368.92 314.89 369.2C316.17 371.42 320.62 365.89 320.62 365.89C322.34 368.87 308.95 374.81 310.69 377.81C310.69 377.81 326.91 367.88 327.15 368.31C327.84 369.5 315.81 376.04 316.83 377.81L327.15 371.85C327.62 372.67 323.78 377.74 323.82 377.81C324.12 378.33 327.16 375.88 327.16 375.88L326.41 377.81C326.41 377.81 327.06 377.2 327.16 377.38" stroke="#302B35" stroke-width="1.5" stroke-linecap="round" stroke-linejoin="round"/>
<path d="M221.98 390.72L222.73 390.29C222.73 390.29 221.87 396.1 221.98 396.28C222.96 397.98 231.36 388.54 232.36 390.29L221.98 400.41C221.98 400.41 238.36 388.3 239.51 390.29L243.28 391.93L244.54 391.2C244.54 391.2 231.06 397.58 232.44 399.96C232.44 399.96 236.86 390.62 239.8 395.71L238.23 402.54C238.23 402.54 257.4 386.7 259.47 390.28C260.27 391.66 238.72 402.54 238.72 402.54C238.72 402.54 259.09 388.78 259.96 390.28C260.59 391.37 241.78 399.78 243.38 402.54C243.38 402.54 264.31 389.75 264.62 390.28C264.62 390.28 244.27 398.06 246.86 402.54C247.51 403.67 268.1 390.28 268.1 390.28C268.17 390.4 254.3 402.54 254.3 402.54C256 405.48 275.54 390.28 275.54 390.28C275.54 390.28 264.47 400.73 265.51 402.54C268.16 407.13 286.29 389.49 286.75 390.28C288.67 393.61 270.37 402.54 270.37 402.54C272.83 406.8 289.49 386.62 291.61 390.28C291.61 390.28 274.46 399.69 276.1 402.54L297.34 390.28C297.63 390.78 304.29 392.69 304.29 392.69C304.55 393.14 304.12 390.49 305.11 392.21L291.9 402.53C291.9 402.53 311.11 386.76 313.14 390.27C313.77 391.36 311 396.47 311.4 397.16C311.4 397.16 317.23 388.17 319.66 392.39L310.49 402.53C310.49 402.53 326.44 391.77 327.11 392.93C329.23 396.6 311.74 401.71 312.21 402.52C313.21 404.26 327.11 393.92 327.11 393.92C327.12 393.95 323.06 401.56 323.62 402.52C323.74 402.73 327.13 400.49 327.13 400.49C327.13 400.49 326.36 402.47 326.38 402.52C326.41 402.58 327.13 402.09 327.13 402.09" stroke="#302B35" stroke-width="1.5" stroke-linecap="round" stroke-linejoin="round"/>
</svg>
